<svg id="Layer_1" enable-background="new 0 0 512 512" height="512" viewBox="0 0 512 512" width="512" xmlns="http://www.w3.org/2000/svg"><g><path d="m256 21.996c-135.311 0-245.002 109.691-245.002 245.002 0 78.025 36.478 147.527 93.305 192.395l125.488 51.209c8.612.917 17.354 1.398 26.209 1.398 135.311 0 245.002-109.691 245.002-245.002s-109.691-245.002-245.002-245.002z" fill="#4fabf7"/><path d="m224.822 59.938c16.619-27.076 53.198-33.48 78.027-13.66l10.485 8.37c2.765 2.208 6.69 2.208 9.455 0l10.485-8.37c24.829-19.82 61.408-13.416 78.027 13.66 15.047 24.514 7.729 56.561-16.466 72.116-4.867 4.161-37.918 16.526-68.508 63.706-3.871 5.971-12.66 5.972-16.531 0-30.609-47.211-63.692-59.59-68.508-63.706-24.196-15.555-31.513-47.602-16.466-72.116z" fill="#ff4155"/><path d="m300.362 117.48c-43.849-28.98-26.204-67.305-17.632-81.18-21.598-5.401-45.404 3.263-57.909 23.637-15.047 24.514-7.73 56.561 16.466 72.116 4.816 4.116 37.9 16.495 68.508 63.706 3.871 5.971 12.66 5.971 16.531 0 8.438-13.014 17.06-23.367 25.229-31.641-16.028-4.659-13.161-21.502-51.193-46.638z" fill="#e80054"/><path d="m368.898 267.892-1.647-.951c-9.528-5.501-21.825-2.206-27.326 7.322l6.73-11.656c5.346-9.259 3.298-21.282-5.257-27.694-10.198-7.643-24.578-4.45-30.761 6.259l2.113-3.66c5.345-9.259 3.299-21.282-5.257-27.693-10.198-7.643-24.577-4.451-30.761 6.259l33.317-57.706c5.346-9.259 3.298-21.282-5.257-27.694-10.199-7.643-24.578-4.45-30.761 6.259l-55.608 96.317c-1.095 1.897-3.542 2.511-5.398 1.348-4.79-3.004-12.227-7.525-22.286-4.151-22.029 7.391-37.363 27.427-38.737 50.628-.989 21.337-1.959-3.313 8.239 71.63.739 4.968-.227 10.04-2.739 14.39l-53.2 92.295c35.273 27.85 78.387 46.2 125.488 51.209l48.23-83.667c7.335-12.704 31.099-15.496 51.056-50.064 4.422-7.658 35.655-61.755 47.144-81.654 5.501-9.528 2.206-21.825-7.322-27.326z" fill="#f9ba8f"/><path d="m298.408 126.814 8.459 4.884c4.859 2.805 6.538 9.075 3.734 13.933l-9.173 15.889c-2.805 4.859-9.075 6.539-13.933 3.734l-8.459-4.884c-4.858-2.805-6.538-9.074-3.733-13.933l9.173-15.889c2.804-4.859 9.073-6.539 13.932-3.734z" fill="#f9dfcd"/><path d="m188.136 265.541c4.824 2.785 10.992 1.132 13.777-3.692l16.51-28.596c-1.095 1.897-3.542 2.511-5.398 1.347-3.657-2.293-8.861-5.459-15.593-5.333l-12.988 22.496c-2.785 4.824-1.132 10.992 3.692 13.778z" fill="#fd995b"/><g><path d="m399.24 24.821c-4.142 0-7.5-3.357-7.5-7.5v-9.821c0-4.143 3.358-7.5 7.5-7.5s7.5 3.357 7.5 7.5v9.821c0 4.143-3.358 7.5-7.5 7.5z" fill="#ff7186"/></g><g><path d="m447.901 63.661h-9.821c-4.142 0-7.5-3.357-7.5-7.5 0-4.142 3.358-7.5 7.5-7.5h9.821c4.142 0 7.5 3.358 7.5 7.5 0 4.143-3.358 7.5-7.5 7.5z" fill="#ff7186"/></g><g><path d="m421.401 34.001c-2.929-2.929-2.93-7.678-.001-10.606l6.944-6.945c2.929-2.93 7.678-2.929 10.606-.001 2.929 2.929 2.93 7.678.001 10.607l-6.943 6.944c-2.928 2.929-7.677 2.93-10.607.001z" fill="#ff7186"/></g><g><path d="m10.998 266.998c0 45.639 12.496 88.35 34.229 124.932 11.116-4.578 20.969-11.463 28.221-21.179 3.846-5.154 6.866-11.054 7.869-17.406 1.573-9.963-1.875-19.932-4.487-29.674-4.71-17.566-6.794-36.087-3.672-54.003 3.121-17.916 11.777-35.215 25.841-46.745 16.177-13.262 37.712-17.847 55.684-28.551 24.355-14.506 41.327-40.774 44.54-68.939 3.565-31.243-8.698-63.661-9.208-94.438-103.258 28.811-179.017 123.555-179.017 236.003z" fill="#73c3f9"/></g><g><path d="m500.784 276.961c-4.334-3.1-9.024-5.697-14.022-7.655-24.207-9.483-54.394-2.667-70.787 17.512-8.389 10.326-12.931 23.143-18.184 35.366-17.487 40.692-44.075 76.814-72.546 110.74-5.528 6.586-11.24 13.28-14.289 21.32-5.948 15.683.404 35.102 14.47 44.239 1.315.854 2.67 1.617 4.058 2.298 96.382-30.265 167.085-118.485 171.3-223.82z" fill="#73c3f9"/></g><path d="m104.303 459.393c35.273 27.85 78.387 46.2 125.488 51.209l48.23-83.667c3.463-5.998 10.59-9.789 19.247-15.755-106.425 20.346-137.026-58.473-137.026-58.473.739 4.968-.227 10.04-2.739 14.39z" fill="#fd995b"/><ellipse cx="370.758" cy="79.702" fill="#ff7186" rx="19.202" ry="19.202" transform="matrix(.707 -.707 .707 .707 52.235 285.509)"/></g></svg>