<svg id="Layer_1" enable-background="new 0 0 511.223 511.223" height="512" viewBox="0 0 511.223 511.223" width="512" xmlns="http://www.w3.org/2000/svg"><g><g><circle id="XMLID_6353_" cx="353.129" cy="158.039" fill="#ffb69e" r="31.676"/><g id="XMLID_6350_"><path d="m375.635 511.223c-10.129 0-18.341-8.211-18.341-18.341v-146.6c0-10.129 8.212-18.341 18.341-18.341s18.341 8.211 18.341 18.341v146.6c0 10.13-8.212 18.341-18.341 18.341z" fill="#414b82"/></g><g id="XMLID_6351_"><path d="m331.361 511.223c-10.129 0-18.341-8.211-18.341-18.341v-146.6c0-10.129 8.212-18.341 18.341-18.341s18.341 8.211 18.341 18.341v146.6c-.001 10.13-8.212 18.341-18.341 18.341z" fill="#5f6e9b"/></g><g fill="#ffb69e"><path d="m272.775 233.189-2.639 2.662-31.793-25.008c-6.634-5.22-16.244-4.072-21.462 2.563-5.219 6.634-4.071 16.243 2.563 21.462l42.503 33.434c6.127 4.819 14.856 4.242 20.304-1.253l9.894-9.98-.91-19.781z"/><path d="m352.334 219.971c8.618 0 15.375-7.403 14.59-15.986l-.382-4.174h-28.182l-.505 3.273c-1.371 8.878 5.496 16.887 14.479 16.887z"/><path d="m466.249 120.323c-7.592-3.685-16.738-.516-20.423 7.08l-24.762 51.037-8.59 4.394-1.519 16.978 12.831 11.571 15.757-8.06c2.957-1.513 5.341-3.947 6.79-6.936l26.995-55.642c3.684-7.594.514-16.738-7.079-20.422z"/></g><path d="m412.474 182.833-33.189 16.979h-12.743c-.003 7.613-6.478 14.086-14.091 14.086-7.641 0-14.088-6.446-14.091-14.086h-26.129c-4.077 0-7.984 1.629-10.854 4.524l-28.602 28.853 19.371 23.879 20.874-21.058v110.272h80.956v-119.65l29.81-15.25z" fill="#64afff"/><g><path d="m348.129 106.105c-3.313 0-6-2.687-6-6v-30.13c0-3.313 2.687-6 6-6s6 2.687 6 6v30.13c0 3.313-2.687 6-6 6z" fill="#e64937"/></g><g><path d="m324.738 114.464c-1.535 0-3.071-.586-4.242-1.757l-20.296-20.296c-2.344-2.343-2.344-6.142-.001-8.485 2.344-2.343 6.144-2.343 8.485 0l20.296 20.295c2.344 2.343 2.344 6.142.001 8.485-1.172 1.172-2.708 1.758-4.243 1.758z" fill="#e64937"/></g></g><g><circle id="XMLID_6344_" cx="113.99" cy="158.039" fill="#ba6746" r="31.676"/><g id="XMLID_6341_"><path d="m136.496 511.223c-10.129 0-18.341-8.211-18.341-18.341v-146.6c0-10.129 8.211-18.341 18.341-18.341s18.341 8.211 18.341 18.341v146.6c0 10.13-8.211 18.341-18.341 18.341z" fill="#55696e"/></g><g id="XMLID_6342_"><path d="m92.221 511.223c-10.129 0-18.341-8.211-18.341-18.341v-146.6c0-10.129 8.211-18.341 18.341-18.341s18.341 8.211 18.341 18.341v146.6c0 10.13-8.211 18.341-18.341 18.341z" fill="#748488"/></g><g fill="#ba6746"><path d="m50.178 268.452c-.155.071-13.289 5.451-13.447 5.516l-.372 74.117c-.042 8.441 6.766 15.318 15.207 15.36h.078c8.405 0 15.24-6.792 15.282-15.208l.373-74.177z"/><path d="m127.449 201.81-.295-1.999h-27.714l-.295 1.999c-1.275 8.638 5.42 16.394 14.152 16.394 8.732 0 15.427-7.755 14.152-16.394z"/><path d="m227.109 120.322c-7.596-3.685-16.739-.515-20.422 7.08l-24.761 51.037-4.09 2.092-.996 17.718 13.234 10.357 10.33-5.285c2.957-1.513 5.34-3.947 6.79-6.936l26.995-55.642c3.684-7.593.515-16.736-7.08-20.421z"/></g><path d="m177.835 180.531-37.689 19.28h-12.992c-.223 7.324-6.492 13.479-13.857 13.479-7.392 0-13.636-6.13-13.857-13.479h-26.347c-19.844 0-36.069 16.144-36.169 35.988l-.192 38.168h29.623c.336 0 .648.036.944.094l.191-38.108c.016-3.073 2.529-5.574 5.602-5.574h.788v115.903h80.956v-119.65l35.236-18.026z" fill="#ffda52"/><g><path d="m216.752 153.943c-4.142 0-7.5-3.358-7.5-7.5v-86.472c0-4.142 3.358-7.5 7.5-7.5s7.5 3.358 7.5 7.5v86.472c0 4.142-3.358 7.5-7.5 7.5z" fill="#87afb9"/></g><g><path d="m274.939 79.247h-116.374c-4.803 0-8.697-3.894-8.697-8.697v-61.853c0-4.803 3.894-8.697 8.697-8.697h116.374c4.803 0 8.697 3.894 8.697 8.697v61.852c.001 4.804-3.893 8.698-8.697 8.698z" fill="#b4d7dc"/></g></g></g></svg>