<svg height="512" viewBox="0 0 512 512" width="512" xmlns="http://www.w3.org/2000/svg"><g id="filled_outline" data-name="filled outline"><circle cx="256.018" cy="256" fill="#c7463b" r="184"/><circle cx="256.018" cy="256" fill="#f55648" r="136"/><g fill="#d9d9d9"><path d="m335.306 201.875a95.62 95.62 0 0 0 -58.774-39.658l-3.416 15.631a79.873 79.873 0 1 1 -43.016 2.452l-4.37 10.821 14.836 5.991 10.8-26.745a8 8 0 0 0 -2.577-9.364l-20.135-15.303-9.684 12.737 7.983 6.069a96 96 0 0 0 11.272 185.836 96.93 96.93 0 0 0 17.994 1.69 96.037 96.037 0 0 0 79.087-150.152z"/><path d="m248.018 72h16v24h-16z"/><path d="m203.501 77.861h16v24h-16z" transform="matrix(.966 -.259 .259 .966 -16.051 57.8)"/><path d="m81.879 199.483h16v24h-16z" transform="matrix(.259 -.966 .966 .259 -137.66 243.565)"/><path d="m72.018 248h24v16h-24z"/><path d="m77.879 292.517h24v16h-24z" transform="matrix(.966 -.259 .259 .966 -74.708 33.497)"/><path d="m199.501 414.139h24v16h-24z" transform="matrix(.259 -.966 .966 .259 -250.992 517.191)"/><path d="m248.036 416h16v24h-16z"/><path d="m292.534 410.139h16v24h-16z" transform="matrix(.966 -.259 .259 .966 -99.021 92.173)"/><path d="m414.157 288.517h16v24h-16z" transform="matrix(.259 -.966 .966 .259 22.62 630.513)"/><path d="m416.018 248h24v16h-24z"/><path d="m410.157 203.483h24v16h-24z" transform="matrix(.966 -.259 .259 .966 -40.348 116.453)"/><path d="m288.535 81.86h24v16h-24z" transform="matrix(.259 -.966 .966 .259 135.945 356.893)"/></g><path d="m229.328 397.505a145.534 145.534 0 0 0 26.992 2.537 143 143 0 0 0 80.885-25.11c65.579-44.767 82.511-134.54 37.744-200.119a144 144 0 1 0 -145.621 222.692zm-99.093-165.229a127.949 127.949 0 1 1 20.066 95.89 127.162 127.162 0 0 1 -20.066-95.89z"/><path d="m256.3 447.939a190.935 190.935 0 0 0 107.967-33.363c87.438-59.689 110.015-179.386 50.326-266.825s-179.385-110.015-266.824-50.327-110.015 179.387-50.327 266.825a191.943 191.943 0 0 0 158.858 83.69zm-156.9-158.255-15.272 4.092a175.533 175.533 0 0 1 -3.873-29.776h15.763v-16h-15.746a177.494 177.494 0 0 1 3.936-29.754l15.191 4.07 4.141-15.455-15.209-4.075a175.841 175.841 0 0 1 114.451-114.554l4.1 15.29 15.455-4.141-4.097-15.281a175.629 175.629 0 0 1 29.778-3.871v15.771h16v-15.732a177.474 177.474 0 0 1 29.752 3.932l-4.07 15.181 15.455 4.141 4.071-15.193a175.742 175.742 0 0 1 114.553 114.437l-15.279 4.095 4.14 15.455 15.272-4.092a175.533 175.533 0 0 1 3.868 29.776h-15.762v16h15.745a177.391 177.391 0 0 1 -3.936 29.754l-15.191-4.07-4.14 15.455 15.209 4.075a175.853 175.853 0 0 1 -114.451 114.555l-4.1-15.291-15.454 4.141 4.1 15.281a175.521 175.521 0 0 1 -29.759 3.869v-15.769h-16v15.732a177.555 177.555 0 0 1 -29.77-3.93l4.068-15.183-15.455-4.141-4.07 15.191a175.735 175.735 0 0 1 -114.558-114.435l15.284-4.095z"/><path d="m238.225 350.337a96.93 96.93 0 0 0 17.994 1.69 96.015 96.015 0 0 0 20.313-189.81l-3.416 15.631a79.873 79.873 0 1 1 -43.016 2.452l-4.37 10.821 14.836 5.991 10.8-26.745a8 8 0 0 0 -2.577-9.364l-20.135-15.303-9.684 12.737 7.983 6.069a96 96 0 0 0 11.272 185.836z"/></g></svg>