<?xml version="1.0" encoding="iso-8859-1"?>
<!-- Generator: Adobe Illustrator 19.0.0, SVG Export Plug-In . SVG Version: 6.00 Build 0)  -->
<svg version="1.1" id="Capa_1" xmlns="http://www.w3.org/2000/svg" xmlns:xlink="http://www.w3.org/1999/xlink" x="0px" y="0px"
	 viewBox="0 0 512 512" style="enable-background:new 0 0 512 512;" xml:space="preserve">
<path style="fill:#F8CF26;" d="M93.867,503.467H51.2v-358.4h68.267v128h-25.6V503.467z"/>
<path style="fill:#97D7D9;" d="M51.2,384h42.667V273.067h25.6v-34.133H51.2V384z"/>
<g>
	<path style="fill:#29485A;" d="M247.467,85.333l37.18,37.18l41.003-19.422L273.067,76.8L247.467,85.333z"/>
	<path style="fill:#29485A;" d="M307.2,59.733l35.644,35.644l53.589-25.813l-55.1-18.364L307.2,59.733z"/>
	<path style="fill:#29485A;" d="M426.667,101.154v69.513l-34.133,17.067l-17.655-61.798L426.667,101.154z"/>
</g>
<g>
	<path style="fill:#ACDEE0;" d="M162.133,42.667H8.533L14.225,76.8h142.217L162.133,42.667z"/>
	<path style="fill:#ACDEE0;" d="M25.6,145.067h119.467l5.692-34.133H19.908L25.6,145.067z"/>
</g>
<path style="fill:#06AAE9;" d="M14.225,76.8l5.683,34.133h130.85l5.683-34.133H14.225z"/>
<path style="fill:#81D0D3;" d="M93.867,273.067H486.4v230.4H93.867V273.067z"/>
<path style="fill:#29485A;" d="M93.867,307.2H486.4V384H93.867V307.2z"/>
<path style="fill:#0378A3;" d="M332.8,409.6h128v34.133h-128V409.6z"/>
<g>
	<path style="fill:#29485A;" d="M153.6,469.333h59.733v34.133H153.6V469.333z"/>
	<path style="fill:#29485A;" d="M366.933,469.333h59.733v34.133h-59.733V469.333z"/>
</g>
<g>
	<path style="fill:#0378A3;" d="M93.867,384l76.8-76.8h-76.8V384z"/>
	<path style="fill:#0378A3;" d="M230.4,307.2L153.6,384h42.667l76.8-76.8H230.4z"/>
	<path style="fill:#0378A3;" d="M349.867,307.2l-76.8,76.8h102.4l76.8-76.8H349.867z"/>
	<path style="fill:#0378A3;" d="M486.4,324.267L426.667,384H486.4V324.267z"/>
</g>
<path style="fill:#06AAE9;" d="M435.2,51.2h42.667L460.8,85.333l-119.467,59.733H281.6L273.067,128L435.2,51.2z"/>
<path d="M145.067,153.6H25.6c-4.173,0-7.731-3.021-8.414-7.125L0.119,44.075c-0.41-2.475,0.282-5.001,1.903-6.921
	c1.621-1.92,4.002-3.021,6.511-3.021h153.6c2.509,0,4.89,1.101,6.511,3.021s2.313,4.446,1.903,6.921l-17.067,102.4
	C152.798,150.579,149.239,153.6,145.067,153.6z M32.828,136.533h105.011L152.064,51.2H18.611L32.828,136.533z"/>
<path d="M93.867,512H51.2c-4.71,0-8.533-3.814-8.533-8.533v-358.4c0-4.71,3.823-8.533,8.533-8.533h68.267
	c4.71,0,8.533,3.823,8.533,8.533v128c0,4.719-3.823,8.533-8.533,8.533H102.4v221.867C102.4,508.186,98.577,512,93.867,512z
	 M59.733,494.933h25.6V273.067c0-4.719,3.823-8.533,8.533-8.533h17.067V153.6h-51.2V494.933z"/>
<rect x="42.667" width="17.067" height="42.667"/>
<rect x="76.8" y="17.067" width="17.067" height="25.6"/>
<rect x="102.4" y="17.067" width="17.067" height="25.6"/>
<path d="M486.4,512H93.867c-4.71,0-8.533-3.814-8.533-8.533v-230.4c0-4.719,3.823-8.533,8.533-8.533H486.4
	c4.719,0,8.533,3.814,8.533,8.533v230.4C494.933,508.186,491.119,512,486.4,512z M102.4,494.933h375.467V281.6H102.4V494.933z"/>
<path d="M486.4,392.533H93.867c-4.71,0-8.533-3.814-8.533-8.533v-76.8c0-4.719,3.823-8.533,8.533-8.533H486.4
	c4.719,0,8.533,3.814,8.533,8.533V384C494.933,388.719,491.119,392.533,486.4,392.533z M102.4,375.467h375.467v-59.733H102.4
	V375.467z"/>
<rect x="119.467" y="401.067" width="17.067" height="17.067"/>
<rect x="153.6" y="401.067" width="17.067" height="17.067"/>
<rect x="187.733" y="401.067" width="17.067" height="17.067"/>
<rect x="221.867" y="401.067" width="17.067" height="17.067"/>
<rect x="256" y="401.067" width="17.067" height="17.067"/>
<rect x="290.133" y="401.067" width="17.067" height="17.067"/>
<rect x="119.467" y="435.2" width="17.067" height="17.067"/>
<rect x="153.6" y="435.2" width="17.067" height="17.067"/>
<rect x="187.733" y="435.2" width="17.067" height="17.067"/>
<rect x="221.867" y="435.2" width="17.067" height="17.067"/>
<rect x="256" y="435.2" width="17.067" height="17.067"/>
<rect x="290.133" y="435.2" width="17.067" height="17.067"/>
<path d="M469.333,452.267H324.267v-51.2h145.067V452.267z M341.333,435.2h110.933v-17.067H341.333V435.2z"/>
<path d="M221.867,512h-76.8v-51.2h76.8V512z M162.133,494.933H204.8v-17.067h-42.667V494.933z"/>
<path d="M435.2,512h-76.8v-51.2h76.8V512z M375.467,494.933h42.667v-17.067h-42.667V494.933z"/>
<path d="M85.333,404.599V298.667h105.933L85.333,404.599z M102.4,315.733v47.667l47.667-47.667H102.4z"/>
<path d="M199.799,392.533h-66.799l93.867-93.867h66.799L199.799,392.533z M174.199,375.467h18.534l59.733-59.733h-18.534
	L174.199,375.467z"/>
<path d="M379,392.533H252.467l93.867-93.867h126.532L379,392.533z M293.666,375.467h78.268l59.733-59.733H353.4L293.666,375.467z"/>
<path d="M494.933,392.533h-88.866l88.866-88.866V392.533z M447.266,375.467h30.601v-30.601L447.266,375.467z"/>
<path d="M341.333,153.6H281.6c-3.234,0-6.187-1.826-7.637-4.719l-8.533-17.067c-1.024-2.057-1.186-4.437-0.435-6.596
	c0.751-2.167,2.338-3.942,4.42-4.932l162.133-76.8c1.143-0.538,2.389-0.819,3.652-0.819h42.667c2.961,0,5.7,1.536,7.262,4.045
	c1.562,2.517,1.698,5.658,0.375,8.303l-17.067,34.133c-0.828,1.647-2.167,2.995-3.814,3.814l-119.467,59.733
	C343.97,153.293,342.656,153.6,341.333,153.6z M286.874,136.533h52.446l115.123-57.557l9.617-19.243h-26.94l-152.516,72.243
	L286.874,136.533z"/>
<path d="M392.533,196.267c-1.169,0-2.338-0.239-3.43-0.717c-2.321-1.024-4.079-3.029-4.779-5.47l-17.067-59.733
	c-1.126-3.951,0.717-8.141,4.395-9.975l51.2-25.6c2.645-1.323,5.786-1.186,8.303,0.375c2.509,1.553,4.045,4.292,4.045,7.253v68.267
	c0,3.234-1.826,6.187-4.719,7.637l-34.133,17.067C395.153,195.968,393.839,196.267,392.533,196.267z M385.613,132.463l12.297,43.034
	l20.224-10.103v-49.186L385.613,132.463z"/>
<path d="M281.6,128c-2.219,0-4.403-0.87-6.033-2.5l-34.133-34.133c-2.091-2.091-2.953-5.12-2.27-7.996
	c0.683-2.876,2.799-5.197,5.606-6.135l25.6-8.533c2.176-0.708,4.489-0.538,6.519,0.461l51.2,25.6
	c3.012,1.502,4.847,4.625,4.71,7.987c-0.137,3.362-2.236,6.323-5.359,7.569l-42.667,17.067C283.742,127.804,282.667,128,281.6,128z
	 M263.262,89.062l20.395,20.395l19.789-7.919l-31.044-15.522L263.262,89.062z"/>
<path d="M341.333,102.4c-2.21,0-4.395-0.862-6.033-2.5l-34.133-34.133c-2.176-2.176-3.012-5.35-2.193-8.311
	c0.828-2.961,3.174-5.257,6.161-5.999l34.133-8.533c1.57-0.393,3.226-0.333,4.77,0.179l51.2,17.067
	c3.277,1.092,5.564,4.053,5.811,7.492c0.247,3.439-1.604,6.69-4.693,8.235l-51.2,25.6C343.936,102.101,342.63,102.4,341.333,102.4z
	 M323.891,64.358l19.123,19.123l27.273-13.636l-29.295-9.762L323.891,64.358z"/>
<path d="M93.867,392.533H51.2c-4.71,0-8.533-3.814-8.533-8.533V238.933c0-4.71,3.823-8.533,8.533-8.533h68.267
	c4.71,0,8.533,3.823,8.533,8.533v34.133c0,4.719-3.823,8.533-8.533,8.533H102.4V384C102.4,388.719,98.577,392.533,93.867,392.533z
	 M59.733,375.467h25.6v-102.4c0-4.719,3.823-8.533,8.533-8.533h17.067v-17.067h-51.2V375.467z"/>
<rect y="494.933" width="512" height="17.067"/>
<g>
</g>
<g>
</g>
<g>
</g>
<g>
</g>
<g>
</g>
<g>
</g>
<g>
</g>
<g>
</g>
<g>
</g>
<g>
</g>
<g>
</g>
<g>
</g>
<g>
</g>
<g>
</g>
<g>
</g>
</svg>
