<svg id="Capa_1" enable-background="new 0 0 512 512" height="512" viewBox="0 0 512 512" width="512" xmlns="http://www.w3.org/2000/svg"><g><g><path d="m429.365 364.779-173.365-19.627-173.365 19.627c-30.491 3.452-54.876 26.927-59.484 57.265l-12.05 79.335c-.267 1.761 1.096 3.347 2.877 3.347h484.045c1.781 0 3.144-1.586 2.877-3.347l-12.05-79.335c-4.609-30.337-28.994-53.813-59.485-57.265z" fill="#f9f6f6"/></g><g><path d="m269.835 417.687h-27.67l-7.629 87.039h42.928z" fill="#5766cb"/></g><g><path d="m269.835 417.687h-20.495l7.63 87.039h20.494z" fill="#1f3594"/></g><g><path d="m450.496 412.353 14.03 92.373h33.496c1.781 0 3.144-1.586 2.877-3.347l-12.05-79.336c-4.608-30.338-28.993-53.813-59.484-57.264l-7.118-.806c14.852 11.653 25.264 28.724 28.249 48.38z" fill="#dddaec"/></g><g><path d="m350.015 355.773-85.752 133.521c-3.817 5.943-12.504 5.943-16.321 0l-85.752-133.521-66.46 7.524v141.429h320.746v-141.429z" fill="#707dd3"/></g><g><path d="m387.685 360.037v144.689h28.79v-141.429z" fill="#5766cb"/></g><g><path d="m184.388 261.486h143.223v127.038h-143.223z" fill="#ffccbf"/></g><g><path d="m298.674 261.486h28.937v127.038h-28.937z" fill="#ffa78e"/></g><g><path d="m168.873 237.375h6.534v-57.728c0-9.228-7.481-16.71-16.71-16.71h-7.949c-12.116 0-21.938 9.822-21.938 21.938v12.437c0 22.127 17.937 40.063 40.063 40.063z" fill="#ffccbf"/></g><g><path d="m343.126 237.375h-6.534v-57.728c0-9.228 7.481-16.71 16.71-16.71h7.949c12.116 0 21.938 9.822 21.938 21.938v12.437c-.001 22.127-17.937 40.063-40.063 40.063z" fill="#ffa78e"/></g><g><path d="m308.978 304.575-29.072 18.732c-14.557 9.379-33.254 9.379-47.811 0l-29.072-18.732c-23.561-15.181-37.797-41.29-37.797-69.318v-133.603h181.55v133.603c-.001 28.028-14.237 54.137-37.798 69.318z" fill="#ffccbf"/></g><g><path d="m307.17 101.654v133.602c0 28.028-14.237 54.137-37.797 69.318l-29.073 18.733c-1.335.86-2.705 1.64-4.103 2.342 13.849 6.957 30.486 6.178 43.708-2.342l29.072-18.732c23.561-15.181 37.797-41.29 37.797-69.318v-133.603z" fill="#ffa78e"/></g><g><path d="m318.415 119.48v17.911c0 14.387 5.071 28.314 14.322 39.334l14.89 17.736c.906 1.079 2.624.863 3.234-.407l9.535-19.841c3.566-7.421 5.418-15.55 5.418-23.784v-30.949z" fill="#407093"/></g><g><path d="m346.448 119.48v30.949c0 8.234-1.852 16.362-5.418 23.784l-3.787 7.88 10.383 12.368c.906 1.079 2.624.863 3.234-.407l9.535-19.841c3.566-7.421 5.418-15.55 5.418-23.784v-30.949z" fill="#365e7d"/></g><g><path d="m193.584 119.48v17.911c0 14.387-5.071 28.314-14.322 39.334l-14.89 17.736c-.906 1.079-2.624.863-3.234-.407l-9.535-19.841c-3.566-7.421-5.418-15.55-5.418-23.784v-30.949z" fill="#407093"/></g><g><path d="m173.823 119.48v13.19c0 14.387-5.071 28.314-14.321 39.334l-5.698 6.787 7.335 15.263c.61 1.27 2.328 1.486 3.234.407l14.89-17.736c9.251-11.019 14.322-24.946 14.322-39.334v-17.911z" fill="#365e7d"/></g><g><path d="m389.557 32.368c0-4.955-3.308-9.293-8.086-10.607-17.025-4.683-60.434-14.487-125.471-14.487s-108.446 9.804-125.47 14.487c-4.778 1.314-8.086 5.651-8.086 10.607v4.885c0 8.026 2.704 15.819 7.675 22.12l2.627 3.329c8.707 11.036 13.442 24.684 13.442 38.741v24.585h219.626v-24.585c0-14.057 4.735-27.705 13.442-38.741l2.627-3.329c4.971-6.301 7.675-14.094 7.675-22.12v-4.885z" fill="#707dd3"/></g><g><path d="m381.47 21.761c-5.421-1.491-13.528-3.502-24.145-5.55v3.359c0 8.026-2.704 15.819-7.675 22.12l-2.627 3.329c-8.707 11.036-13.442 24.684-13.442 38.741v16.989 7.597 9.959c0 3-1.268 5.768-3.359 7.724h35.59v-24.585c0-14.057 4.735-27.705 13.442-38.741l2.627-3.329c4.971-6.301 7.675-14.094 7.675-22.12v-4.885c.001-4.956-3.308-9.293-8.086-10.608z" fill="#5766cb"/></g><g><path d="m365.813 118.433h-219.626v17.555c0 4.665 3.054 8.779 7.519 10.129 23.073 6.978 47.047 10.523 71.152 10.523h62.284c24.105 0 48.079-3.546 71.152-10.523 4.465-1.35 7.519-5.465 7.519-10.129z" fill="#f9f6f6"/></g><g><path d="m333.577 118.433c-.055 4.611-3.09 8.664-7.514 10.002-23.073 6.978-47.047 10.523-71.152 10.523h-62.284c-15.605 0-31.154-1.495-46.44-4.437v1.467c0 4.665 3.054 8.779 7.519 10.129 23.073 6.978 47.047 10.523 71.152 10.523h62.284c24.105 0 48.079-3.546 71.152-10.523 4.465-1.35 7.519-5.465 7.519-10.129v-17.555z" fill="#dddaec"/></g><g><ellipse cx="256" cy="46.769" fill="#ffe07d" rx="36.416" ry="14.764"/></g><g><path d="m278.95 35.309c-2.129 7.331-17.499 13.02-36.154 13.02-8.701 0-16.686-1.239-22.95-3.303-.166.572-.261 1.153-.261 1.744 0 8.154 16.304 14.764 36.416 14.764s36.416-6.61 36.416-14.764c-.001-4.627-5.253-8.754-13.467-11.461z" fill="#ffd064"/></g><g><path d="m227.659 373.103 11.874 45.597c.955 3.666 4.403 6.239 8.361 6.239h16.211c3.958 0 7.406-2.574 8.361-6.239l11.874-45.597z" fill="#707dd3"/></g><g><path d="m263.61 373.103-11.874 45.597c-.767 2.945-3.144 5.181-6.101 5.949.724.188 1.481.291 2.26.291h16.211c3.958 0 7.406-2.574 8.361-6.24l11.874-45.597z" fill="#5766cb"/></g><g><path d="m176.718 334.988-29.783 19.09c-4.228 2.71-5.1 8.525-1.852 12.356l60.512 71.363c2.127 2.509 6.191 1.65 7.12-1.505l3.462-11.746c4.442-15.073 13.149-28.539 25.071-38.776l14.752-12.667-73.228-38.379c-1.919-1.006-4.23-.905-6.054.264z" fill="#f9f6f6"/></g><g><path d="m221.162 354.844-5.831 5.007c-11.922 10.237-20.629 23.703-25.071 38.776l-3.462 11.746c-.367 1.246-1.226 2.127-2.259 2.591l21.056 24.832c2.127 2.509 6.191 1.65 7.12-1.505l3.462-11.746c4.442-15.073 13.149-28.539 25.071-38.776l14.752-12.666z" fill="#dddaec"/></g><g><path d="m335.486 334.988 29.783 19.09c4.228 2.71 5.1 8.525 1.852 12.356l-60.512 71.363c-2.127 2.509-6.191 1.65-7.12-1.505l-3.462-11.746c-4.442-15.073-13.149-28.539-25.071-38.776l-14.751-12.666 73.228-38.379c1.918-1.007 4.229-.906 6.053.263z" fill="#f9f6f6"/></g><g><path d="m365.269 354.079-29.783-19.091c-1.824-1.169-4.135-1.27-6.054-.264l-29.169 15.288 16.937 10.856c4.228 2.71 5.1 8.525 1.852 12.356l-29.775 35.114c2.814 5.119 5.082 10.551 6.75 16.208l3.462 11.746c.93 3.155 4.993 4.014 7.12 1.505l60.512-71.363c3.248-3.83 2.376-9.645-1.852-12.355z" fill="#dddaec"/></g><g><path d="m150.922 471.993h-68.651c-3.866 0-7-3.134-7-7v-23.643c0-3.866 3.134-7 7-7h68.651c3.866 0 7 3.134 7 7v23.643c0 3.866-3.134 7-7 7z" fill="#ffe07d"/></g><g><path d="m151.133 434.35h-8.955v15.11c0 3.75-3.04 6.789-6.789 6.789h-60.118v8.955c0 3.749 3.04 6.789 6.789 6.789h69.073c3.749 0 6.789-3.04 6.789-6.789v-24.065c0-3.75-3.04-6.789-6.789-6.789z" fill="#ffd064"/></g><g><circle cx="373.103" cy="428.212" fill="#e28086" r="14.73"/></g><g><path d="m377.892 414.294c.517 1.503.812 3.11.812 4.789 0 8.135-6.595 14.73-14.73 14.73-1.679 0-3.285-.294-4.789-.812 1.989 5.781 7.462 9.941 13.918 9.941 8.135 0 14.73-6.595 14.73-14.73 0-6.456-4.16-11.928-9.941-13.918z" fill="#dd636e"/></g><g><path d="m339.286 483.35-13.438-13.438c-1.562-1.562-1.562-4.095 0-5.657l13.438-13.438c1.562-1.562 4.095-1.562 5.657 0l13.438 13.438c1.562 1.562 1.562 4.095 0 5.657l-13.438 13.438c-1.563 1.562-4.095 1.562-5.657 0z" fill="#e4f6ff"/></g><g><path d="m358.466 464.34-13.609-13.609c-1.515-1.515-3.971-1.515-5.486 0l-4.508 4.508 9.101 9.101c1.515 1.515 1.515 3.971 0 5.486l-9.101 9.101 4.508 4.508c1.515 1.515 3.971 1.515 5.486 0l13.609-13.609c1.515-1.515 1.515-3.971 0-5.486z" fill="#bed8fb"/></g><g><path d="m228.265 251.014c-2.743 0-4.665 2.788-3.606 5.317 5.132 12.25 17.227 20.857 31.34 20.857s26.209-8.607 31.34-20.857c1.06-2.53-.863-5.317-3.606-5.317z" fill="#f2fbff"/></g><g><circle cx="180.179" cy="90.41" fill="#ffe07d" r="13.968"/></g><g><circle cx="331.821" cy="90.41" fill="#ffe07d" r="13.968"/></g><g><path d="m184.87 77.266c.524 1.468.825 3.043.825 4.691 0 7.715-6.254 13.969-13.968 13.969-1.648 0-3.223-.3-4.691-.825 1.929 5.403 7.078 9.277 13.144 9.277 7.715 0 13.968-6.254 13.968-13.968 0-6.066-3.874-11.214-9.278-13.144z" fill="#ffd064"/></g><g><path d="m336.512 77.266c.524 1.468.825 3.043.825 4.691 0 7.715-6.254 13.969-13.968 13.969-1.648 0-3.223-.3-4.691-.825 1.929 5.403 7.078 9.277 13.144 9.277 7.715 0 13.969-6.254 13.969-13.968-.002-6.066-3.876-11.214-9.279-13.144z" fill="#ffd064"/></g><g><path d="m508.091 500.287-12.05-79.335c-1.631-10.736-5.464-20.775-11.392-29.838-2.199-3.362-6.708-4.306-10.069-2.105-3.362 2.199-4.305 6.707-2.105 10.069 4.778 7.305 7.868 15.4 9.183 24.06l11.288 74.315h-69.196v-125.989l4.799.543c7.712.873 15.074 3.172 21.881 6.835 1.096.59 2.276.869 3.44.869 2.59 0 5.098-1.388 6.412-3.829 1.903-3.538.578-7.949-2.96-9.852-8.446-4.544-17.576-7.396-27.137-8.478l-57.491-6.509c-.998-1.185-2.167-2.235-3.499-3.089l-29.783-19.09c-1.402-.898-2.939-1.503-4.525-1.825v-36.309c10.571-13.413 17.151-29.669 18.77-47.023 21.272-4.334 36.807-23.025 36.807-45.187v-14.306c0-11.818-7.228-22.179-17.823-26.463.291-2.432.448-4.878.448-7.323 0 0 .055-51.495.141-52.745h3.004c4.017 0 7.274-3.257 7.274-7.274s-3.257-7.274-7.274-7.274h-.007c2.011-5.727 4.953-11.127 8.74-15.927l2.627-3.33c5.958-7.552 9.238-17.007 9.238-26.625v-4.885c0-8.199-5.523-15.445-13.431-17.621-16.121-4.433-60.805-14.747-127.401-14.747-22.38 0-44.247 1.156-64.994 3.437-3.994.439-6.875 4.032-6.436 8.025s4.033 6.874 8.025 6.436c20.222-2.223 41.554-3.35 63.405-3.35 64.823 0 107.991 9.949 123.541 14.227 1.614.444 2.742 1.922 2.742 3.593v4.885c0 6.363-2.171 12.619-6.112 17.614l-2.627 3.33c-5.833 7.394-10.073 15.916-12.532 24.938h-9.233c-2.976-8.141-10.8-13.968-19.959-13.968s-16.983 5.827-19.959 13.968h-111.723c-2.976-8.141-10.8-13.968-19.959-13.968s-16.983 5.827-19.959 13.968h-9.233c-2.458-9.022-6.699-17.544-12.532-24.938l-2.627-3.329c-3.942-4.996-6.112-11.252-6.112-17.615v-4.885c0-1.672 1.127-3.15 2.742-3.593 5.745-1.58 15.31-3.955 28.251-6.292 3.953-.714 6.579-4.497 5.865-8.451s-4.497-6.579-8.451-5.865c-13.472 2.433-23.491 4.922-29.524 6.581-7.908 2.175-13.431 9.421-13.431 17.621v4.885c0 9.618 3.281 19.073 9.238 26.625l2.627 3.33c3.802 4.819 6.754 10.242 8.765 15.994-3.573.461-6.336 3.508-6.336 7.207 0 4.017 3.257 7.274 7.274 7.274h2.034c.086 1.25.14 52.745.14 52.745 0 2.444.157 4.891.448 7.323-10.593 4.285-17.823 14.65-17.823 26.462v14.306c0 22.16 15.537 40.853 36.809 45.188 1.619 17.355 8.2 33.612 18.772 47.026 0 .015-.002.03-.002.046v36.302c-1.514.332-2.98.923-4.322 1.784l-29.784 19.091c-1.322.847-2.482 1.888-3.475 3.062l-57.718 6.534c-33.685 3.814-60.766 29.885-65.857 63.4l-12.05 79.337c-.446 2.938.41 5.914 2.347 8.167s4.752 3.543 7.723 3.543h145.439c4.017 0 7.274-3.257 7.274-7.274s-3.257-7.274-7.274-7.274h-56.413v-18.185h48.13c7.754 0 14.063-6.309 14.063-14.063v-24.065c0-7.754-6.309-14.063-14.063-14.063h-48.13v-57.282l33.656-3.81c.621 1.865 1.577 3.622 2.877 5.155l60.511 71.363c2.195 2.588 5.384 4.031 8.696 4.031.786 0 1.578-.081 2.366-.248.164-.035.318-.094.479-.136l30.233 47.075c1.058 1.648 2.371 3.065 3.864 4.228h-51.597c-4.017 0-7.274 3.257-7.274 7.274s3.257 7.274 7.274 7.274h303.935c2.971 0 5.785-1.292 7.722-3.545s2.79-5.229 2.345-8.168zm-146.747-140.084c.519.311.634 1.078.229 1.527l-56.751 66.928-1.818-6.168c-4.85-16.457-14.294-31.062-27.31-42.239l-6.617-5.682 63.091-33.067zm-140.338 73.69 2.148-7.291c1.645-5.581 3.932-10.901 6.784-15.885l2.556 9.816c.385 1.478.991 2.853 1.759 4.112l-2.304 26.287zm-29.344-128.538c2.367 1.887 4.839 3.671 7.42 5.334l29.072 18.733c8.459 5.45 18.15 8.174 27.845 8.174 9.693 0 19.388-2.725 27.845-8.174l29.072-18.733c2.581-1.663 5.053-3.448 7.42-5.335v25.923l-64.236 33.667-64.44-33.774v-25.815zm64.44 77.248s13.326 11.582 14.831 13.12l-3.825 14.69h-22.216l-3.782-14.525c1.553-1.597 14.992-13.285 14.992-13.285zm-7.908 49.61h15.612l3.42 39.006-9.084 14.144c-.623.97-1.546 1.114-2.04 1.114s-1.417-.144-2.04-1.114l-9.263-14.423zm31.881 18.999-2.329-26.567c.769-1.259 1.375-2.634 1.759-4.112l2.62-10.061c2.918 5.054 5.252 10.458 6.924 16.13l2.149 7.291zm-115.96-267.758-5.955-12.392c-2.608-5.428-4.161-11.386-4.576-17.402 9.117 2.676 18.358 4.833 27.686 6.464-1.986 4.275-4.513 8.271-7.579 11.923zm-8.305-44.299c-1.26-.232-2.379-1.144-2.349-2.511v-10.615-.323h205.078v.323 9.959c0 1.469-.945 2.742-2.315 3.156-.012.004-.084.025-.096.029-22.366 6.764-45.555 10.194-68.923 10.194h-62.347c-23.409 0-46.64-3.436-69.048-10.212zm44.328-41.471h111.724c2.47 6.756 8.279 11.914 15.419 13.475h-142.562c7.14-1.561 12.949-6.719 15.419-13.475zm158.277 55.977c-.415 6.016-1.968 11.973-4.576 17.401l-5.955 12.392-9.576-11.407c-3.06-3.645-5.587-7.641-7.574-11.917 9.33-1.633 18.571-3.791 27.681-6.469zm17.499 30.554v14.306c0 13.993-9.043 25.958-21.865 30.063v-27.605c1.428-.907 2.607-2.191 3.367-3.773l9.535-19.841c.808-1.681 1.518-3.41 2.171-5.161 4.113 2.468 6.792 6.968 6.792 12.011zm-17.375-82.771v9.715h-22.178c7.139-1.561 12.949-6.719 15.419-13.475h6.875c-.069 1.251-.116 2.504-.116 3.76zm-26.718-17.728c3.691 0 6.694 3.003 6.694 6.694s-3.003 6.694-6.694 6.694-6.694-3.003-6.694-6.694 3.002-6.694 6.694-6.694zm-151.642 0c3.691 0 6.694 3.003 6.694 6.694s-3.003 6.694-6.694 6.694-6.694-3.003-6.694-6.694 3.003-6.694 6.694-6.694zm-19.959 13.968c2.47 6.756 8.279 11.914 15.419 13.475h-22.178v-9.715c0-1.256-.047-2.509-.115-3.76zm-24.136 100.836v-14.306c0-5.04 2.68-9.542 6.793-12.012.653 1.751 1.363 3.479 2.17 5.161l9.535 19.841c.761 1.582 1.94 2.867 3.368 3.774v27.604c-12.822-4.104-21.866-16.07-21.866-30.062zm36.415-2.426 12.335-14.693c4.83-5.753 8.614-12.175 11.321-19.124 9.513 1.086 19.094 1.638 28.704 1.638h62.347c9.585 0 19.142-.55 28.629-1.632 2.711 6.953 6.509 13.373 11.332 19.118l12.336 14.695v39.161c0 25.672-12.883 49.299-34.464 63.203l-29.072 18.732c-12.128 7.815-27.802 7.815-39.93 0l-29.073-18.732c-21.58-13.904-34.463-37.532-34.463-63.203v-39.163zm-21.851 268.625h-68.103v-23.095h68.103zm-62.193-37.643h-6.395c-7.754 0-14.063 6.309-14.063 14.063v24.065c0 7.754 6.309 14.063 14.063 14.063h6.395v18.185h-69.4l11.288-74.315c4.105-27.029 25.945-48.054 53.11-51.129l5.002-.566zm62.176-65.347c-.405-.449-.29-1.217.229-1.527l29.176-18.701 63.091 33.067-6.617 5.681c-13.017 11.176-22.46 25.782-27.31 42.239l-1.818 6.168zm119.752 131.495 30.233-47.075c.161.042.315.101.479.136.788.167 1.58.248 2.366.248 3.311 0 6.501-1.443 8.695-4.031l60.512-71.362c1.295-1.527 2.247-3.277 2.869-5.133l33.663 3.811v127.635h-142.681c1.493-1.164 2.806-2.581 3.864-4.229z"/><path d="m299.69 46.769c0-15.141-22.647-22.038-43.69-22.038-21.042 0-43.69 6.896-43.69 22.038s22.648 22.038 43.69 22.038 43.69-6.896 43.69-22.038zm-72.699 0c1.669-2.395 11.613-7.489 29.009-7.489 17.397 0 27.34 5.094 29.009 7.489-1.669 2.396-11.612 7.49-29.009 7.49s-27.34-5.094-29.009-7.49z"/><circle cx="211.756" cy="195.153" r="10.422"/><circle cx="300.244" cy="195.153" r="10.422"/><path d="m373.103 406.208c-12.133 0-22.004 9.871-22.004 22.004s9.871 22.004 22.004 22.004 22.004-9.871 22.004-22.004c0-12.132-9.871-22.004-22.004-22.004zm0 29.46c-4.111 0-7.456-3.345-7.456-7.456s3.345-7.456 7.456-7.456 7.456 3.345 7.456 7.456-3.345 7.456-7.456 7.456z"/><path d="m350.002 445.589c-2.107-2.107-4.908-3.268-7.887-3.268-2.98 0-5.781 1.161-7.887 3.267l-13.61 13.609c-4.347 4.348-4.347 11.423.001 15.773l13.609 13.608c2.106 2.107 4.907 3.267 7.887 3.267 2.979 0 5.78-1.161 7.886-3.267l13.61-13.609c4.347-4.348 4.347-11.423-.001-15.773zm-7.888 30.302-8.808-8.808 8.809-8.808 8.808 8.808z"/><path d="m218.955 248.733c-2.061 3.099-2.437 6.99-1.004 10.409 6.443 15.382 21.379 25.321 38.049 25.321 16.671 0 31.606-9.939 38.049-25.321 1.433-3.419 1.057-7.311-1.004-10.409-2.08-3.126-5.561-4.993-9.311-4.993h-55.469c-3.75 0-7.23 1.867-9.31 4.993zm59.088 9.555c-4.909 7.197-13.089 11.627-22.043 11.627-8.953 0-17.133-4.429-22.043-11.627z"/></g></g></svg>