<?xml version="1.0" encoding="iso-8859-1"?>
<!-- Generator: Adobe Illustrator 19.0.0, SVG Export Plug-In . SVG Version: 6.00 Build 0)  -->
<svg version="1.1" id="Capa_1" xmlns="http://www.w3.org/2000/svg" xmlns:xlink="http://www.w3.org/1999/xlink" x="0px" y="0px"
	 viewBox="0 0 511.999 511.999" style="enable-background:new 0 0 511.999 511.999;" xml:space="preserve">
<rect x="89.97" y="81.189" style="fill:#7F7FBF;" width="62.37" height="82.07"/>
<rect x="121.15" y="81.189" style="fill:#7272AF;" width="31.18" height="82.07"/>
<path style="fill:#7F7FBF;" d="M162.454,86.936h-82.6c-5.362,0-9.709-4.347-9.709-9.709v-8.241c0-5.362,4.347-9.709,9.709-9.709
	h82.6c5.362,0,9.709,4.347,9.709,9.709v8.241C172.163,82.589,167.816,86.936,162.454,86.936z"/>
<path style="fill:#7272AF;" d="M162.454,73.106h-82.6c-4.39,0-8.096-2.916-9.297-6.915c-0.266,0.885-0.413,1.823-0.413,2.795v8.241
	c0,5.362,4.347,9.709,9.709,9.709h82.6c5.362,0,9.709-4.347,9.709-9.709v-8.241c0-0.972-0.147-1.909-0.413-2.795
	C170.55,70.19,166.844,73.106,162.454,73.106z"/>
<path style="fill:#E0EEFB;" d="M407.894,473.346H104.106c-11.284,0-20.431-9.147-20.431-20.431V198.021L256,73.796l172.325,124.226
	v254.894C428.325,464.199,419.178,473.346,407.894,473.346z"/>
<path style="fill:#CADEED;" d="M375.355,159.836V423.24c0,16.626-13.603,30.229-30.229,30.229h-241.02
	c-11.284,0-20.431-9.147-20.431-20.431v19.877c0,11.284,9.147,20.431,20.431,20.431h303.788c11.284,0,20.431-9.147,20.431-20.431
	v-19.877V198.021L375.355,159.836z"/>
<path style="fill:#FF4C4C;" d="M256,38.652L17.412,210.646c-6.191,4.463-9.859,11.629-9.859,19.261l0,0
	c0,19.36,21.924,30.583,37.629,19.261L256,97.194l210.818,151.974c15.705,11.321,37.629,0.099,37.629-19.261l0,0
	c0-7.632-3.668-14.798-9.859-19.261L256,38.652z"/>
<path style="fill:#F33A3A;" d="M466.818,220.858L256,68.883L45.182,220.858c-11.245,8.107-25.677,4.652-32.967-5.07
	c-2.987,4.038-4.662,8.971-4.662,14.119l0,0c0,19.36,21.924,30.583,37.629,19.261L256,97.194l210.818,151.974
	c15.705,11.322,37.629,0.099,37.629-19.261l0,0c0-5.148-1.675-10.081-4.662-14.119C492.494,225.509,478.063,228.964,466.818,220.858
	z"/>
<path style="fill:#FF6991;" d="M304.634,222.617c-19.752,0-37.336,9.279-48.634,23.716c-11.297-14.436-28.881-23.716-48.634-23.716
	c-34.087,0-61.721,27.633-61.721,61.721C145.646,361.885,256,405.067,256,405.067s110.354-43.182,110.354-120.729
	C366.354,250.251,338.721,222.617,304.634,222.617z"/>
<path style="fill:#FF507E;" d="M304.634,222.617c-19.752,0-37.336,9.279-48.634,23.715c-0.169-0.216-0.353-0.42-0.525-0.634v159.157
	c0.333,0.135,0.525,0.211,0.525,0.211s110.354-43.182,110.354-120.729C366.354,250.251,338.721,222.617,304.634,222.617z"/>
<path d="M499.004,204.518L260.417,32.526c-2.638-1.902-6.196-1.902-8.833,0l-74.376,53.616c1.581-2.606,2.509-5.651,2.509-8.916
	v-8.24c0-9.519-7.744-17.262-17.262-17.262h-82.6c-9.519,0-17.262,7.744-17.262,17.262v8.24c0,9.519,7.744,17.262,17.262,17.262
	h2.564v59.985l-69.423,50.045C4.858,210.384,0,219.875,0,229.907c0,11.805,6.528,22.48,17.037,27.86
	c10.508,5.377,22.985,4.431,32.562-2.471L256,106.505l206.401,148.791c5.454,3.931,11.846,5.931,18.282,5.931
	c4.866-0.001,9.756-1.144,14.28-3.46c10.508-5.379,17.036-16.055,17.036-27.86C512,219.875,507.142,210.384,499.004,204.518z
	 M79.854,79.382c-1.189,0-2.157-0.968-2.157-2.157v-8.24c0-1.189,0.968-2.157,2.157-2.157h82.6c1.189,0,2.157,0.968,2.157,2.157
	v8.24c0,1.189-0.968,2.157-2.157,2.157h-10.117H89.971H79.854z M144.784,94.488v15.027l-47.26,34.069V94.488H144.784z
	 M488.08,244.32c-5.519,2.824-11.817,2.347-16.846-1.278L260.417,91.067c-1.319-0.951-2.868-1.426-4.417-1.426
	c-1.549,0-3.098,0.475-4.417,1.426L40.766,243.042c-5.029,3.626-11.327,4.105-16.846,1.278c-5.519-2.824-8.814-8.213-8.814-14.413
	c0-5.19,2.513-10.1,6.723-13.135L256,47.964l234.171,168.808c4.21,3.035,6.723,7.945,6.723,13.135
	C496.894,236.107,493.599,241.496,488.08,244.32z"/>
<path d="M428.325,248.801c-4.171,0-7.553,3.381-7.553,7.553v196.562c0,7.101-5.777,12.878-12.879,12.878H104.106
	c-7.101,0-12.879-5.777-12.879-12.878V256.353c0-4.172-3.382-7.553-7.553-7.553s-7.553,3.381-7.553,7.553v196.562
	c0,15.43,12.554,27.984,27.984,27.984h303.787c15.431,0,27.984-12.554,27.984-27.984V256.353
	C435.878,252.182,432.496,248.801,428.325,248.801z"/>
<path d="M253.248,412.101c0.885,0.346,1.818,0.519,2.752,0.519c0.934,0,1.868-0.173,2.752-0.519
	c1.165-0.456,28.852-11.403,56.928-32.255c38.093-28.289,58.227-61.316,58.227-95.508c0-38.198-31.076-69.273-69.274-69.273
	c-18.443,0-35.735,7.17-48.634,19.929c-12.899-12.759-30.19-19.929-48.634-19.929c-38.198,0-69.274,31.076-69.274,69.273
	c0,34.192,20.134,67.219,58.227,95.508C224.396,400.698,252.083,411.644,253.248,412.101z M153.198,284.338
	c0-29.868,24.3-54.168,54.168-54.168c16.775,0,32.333,7.587,42.685,20.817c1.432,1.829,3.625,2.898,5.948,2.898
	s4.516-1.069,5.948-2.898c10.353-13.23,25.911-20.817,42.685-20.817c29.868,0,54.168,24.3,54.168,54.168
	c0,29.56-17.451,57.549-51.866,83.187c-21.538,16.045-43.395,26.109-50.935,29.358c-7.544-3.251-29.399-13.315-50.935-29.358
	C170.649,341.886,153.198,313.898,153.198,284.338z"/>
<g>
</g>
<g>
</g>
<g>
</g>
<g>
</g>
<g>
</g>
<g>
</g>
<g>
</g>
<g>
</g>
<g>
</g>
<g>
</g>
<g>
</g>
<g>
</g>
<g>
</g>
<g>
</g>
<g>
</g>
</svg>
