<svg id="Capa_1" enable-background="new 0 0 512 512" height="512" viewBox="0 0 512 512" width="512" xmlns="http://www.w3.org/2000/svg"><g id="XMLID_1264_"><path id="XMLID_1204_" d="m10 166h148v336h-148z" fill="#ff9171" transform="matrix(-1 0 0 -1 168 668)"/><path id="XMLID_2500_" d="m158 10h344v492h-344z" fill="#ffcd69"/><path id="XMLID_2527_" d="m250 334h152v168h-152z" fill="#98eaf9"/><path id="XMLID_1265_" d="m326 334h76v168h-76z" fill="#98eaf9"/><g fill="#fff"><path id="XMLID_2533_" d="m210 74h48v72h-48z"/><path id="XMLID_2532_" d="m306 74h48v72h-48z"/><path id="XMLID_2531_" d="m402 74h48v72h-48z"/><path id="XMLID_2530_" d="m210 202h48v64h-48z"/><path id="XMLID_2529_" d="m306 202h48v64h-48z"/><path id="XMLID_2528_" d="m402 202h48v64h-48z"/></g><g id="XMLID_1228_"><path id="XMLID_1239_" d="m502 0h-344c-5.523 0-10 4.477-10 10v146h-138c-5.523 0-10 4.477-10 10v336c0 5.523 4.477 10 10 10h492c5.523 0 10-4.477 10-10v-492c0-5.523-4.477-10-10-10zm-482 444.8h64c5.523 0 10-4.477 10-10s-4.477-10-10-10h-64v-47.2h64c5.523 0 10-4.477 10-10s-4.477-10-10-10h-64v-47.2h64c5.523 0 10-4.477 10-10s-4.477-10-10-10h-64v-47.2h64c5.523 0 10-4.477 10-10s-4.477-10-10-10h-64v-47.2h128v316h-128zm316 47.2v-29c0-5.523-4.477-10-10-10s-10 4.477-10 10v29h-56v-148h56v29c0 5.523 4.477 10 10 10s10-4.477 10-10v-29h56v148zm156 0h-80v-158c0-5.523-4.477-10-10-10h-152c-5.523 0-10 4.477-10 10v158h-72v-472h324z"/><path id="XMLID_1298_" d="m210 156h48c5.523 0 10-4.477 10-10v-72c0-5.523-4.477-10-10-10h-48c-5.523 0-10 4.477-10 10v72c0 5.523 4.477 10 10 10zm10-72h28v52h-28z"/><path id="XMLID_1479_" d="m306 156h48c5.523 0 10-4.477 10-10v-72c0-5.523-4.477-10-10-10h-48c-5.523 0-10 4.477-10 10v72c0 5.523 4.477 10 10 10zm10-72h28v52h-28z"/><path id="XMLID_1507_" d="m402 156h48c5.523 0 10-4.477 10-10v-72c0-5.523-4.477-10-10-10h-48c-5.523 0-10 4.477-10 10v72c0 5.523 4.477 10 10 10zm10-72h28v52h-28z"/><path id="XMLID_1545_" d="m210 276h48c5.523 0 10-4.477 10-10v-64c0-5.523-4.477-10-10-10h-48c-5.523 0-10 4.477-10 10v64c0 5.523 4.477 10 10 10zm10-64h28v44h-28z"/><path id="XMLID_1576_" d="m306 276h48c5.523 0 10-4.477 10-10v-64c0-5.523-4.477-10-10-10h-48c-5.523 0-10 4.477-10 10v64c0 5.523 4.477 10 10 10zm10-64h28v44h-28z"/><path id="XMLID_1579_" d="m402 276h48c5.523 0 10-4.477 10-10v-64c0-5.523-4.477-10-10-10h-48c-5.523 0-10 4.477-10 10v64c0 5.523 4.477 10 10 10zm10-64h28v44h-28z"/><path id="XMLID_1580_" d="m326 408c-2.63 0-5.21 1.07-7.07 2.93s-2.93 4.44-2.93 7.07 1.07 5.21 2.93 7.07 4.44 2.93 7.07 2.93 5.21-1.07 7.07-2.93 2.93-4.44 2.93-7.07-1.07-5.21-2.93-7.07-4.44-2.93-7.07-2.93z"/></g></g></svg>