<svg id="Filled" height="512" viewBox="0 0 512 512" width="512" xmlns="http://www.w3.org/2000/svg"><path d="m232 40h32a32 32 0 0 1 32 32v400a0 0 0 0 1 0 0h-96a0 0 0 0 1 0 0v-400a32 32 0 0 1 32-32z" fill="#ad6643"/><g fill="#d49073"><path d="m248 136h-48v-32h48a16 16 0 0 1 16 16 16 16 0 0 1 -16 16z"/><path d="m248 216h-48v-32h48a16 16 0 0 1 16 16 16 16 0 0 1 -16 16z"/><path d="m248 296h-48v-32h48a16 16 0 0 1 16 16 16 16 0 0 1 -16 16z"/></g><path d="m40 168h160v32h-160z" fill="#8c5237"/><path d="m200 200-32 64v208h-160v-208l32-64z" fill="#ad6643"/><path d="m232 264v208h-64v-208l32-64z" fill="#8c5237"/><path d="m392 200h-16v-112h-48v112h-16a32 32 0 0 0 -32 32v224a16 16 0 0 0 16 16h112a16 16 0 0 0 16-16v-224a32 32 0 0 0 -32-32z" fill="#eb423f"/><path d="m328 88h48v48h-48z" fill="#7a4830"/><path d="m280 280h144v112h-144z" fill="#7a4830"/><ellipse cx="352" cy="336" fill="#ad6643" rx="40" ry="24"/><circle cx="256" cy="416" fill="#f7b030" r="56"/><path d="m288 328h32a0 0 0 0 1 0 0 32 32 0 0 1 -32 32h-32a0 0 0 0 1 0 0 32 32 0 0 1 32-32z" fill="#b1bd70"/><path d="m40 312h32a16 16 0 0 1 16 16v16a0 0 0 0 1 0 0h-32a16 16 0 0 1 -16-16v-16a0 0 0 0 1 0 0z" fill="#ffd33a"/><path d="m104 312h32a0 0 0 0 1 0 0v16a16 16 0 0 1 -16 16h-32a0 0 0 0 1 0 0v-16a16 16 0 0 1 16-16z" fill="#f7b030" transform="matrix(-1 0 0 -1 224 656)"/><path d="m40 344h32a16 16 0 0 1 16 16v16a0 0 0 0 1 0 0h-32a16 16 0 0 1 -16-16v-16a0 0 0 0 1 0 0z" fill="#f7b030"/><path d="m104 344h32a0 0 0 0 1 0 0v16a16 16 0 0 1 -16 16h-32a0 0 0 0 1 0 0v-16a16 16 0 0 1 16-16z" fill="#ffd33a" transform="matrix(-1 0 0 -1 224 720)"/><path d="m40 376h32a16 16 0 0 1 16 16v16a0 0 0 0 1 0 0h-32a16 16 0 0 1 -16-16v-16a0 0 0 0 1 0 0z" fill="#ffd33a"/><path d="m104 376h32a0 0 0 0 1 0 0v16a16 16 0 0 1 -16 16h-32a0 0 0 0 1 0 0v-16a16 16 0 0 1 16-16z" fill="#f7b030" transform="matrix(-1 0 0 -1 224 784)"/><path d="m376 312 40-32h48l40 32v160h-128z" fill="#499154"/><path d="m136 304v-8a8 8 0 0 0 -16 0v8h-16a23.885 23.885 0 0 0 -8 1.376v-9.376a8 8 0 0 0 -16 0v9.376a23.885 23.885 0 0 0 -8-1.376h-16v-8a8 8 0 0 0 -16 0v8a8 8 0 0 0 -8 8v16a23.844 23.844 0 0 0 2.346 10.341 7.972 7.972 0 0 0 -2.346 5.659v16a23.844 23.844 0 0 0 2.346 10.341 7.972 7.972 0 0 0 -2.346 5.659v16a24.027 24.027 0 0 0 24 24h24v24a8 8 0 0 0 16 0v-24h24a24.027 24.027 0 0 0 24-24v-16a7.972 7.972 0 0 0 -2.346-5.659 23.844 23.844 0 0 0 2.346-10.341v-16a7.972 7.972 0 0 0 -2.346-5.659 23.844 23.844 0 0 0 2.346-10.341v-16a8 8 0 0 0 -8-8zm-32 16h24v8a8.009 8.009 0 0 1 -8 8h-24v-8a8.009 8.009 0 0 1 8-8zm24 32v8a8.009 8.009 0 0 1 -8 8h-24v-8a8.009 8.009 0 0 1 8-8zm-80 8v-8h24a8.009 8.009 0 0 1 8 8v8h-24a8.009 8.009 0 0 1 -8-8zm32-32v8h-24a8.009 8.009 0 0 1 -8-8v-8h24a8.009 8.009 0 0 1 8 8zm-32 64v-8h24a8.009 8.009 0 0 1 8 8v8h-24a8.009 8.009 0 0 1 -8-8zm80 0a8.009 8.009 0 0 1 -8 8h-24v-8a8.009 8.009 0 0 1 8-8h24z"/><path d="m509 305.753-40-32a8 8 0 0 0 -5-1.753h-32v-40a40.045 40.045 0 0 0 -40-40h-8v-104a8 8 0 0 0 -8-8h-48a8 8 0 0 0 -8 8v104h-8a40.028 40.028 0 0 0 -8 .805v-120.805a40.045 40.045 0 0 0 -40-40h-32a40.045 40.045 0 0 0 -40 40v88h-152a8 8 0 0 0 -8 8v30.111l-31.155 62.311c-.024.047-.04.1-.063.145-.09.19-.174.384-.25.582-.031.081-.06.162-.089.243-.068.2-.128.4-.181.608-.021.081-.044.162-.062.243-.048.215-.084.432-.115.652-.01.074-.025.147-.034.222a8.038 8.038 0 0 0 -.051.883v208a8 8 0 0 0 8 8h496a8 8 0 0 0 8-8v-160a8 8 0 0 0 -3-6.247zm-269-33.753h8a8 8 0 0 1 0 16h-8zm48 56h22.629a24.042 24.042 0 0 1 -22.629 16h-22.629a24.042 24.042 0 0 1 22.629-16zm64-8a53.955 53.955 0 0 1 16 2.312v27.376a53.96 53.96 0 0 1 -16 2.312c-11.194 0-24.713-3.737-30.045-10.892a39.719 39.719 0 0 0 5.586-15.044c6.2-3.831 15.077-6.064 24.459-6.064zm-96 40a48 48 0 1 1 -48 48 48.053 48.053 0 0 1 48-48zm-32-7.39a64.437 64.437 0 0 0 -16 13.126v-131.847l16 32zm-16-154.5v-6.11h40a8 8 0 0 1 0 16h-35.056zm-16 265.89h-16v-198.111l16-32zm16-13.736a64.4 64.4 0 0 0 17.06 13.736h-17.06zm112-42.264a64.2 64.2 0 0 0 -.518-8h48.518v64h-81.06a64.041 64.041 0 0 0 33.06-56zm-4.687-24a64.287 64.287 0 0 0 -18.256-25.047 39.807 39.807 0 0 0 13.825-6.173c8.483 9.385 23.883 15.22 41.118 15.22a72 72 0 0 0 16-1.781v17.781zm55.024-77.649a71.129 71.129 0 0 0 -18.337-2.351c-12.058 0-23.415 2.876-32.094 8h-31.906v-24h105.194l-22.194 17.753a7.751 7.751 0 0 0 -.663.598zm-2.337-210.351v32h-32v-32zm-32 48h32v48h-32zm56 64a24.028 24.028 0 0 1 24 24v40h-128v-40a24.028 24.028 0 0 1 24-24zm-160-160h32a24.028 24.028 0 0 1 24 24v128.022a39.962 39.962 0 0 0 -16 31.978v83.35a40.131 40.131 0 0 0 -23.271 29.075 63.6 63.6 0 0 0 -8.729 1.6v-42.025h8a24 24 0 0 0 0-48h-11.056l-16-32h27.056a24 24 0 0 0 0-48h-40v-32h40a24 24 0 0 0 0-48h-40v-24a24.028 24.028 0 0 1 24-24zm-24 64h40a8 8 0 0 1 0 16h-40zm-160 64h144v16h-144zm112.845 84.422a7.994 7.994 0 0 0 -.845 3.578v200h-144v-192h120a8 8 0 0 0 0-16h-115.056l24-48h142.112zm335.155 203.578h-112v-148.155l34.807-27.845h42.386l34.807 27.845z"/><path d="m440 368a8.009 8.009 0 0 1 8 8 8 8 0 0 0 16 0 24.039 24.039 0 0 0 -16-22.624v-9.376a8 8 0 0 0 -16 0v9.376a24 24 0 0 0 8 46.624 8 8 0 1 1 -8 8 8 8 0 0 0 -16 0 24.039 24.039 0 0 0 16 22.624v9.376a8 8 0 0 0 16 0v-9.376a24 24 0 0 0 -8-46.624 8 8 0 0 1 0-16z"/><circle cx="440" cy="312" r="8"/></svg>