<svg height="512" viewBox="0 0 64 64" width="512" xmlns="http://www.w3.org/2000/svg"><g id="Layer_34" data-name="Layer 34"><g id="service"><path d="m23 28-4 4-4-4 1-1v-3.81a5.961 5.961 0 0 0 6 0v3.81z" fill="#ffdaaa"/><path d="m47 29-14 22v8a2.006 2.006 0 0 1 -2 2h-20v-13h-6v-11a8.012 8.012 0 0 1 7-8l3-1 4 4 4-4 3 1a8.012 8.012 0 0 1 7 8v3l8-11z" fill="#57a4ff"/><path d="m47 29-14 22v8a2.006 2.006 0 0 1 -2 2h-3a2.006 2.006 0 0 0 2-2v-8l14-22z" fill="#2488ff"/><path d="m58 17a2.006 2.006 0 0 1 2 2 2.015 2.015 0 0 1 -2 2h-18a2.006 2.006 0 0 1 -2-2 2.015 2.015 0 0 1 2-2z" fill="#ff7956"/><path d="m43 17h-3v-1a9.008 9.008 0 0 1 7-8.78 9.2 9.2 0 0 1 4 0 9.034 9.034 0 0 1 7 8.78v1z" fill="#e0e0e2"/><path d="m60 19a2.015 2.015 0 0 1 -2 2h-4a2.015 2.015 0 0 0 2-2 2.006 2.006 0 0 0 -2-2h4a2.006 2.006 0 0 1 2 2z" fill="#ff6243"/><path d="m58 16v1h-4v-1a9.034 9.034 0 0 0 -7-8.78 9.2 9.2 0 0 1 4 0 9.034 9.034 0 0 1 7 8.78z" fill="#d8d7da"/><path d="m45 25h10a3.995 3.995 0 0 1 -4 4h-10a3.995 3.995 0 0 1 4-4z" fill="#ffdaaa"/><path d="m51 5v2.22a9.2 9.2 0 0 0 -4 0v-2.22a2.006 2.006 0 0 1 2-2 2.015 2.015 0 0 1 2 2z" fill="#ff7956"/><path d="m28 16v1a1 1 0 0 1 -1 1h-2v-3h2a1 1 0 0 1 1 1z" fill="#ffdaaa"/><path d="m28 4v4a5.985 5.985 0 0 1 -3 5.19v-1.19l-8-2-4 2v2h-1a2.006 2.006 0 0 1 -2-2v-2a6 6 0 0 1 6-6z" fill="#ffde55"/><path d="m26 29-5 7h-4l-5-7 3-1 4 4 4-4z" fill="#00b6bd"/><path d="m25 12v6a5.985 5.985 0 0 1 -3 5.19 5.961 5.961 0 0 1 -6 0 5.985 5.985 0 0 1 -3-5.19v-6l4-2z" fill="#ffdaaa"/><path d="m28 4v4a5.985 5.985 0 0 1 -3 5.19v-1.19l-.44-.11a5.959 5.959 0 0 0 1.44-3.89v-4z" fill="#ffcd00"/><path d="m25 12v6a5.985 5.985 0 0 1 -3 5.19 5.857 5.857 0 0 1 -3 .81 6.531 6.531 0 0 1 -1-.08 5.79 5.79 0 0 0 2-.73 5.985 5.985 0 0 0 3-5.19v-6l-6.67-1.67.67-.33z" fill="#ffc477"/><path d="m23 28-4 4-1-1 3-3-1-1v-3.08a5.79 5.79 0 0 0 2-.73v3.81z" fill="#ffc477"/><path d="m21.67 40 1.33 8-4 4-4-4 1.33-8z" fill="#00b6bd"/><path d="m21 36 .67 4h-5.34l.67-4z" fill="#ffde55"/><path d="m13 15v3h-2a1 1 0 0 1 -1-1v-1a1 1 0 0 1 1-1z" fill="#ffdaaa"/><path d="m5 46h6v15h-6z" fill="#ffdaaa"/><path d="m55 24h-10a4.99 4.99 0 0 0 -4.96 4.6l-6.04 7.55v-.15a9.007 9.007 0 0 0 -7.75-8.97l-2.71-.9-.54-.54v-2.85a7.007 7.007 0 0 0 2.92-4.74h1.08a2.006 2.006 0 0 0 2-2v-1a2.006 2.006 0 0 0 -2-2h-1v-.28a6.981 6.981 0 0 0 3-5.72v-4a1 1 0 0 0 -1-1h-12a7.008 7.008 0 0 0 -7 7v2a3.021 3.021 0 0 0 1.04 2.26 1.984 1.984 0 0 0 -1.04 1.74v1a2.006 2.006 0 0 0 2 2h1.08a7.007 7.007 0 0 0 2.92 4.74v2.85l-.54.54-2.71.9a9.007 9.007 0 0 0 -7.75 8.97v25a1 1 0 0 0 1 1h26a3.009 3.009 0 0 0 3-3v-8.7l13.54-20.3h3.46a5 5 0 0 0 5-5 1 1 0 0 0 -1-1zm-28-9v1h-1v-1zm-15 1h-1v-1h1zm.55-5.89a.988.988 0 0 0 -.55.89v1a1 1 0 0 1 -1-1v-2a5 5 0 0 1 5-5h11v3a4.971 4.971 0 0 1 -1.28 3.32 1.072 1.072 0 0 0 -.48-.29l-8-2a.978.978 0 0 0 -.69.08zm1.45 6.89v-5.38l3.12-1.56 6.88 1.72v5.22a5 5 0 0 1 -10 0zm7.29 9.71.3.29-2.59 2.59-2.59-2.59.3-.29a1.033 1.033 0 0 0 .29-.71v-2.29a7.042 7.042 0 0 0 4 0v2.29a1.033 1.033 0 0 0 .29.71zm-6.56 1.43 3.56 3.57a1.008 1.008 0 0 0 1.42 0l3.56-3.57 1.13.38-3.91 5.48h-2.98l-3.91-5.48zm6.09 11.86 1.11 6.66-2.93 2.93-2.93-2.93 1.11-6.66zm-3.31-2 .34-2h2.3l.34 2zm-7.51 22h-4v-12h4zm22.17-10.55a.967.967 0 0 0 -.17.55v9a1 1 0 0 1 -1 1h-19v-13a1 1 0 0 0 -1-1h-5v-10a7.015 7.015 0 0 1 5.55-6.91l4.4 6.15-1.94 11.6a1.011 1.011 0 0 0 .28.87l4 4a1.014 1.014 0 0 0 1.42 0l4-4a1.011 1.011 0 0 0 .28-.87l-1.94-11.6 4.4-6.15a7.015 7.015 0 0 1 5.55 6.91v3a1 1 0 0 0 .67.94.988.988 0 0 0 1.11-.32l7.7-9.62h3.65zm18.83-21.45h-8.83a3.014 3.014 0 0 1 2.83-2h8.83a3.014 3.014 0 0 1 -2.83 2z"/><path d="m59 16.18v-.18a10.023 10.023 0 0 0 -7-9.54v-1.46a3 3 0 0 0 -3-3 3.009 3.009 0 0 0 -3 3v1.46a10.023 10.023 0 0 0 -7 9.54v.18a3 3 0 0 0 1 5.82h18a3 3 0 0 0 1-5.82zm-11-11.18a1 1 0 0 1 1-1 .949.949 0 0 1 .71.31.928.928 0 0 1 .29.69v1.05c-.33-.03-.66-.05-1-.05s-.67.02-1 .05zm1 3a8.011 8.011 0 0 1 8 8h-13a5 5 0 0 1 5-5v-2a7.008 7.008 0 0 0 -7 7h-1a8.011 8.011 0 0 1 8-8zm9 12h-18a1 1 0 0 1 0-2h18a1 1 0 0 1 0 2z"/><path d="m16 13h2v2h-2z"/><path d="m20 13h2v2h-2z"/></g></g></svg>