<svg id="Capa_1" enable-background="new 0 0 509.908 509.908" height="512" viewBox="0 0 509.908 509.908" width="512" xmlns="http://www.w3.org/2000/svg"><g><g><path d="m107.657 67.024-74.832 94.213c-3.349 4.216-2.758 10.326 1.336 13.823l73.496 62.778 53.072-98.337z" fill="#77d1b3"/></g><g><path d="m402.251 67.024 74.832 94.213c3.349 4.216 2.758 10.326-1.336 13.823l-73.496 62.778-53.072-98.337z" fill="#77d1b3"/></g><g><path d="m477.083 161.238-74.832-94.213-14.588 19.922 70.742 91.445c2.427 3.056 2.775 7.104 1.229 10.433l16.113-13.764c4.094-3.497 4.684-9.607 1.336-13.823z" fill="#67b59f"/></g><g><path d="m402.33 67.024-90.206-31.545h-57.13-57.13l-90.206 31.545v388.415c0 5.818 2.869 11.274 7.699 14.517 16.005 10.748 58.335 32.405 139.638 32.452 81.303-.047 123.633-21.703 139.638-32.452 4.829-3.243 7.699-8.7 7.699-14.517v-388.415z" fill="#cdf5a0"/></g><g><path d="m372.213 56.492.117 407.556s-35.544 34.731-132.336 38.097c4.846.169 9.843.26 15 .263 81.303-.047 123.633-21.703 139.638-32.452 4.829-3.243 7.699-8.7 7.699-14.517v-388.415z" fill="#b4e6a0"/></g><g><path d="m206.307 7.5h86.935l-10.084 78.457-33.383.387-34.728 1.966z" fill="#56988c"/></g><g><path d="m107.657 414.048v41.391c0 5.817 2.869 11.274 7.699 14.517 16.005 10.748 58.335 32.405 139.638 32.452 81.303-.047 123.633-21.703 139.638-32.452 4.829-3.243 7.699-8.7 7.699-14.517v-41.391s-39.19 38.297-147.336 38.36c-108.148-.063-147.338-38.36-147.338-38.36z" fill="#77d1b3"/></g><g><path d="m372.33 431.888v1.324c0 22.01-13.259 41.905-33.642 50.209-21.1 8.596-53.103 17.14-98.694 18.725 4.846.169 9.843.26 15 .263 81.303-.047 123.633-21.703 139.638-32.452 4.829-3.243 7.699-8.7 7.699-14.517v-41.391c-.001-.001-8.93 8.716-30.001 17.839z" fill="#67b59f"/></g><g><path d="m206.307 7.5 43.467 78.844-34.36 32.25c-5.964 5.597-15.742 2.825-17.879-5.07l-27.023-68.479z" fill="#77d1b3"/></g><g><path d="m293.242 7.5-43.467 78.844 34.36 32.25c5.964 5.597 15.742 2.825 17.879-5.07l29.41-71.294z" fill="#77d1b3"/></g><g><path d="m316.341 152.431h36.732v30.166h-36.732z" fill="#fff"/></g><g><path d="m482.956 156.573-22.613-28.47c-2.575-3.244-7.293-3.784-10.538-1.208-3.243 2.576-3.784 7.294-1.208 10.538l22.613 28.47c.842 1.059.694 2.577-.334 3.456l-61.046 52.144v-132.879l19.172 24.138c1.48 1.864 3.669 2.836 5.878 2.836 1.635 0 3.28-.532 4.66-1.627 3.243-2.576 3.784-7.294 1.208-10.537l-32.103-40.419c-.884-1.393-2.208-2.499-3.839-3.07l-69.463-24.291-37.054-33.702c-.038-.035-.081-.063-.12-.097-.131-.114-.266-.223-.405-.328-.073-.055-.144-.111-.219-.163-.169-.119-.344-.228-.522-.333-.048-.028-.093-.059-.142-.086-.469-.261-.969-.473-1.494-.629-.044-.013-.089-.022-.133-.034-.209-.058-.42-.109-.635-.149-.083-.016-.168-.026-.252-.038-.176-.026-.352-.049-.531-.063-.107-.008-.214-.012-.321-.016-.091-.006-.181-.016-.273-.016h-86.935c-.266 0-.528.015-.788.042-.046.005-.091.015-.137.021-.23.028-.458.065-.681.114-.077.017-.153.04-.229.059-.191.048-.38.101-.565.164-.083.028-.165.059-.248.091-.176.067-.349.139-.519.219-.081.038-.161.075-.24.116-.175.089-.344.187-.511.289-.066.04-.134.078-.199.121-.228.15-.449.309-.659.483-.004.004-.008.008-.013.011-.206.171-.4.355-.587.548-.017.017-.035.031-.052.049l-34.57 36.258c-.09.028-.18.048-.269.079l-60.859 21.283c-1.297.453-2.392 1.252-3.238 2.253-.051.056-.112.102-.16.161l-74.831 94.213c-5.89 7.415-4.863 18.041 2.337 24.191l70.867 60.532v78.513c0 4.142 3.357 7.5 7.5 7.5s7.5-3.358 7.5-7.5v-247.463l51.024-17.843 24.243 61.432c1.8 6.052 6.468 10.668 12.57 12.398 1.68.476 3.381.71 5.064.71 4.582 0 9.023-1.728 12.488-4.981l29.229-27.433 29.227 27.432c3.466 3.253 7.906 4.981 12.488 4.981 1.683 0 3.385-.233 5.064-.71 6.081-1.724 10.738-6.314 12.552-12.335l26.544-64.346 59.179 20.695v338.216c-4.016 3.13-13.472 9.661-29.545 16.145-20.539 8.286-56.348 18.169-110.287 18.201-53.908-.031-89.431-9.899-109.738-18.172-17.497-7.128-26.973-14.311-30.103-16.936v-59.991c0-4.142-3.357-7.5-7.5-7.5s-7.5 3.358-7.5 7.5v105.631c0 8.356 4.119 16.111 11.018 20.743 8.674 5.825 23.933 14.23 47.376 21.202 27.878 8.289 60.324 12.503 96.447 12.524 36.115-.021 68.561-4.235 96.439-12.524 23.443-6.971 38.702-15.377 47.376-21.202 6.898-4.633 11.017-12.387 11.017-20.743v-214.21l70.788-60.466c7.202-6.152 8.228-16.777 2.34-24.192zm-443.924 12.785c-1.028-.878-1.175-2.396-.333-3.456l61.458-77.376v133.043zm210.743-98.55-30.768-55.808h61.535zm-39.494 42.317c-1.199 1.124-2.517.969-3.194.777-.68-.193-1.883-.753-2.313-2.34-.073-.269-.16-.534-.263-.793l-25.264-64.02 25.43-26.672 35.717 64.784zm84.8-2.462c-.121.293-.223.594-.306.9-.43 1.587-1.633 2.147-2.313 2.34-.677.192-1.995.348-3.194-.778l-30.112-28.263 36.067-65.422 27.261 24.795zm95.369 353.067c-13.935 9.359-55.033 31.132-135.452 31.178-80.427-.046-121.525-21.819-135.461-31.178-2.742-1.842-4.38-4.941-4.38-8.291v-27.174c18.81 11.948 61.624 31.598 139.841 31.643 77.207-.045 120.38-19.182 139.832-31.145v26.677c0 3.349-1.638 6.448-4.38 8.29z"/><path d="m257.275 206.769v-72.023c0-4.142-3.357-7.5-7.5-7.5s-7.5 3.358-7.5 7.5v72.023c0 4.142 3.357 7.5 7.5 7.5s7.5-3.358 7.5-7.5z"/><path d="m353.074 190.097c4.143 0 7.5-3.358 7.5-7.5v-30.166c0-4.142-3.357-7.5-7.5-7.5h-36.732c-4.143 0-7.5 3.358-7.5 7.5v30.166c0 4.142 3.357 7.5 7.5 7.5zm-29.232-30.166h21.732v15.166h-21.732z"/></g></g></svg>