<svg height="496pt" viewBox="0 -16 496 496" width="496pt" xmlns="http://www.w3.org/2000/svg"><path d="m64 399.984375h136v56h-136zm0 0" fill="#ab2300"/><path d="m328 399.984375h128v56h-128zm0 0" fill="#ab2300"/><path d="m253.519531 212.464844c-4.394531-4.878906-5.605469-11.84375-3.121093-17.917969 3.34375-8.121094-.054688-17.453125-7.839844-21.519531-1.476563-.777344-2.824219-1.773438-4-2.960938-3.4375-3.382812-5.296875-8.058594-5.117188-12.878906.28125-6.972656-3.757812-13.394531-10.160156-16.160156-1.4375-.695313-2.980469-1.152344-4.5625-1.363282h-.078125c-6.175781-.902343-11.359375-5.105468-13.519531-10.957031-.164063-.25-.300782-.519531-.402344-.800781-2.652344-8.382812-11.246094-13.371094-19.839844-11.519531h-.078125c-.761719.164062-1.542969.242187-2.320312.238281-5.671875.484375-11.207031-1.921875-14.71875-6.398438l-.082031-.082031c-5.371094-6.949219-15.160157-8.652343-22.558594-3.917969-5.570313 3.519532-12.671875 3.519532-18.242188 0-2.714844-1.753906-5.886718-2.671874-9.117187-2.640624-5.261719-.039063-10.234375 2.390624-13.441407 6.558593l-.082031.082031c-3.988281 5.203126-10.644531 7.609376-17.039062 6.160157h-.078125c-8.59375-1.851563-17.1875 3.136719-19.839844 11.519531-2.011719 6.246094-7.421875 10.785156-13.921875 11.679688l-.078125.078124c-8.707031 1.144532-15.097656 8.75-14.722656 17.523438v.636719c.046875 6.355469-3.476563 12.199219-9.117188 15.121093-5.59375 2.976563-9.097656 8.785157-9.121094 15.121094-.007812 2.222656.425782 4.425782 1.28125 6.480469.851563 2.050781 1.289063 4.253906 1.277344 6.480469 0 4.226562-1.566406 8.300781-4.398437 11.4375l-10.480469 11.519531h256zm0 0" fill="#e0e0e2"/><path d="m184.863281 116.417969c8.589844-1.867188 17.1875 3.105469 19.855469 11.480469.089844.273437.273438.496093.371094.800781l58.910156-104.714844-24-16-57.542969 108.609375c.800781 0 1.605469-.054688 2.398438-.167969zm0 0" fill="#754c29"/><path d="m233.449219 157.195312c-.183594 4.824219 1.6875 9.503907 5.152343 12.871094l65.398438-98.082031-24-16-56.703125 85.019531c6.382813 2.800782 10.410156 9.222656 10.152344 16.191406zm0 0" fill="#754c29"/><path d="m8 312.824219c.023438 65.820312 53.382812 119.160156 119.199219 119.160156h17.679687c19.203125 0 38.121094-4.667969 55.121094-13.597656 39.339844-20.527344 64.003906-61.226563 64-105.601563v-48.800781h-256zm0 0" fill="#e0e0e2"/><path d="m8 223.984375h256v40h-256zm0 0" fill="#ab2300"/><path d="m296 223.984375h192v40h-192zm0 0" fill="#ab2300"/><path d="m296 340.074219c0 50.761719 41.152344 91.910156 91.910156 91.910156h8.179688c50.757812 0 91.910156-41.148437 91.910156-91.910156v-76.089844h-192zm0 0" fill="#e0e0e2"/><g fill="#ffbcab"><path d="m480 111.984375h-36.238281c-3.316407 9.320313-4.414063 19.289063-3.203125 29.105469 1.195312 8 7.808594 13.550781 12.632812 20.25 6.671875 9.269531 11.425782 30.078125.199219 38.644531l17.753906-13.535156c5.070313-4.15625 7.765625-10.546875 7.199219-17.078125-1.492188-6.589844-4.101562-12.871094-7.71875-18.578125-3.609375-8.117188 1.222656-16.269531 4.046875-24.09375zm0 0"/><path d="m352 111.984375h-36.238281c-3.316407 9.320313-4.414063 19.289063-3.203125 29.105469 1.195312 8 7.808594 13.550781 12.632812 20.25 6.671875 9.269531 11.425782 30.078125.199219 38.644531l17.753906-13.535156c5.070313-4.15625 7.765625-10.546875 7.199219-17.078125-1.492188-6.589844-4.101562-12.871094-7.71875-18.578125-3.609375-8.117188 1.222656-16.269531 4.046875-24.09375zm0 0"/><path d="m416 111.984375h-36.238281c-3.316407 9.320313-4.414063 19.289063-3.203125 29.105469 1.195312 8 7.808594 13.550781 12.632812 20.25 6.671875 9.269531 11.425782 30.078125.199219 38.644531l17.753906-13.535156c5.070313-4.15625 7.765625-10.546875 7.199219-17.078125-1.492188-6.589844-4.101562-12.871094-7.71875-18.578125-3.609375-8.117188 1.222656-16.269531 4.046875-24.09375zm0 0"/></g><path d="m488 215.984375h-192c-4.417969 0-8 3.582031-8 8v116.089844c.011719 27.753906 11.613281 54.242187 32 73.070312v42.839844c0 4.417969 3.582031 8 8 8h128c4.417969 0 8-3.582031 8-8v-42.839844c20.386719-18.828125 31.988281-45.316406 32-73.070312v-116.089844c0-4.417969-3.582031-8-8-8zm-8 16v24h-176v-24zm-32 216h-112v-22.710937c15.609375 9.609374 33.582031 14.703124 51.910156 14.710937h8.179688c18.328125-.007813 36.300781-5.101563 51.910156-14.710937zm-51.910156-24h-8.179688c-46.320312-.046875-83.863281-37.585937-83.910156-83.910156v-68.089844h176v68.089844c-.046875 46.324219-37.589844 83.863281-83.910156 83.910156zm0 0"/><path d="m271.425781 221.121094c-.242187-.539063-.546875-1.042969-.90625-1.511719-.171875-.351563-.375-.6875-.597656-1.007813l-10.402344-11.488281c-2.335937-2.589843-2.984375-6.289062-1.664062-9.519531 4.375-10.574219.976562-22.769531-8.238281-29.550781l61.078124-91.617188c2.453126-3.675781 1.460938-8.644531-2.214843-11.097656l-24-16c-3.675781-2.449219-8.644531-1.457031-11.097657 2.21875l-53.511718 80.175781h-.261719c-2.078125-.34375-3.964844-1.40625-5.335937-3l56.695312-100.800781c2.050781-3.644531.949219-8.253906-2.527344-10.574219l-24-16c-1.882812-1.2578122-4.210937-1.660156-6.40625-1.101562-2.191406.554687-4.046875 2.011718-5.105468 4.011718l-55.042969 103.886719c-1.433594-.554687-2.707031-1.464843-3.695313-2.648437l-.144531-.207032c-7.882813-10.261718-22.304687-12.785156-33.207031-5.816406-2.960938 1.855469-6.71875 1.855469-9.679688 0-10.914062-6.972656-25.351562-4.425781-33.222656 5.855469-2.109375 2.714844-5.570312 4-8.9375 3.328125h-.160156c-12.636719-2.785156-25.308594 4.550781-29.183594 16.898438-1.050781 3.265624-3.855469 5.664062-7.25 6.191406h-.183594c-12.824218 1.691406-22.226562 12.910156-21.65625 25.832031.136719 3.476563-1.726562 6.726563-4.796875 8.367187-11.484375 5.945313-16.511719 19.6875-11.578125 31.640626 1.316406 3.230468.667969 6.929687-1.671875 9.519531l-10.398437 11.496093c-.214844.300782-.40625.621094-.570313.953126-.371093.492187-.6875 1.03125-.933593 1.597656-.175782.550781-.289063 1.117187-.335938 1.691406-.125.371094-.21875.753906-.28125 1.140625v88.800781c0 42.246094 20.984375 81.734375 56 105.367188v37.832031c0 4.417969 3.582031 8 8 8h136c4.417969 0 8-3.582031 8-8v-32.949219c39.539062-22.636718 63.949219-64.691406 64-110.25v-88.800781c-.050781-.390625-.128906-.777344-.230469-1.160156-.050781-.578125-.167969-1.148438-.34375-1.703125zm-255.425781 10.863281h240v24h-240zm266.214844-164.902344 10.6875 7.121094-51.894532 77.847656c-.890624-4.929687-3.253906-9.472656-6.777343-13.03125zm-39.285156-47.535156 10.460937 6.976563-49.039063 87.199218c-2.617187-2.113281-5.636718-3.671875-8.871093-4.59375zm-213.945313 171.960937c-1.792969-4.320312.023437-9.292968 4.175781-11.441406 8.546875-4.523437 13.75-13.539062 13.390625-23.199218-.195312-4.605469 3.117188-8.613282 7.671875-9.289063h.175782c9.578124-1.328125 17.546874-8.023437 20.503906-17.222656 1.378906-4.414063 5.875-7.0625 10.402344-6.128907h.160156c9.445312 2.003907 19.207031-1.554687 25.144531-9.167968 2.851563-3.699219 8.054687-4.613282 12-2.105469 8.1875 5.160156 18.609375 5.160156 26.796875 0 3.867188-2.46875 8.96875-1.632813 11.851562 1.9375l.148438.207031c5.9375 7.625 15.71875 11.171875 25.160156 9.128906 4.5625-1.027343 9.144532 1.621094 10.53125 6.085938l.070313.226562c3.007812 9.105469 10.933593 15.710938 20.433593 17.023438h.167969c4.566407.6875 7.882813 4.710938 7.679688 9.328125-.261719 7.523437 2.863281 14.769531 8.519531 19.742187.0625.050782.085938.113282.152344.152344h.0625c1.417968 1.257813 2.980468 2.347656 4.648437 3.25 4.15625 2.144532 5.96875 7.121094 4.167969 11.4375-3.316406 8.160156-2.121094 17.460938 3.152344 24.511719h-220.304688c5.261719-7.046875 6.453125-16.332031 3.136719-24.476563zm163.015625 256.476563h-120v-20.796875c17.191406 8.394531 36.066406 12.773438 55.199219 12.796875h17.601562c16.175781-.007813 32.199219-3.117187 47.199219-9.167969zm-47.199219-24h-17.601562c-61.394531-.046875-111.152344-49.804687-111.199219-111.199219v-40.800781h240v40.800781c-.046875 61.394532-49.804688 111.152344-111.199219 111.199219zm0 0"/><path d="m60.425781 207.1875c1.90625.957031 4.117188 1.113281 6.140625.433594 2.023438-.679688 3.691406-2.140625 4.632813-4.058594.152343-.3125 1.527343-.3125 1.679687 0 1.976563 3.953125 6.78125 5.558594 10.738282 3.582031 3.953124-1.972656 5.558593-6.78125 3.582031-10.734375-2.871094-5.742187-8.738281-9.367187-15.160157-9.367187-6.417968 0-12.285156 3.625-15.160156 9.367187-.964844 1.898438-1.132812 4.101563-.46875 6.125.667969 2.023438 2.109375 3.695313 4.015625 4.652344zm0 0"/><path d="m92.425781 151.1875c3.953125 1.976562 8.761719.371094 10.734375-3.585938.152344-.3125 1.527344-.3125 1.679688 0 1.976562 3.953126 6.78125 5.558594 10.734375 3.585938 3.957031-1.976562 5.5625-6.78125 3.585937-10.738281-2.871094-5.738281-8.742187-9.367188-15.160156-9.367188s-12.289062 3.628907-15.160156 9.367188c-1.976563 3.953125-.371094 8.761719 3.585937 10.738281zm0 0"/><path d="m140.425781 191.1875c3.953125 1.976562 8.761719.371094 10.734375-3.585938.152344-.3125 1.527344-.3125 1.679688 0 1.976562 3.953126 6.78125 5.558594 10.734375 3.585938 3.957031-1.976562 5.5625-6.78125 3.585937-10.738281-2.871094-5.738281-8.742187-9.367188-15.160156-9.367188s-12.289062 3.628907-15.160156 9.367188c-1.976563 3.953125-.371094 8.761719 3.585937 10.738281zm0 0"/><path d="m442.871094 161.21875c1.296875 1.597656 2.625 3.144531 3.808594 4.800781 5.199218 7.199219 8.152343 22.804688 1.839843 27.613281-.285156.207032-.554687.4375-.800781.6875-2.902344 2.992188-3.027344 7.710938-.28125 10.847657 2.746094 3.132812 7.4375 3.636719 10.785156 1.152343l.066406-.046874 17.710938-13.488282c.183594-.136718.351562-.289062.519531-.429687 6.9375-5.808594 10.609375-14.628907 9.839844-23.640625-.734375-5.738282-2.710937-11.242188-5.792969-16.136719-.894531-1.648437-1.8125-3.3125-2.589844-5.0625-1.464843-3.304687-.046874-7.320313 2.480469-13.546875.613281-1.535156 1.230469-3.0625 1.773438-4.574219l5.3125-14.710937c.878906-2.453125.507812-5.179688-.992188-7.308594-1.503906-2.128906-3.945312-3.394531-6.550781-3.390625h-36.238281c-3.457031 0-6.523438 2.222656-7.601563 5.503906-3.75 10.503907-4.957031 21.742188-3.527344 32.800781 1.542969 7.15625 5.09375 13.722657 10.238282 18.929688zm6.898437-41.234375h18.832031l-1.433593 4c-.488281 1.328125-1.023438 2.664063-1.601563 4-4.441406 7.960937-5.261718 17.441406-2.261718 26.050781.953124 2.144532 2.0625 4.191406 3.199218 6.214844 1.933594 2.953125 3.257813 6.261719 3.886719 9.734375.324219 3.078125-.636719 6.148437-2.65625 8.488281-.929687-7.804687-3.691406-15.28125-8.0625-21.816406-1.40625-1.957031-2.953125-3.832031-4.496094-5.671875-3.144531-3.054687-5.453125-6.867187-6.703125-11.070313-.890625-6.664062-.449218-13.4375 1.296875-19.929687zm0 0"/><path d="m308.160156 109.488281c-3.75 10.503907-4.957031 21.742188-3.527344 32.800781 1.539063 7.164063 5.089844 13.738282 10.238282 18.953126 1.296875 1.601562 2.625 3.144531 3.808594 4.800781 5.199218 7.199219 8.152343 22.808593 1.839843 27.613281-.285156.207031-.554687.4375-.800781.691406-2.902344 2.988282-3.027344 7.707032-.28125 10.84375 2.746094 3.136719 7.4375 3.636719 10.785156 1.15625l.066406-.050781 17.710938-13.511719c.183594-.136718.351562-.289062.519531-.429687 6.9375-5.808594 10.609375-14.628907 9.839844-23.640625-.734375-5.738282-2.710937-11.242188-5.792969-16.136719-.894531-1.648437-1.8125-3.3125-2.589844-5.0625-1.464843-3.304687-.046874-7.320313 2.480469-13.546875.613281-1.535156 1.230469-3.0625 1.773438-4.574219l5.3125-14.710937c.878906-2.453125.507812-5.179688-.992188-7.308594-1.503906-2.128906-3.945312-3.394531-6.550781-3.390625h-36.238281c-3.457031 0-6.523438 2.222656-7.601563 5.503906zm13.609375 10.496094h18.832031l-1.433593 4c-.488281 1.328125-1.023438 2.664063-1.601563 4-4.441406 7.960937-5.261718 17.441406-2.261718 26.050781.953124 2.144532 2.0625 4.191406 3.199218 6.214844 1.933594 2.953125 3.257813 6.261719 3.886719 9.734375.324219 3.078125-.636719 6.148437-2.65625 8.488281-.929687-7.804687-3.691406-15.28125-8.0625-21.816406-1.40625-1.957031-2.953125-3.832031-4.496094-5.671875-3.144531-3.054687-5.453125-6.867187-6.703125-11.070313-.890625-6.664062-.449218-13.4375 1.296875-19.929687zm0 0"/><path d="m378.871094 161.21875c1.296875 1.597656 2.625 3.144531 3.808594 4.800781 5.199218 7.199219 8.152343 22.804688 1.839843 27.613281-.285156.207032-.554687.4375-.800781.6875-2.902344 2.992188-3.027344 7.710938-.28125 10.847657 2.746094 3.132812 7.4375 3.636719 10.785156 1.152343l.066406-.046874 17.710938-13.488282c.183594-.136718.351562-.289062.519531-.429687 6.9375-5.808594 10.609375-14.628907 9.839844-23.640625-.734375-5.738282-2.710937-11.242188-5.792969-16.136719-.894531-1.648437-1.8125-3.3125-2.589844-5.0625-1.464843-3.304687-.046874-7.320313 2.480469-13.546875.613281-1.535156 1.230469-3.0625 1.773438-4.574219l5.3125-14.710937c.878906-2.453125.507812-5.179688-.992188-7.308594-1.503906-2.128906-3.945312-3.394531-6.550781-3.390625h-36.238281c-3.457031 0-6.523438 2.222656-7.601563 5.503906-3.75 10.503907-4.957031 21.742188-3.527344 32.800781 1.542969 7.15625 5.09375 13.722657 10.238282 18.929688zm6.898437-41.234375h18.832031l-1.433593 4c-.488281 1.328125-1.023438 2.664063-1.601563 4-4.441406 7.960937-5.261718 17.441406-2.261718 26.050781.953124 2.144532 2.0625 4.191406 3.199218 6.214844 1.933594 2.953125 3.257813 6.261719 3.886719 9.734375.324219 3.078125-.636719 6.148437-2.65625 8.488281-.929687-7.804687-3.691406-15.28125-8.0625-21.816406-1.40625-1.957031-2.953125-3.832031-4.496094-5.671875-3.144531-3.054687-5.453125-6.867187-6.703125-11.070313-.890625-6.664062-.449218-13.4375 1.296875-19.929687zm0 0"/></svg>