<svg id="Capa_1" enable-background="new 0 0 512 512" height="512" viewBox="0 0 512 512" width="512" xmlns="http://www.w3.org/2000/svg"><g><path d="m307.468 69.208c-.962-24.261-20.455-44.132-44.684-45.549-15.104-.887-28.802 5.319-38.1 15.579-5.124 5.665-13.86 5.665-18.996 0-9.287-10.26-22.996-16.466-38.089-15.579-24.24 1.416-43.722 21.288-44.695 45.549-1.081 27.104 20.661 49.506 47.538 49.506 8.736 0 16.931-2.379 23.98-6.509 2.011-1.178 4.552.216 4.552 2.551v42.64h32.434v-42.64c0-2.335 2.53-3.73 4.552-2.551 7.038 4.13 15.233 6.509 23.98 6.509 26.878 0 48.609-22.401 47.528-49.506zm-137.024 18.153c-8.963 0-16.217-7.255-16.217-16.217 0-8.952 7.254-16.217 16.217-16.217 8.952 0 16.217 7.265 16.217 16.217 0 8.962-7.266 16.217-16.217 16.217zm89.497 0c-8.952 0-16.217-7.255-16.217-16.217 0-8.952 7.265-16.217 16.217-16.217s16.217 7.265 16.217 16.217c0 8.962-7.265 16.217-16.217 16.217z" fill="#ffe07d"/><path d="m504.5 379.99v24.62h-497v-96.849c0-9.02 7.311-16.331 16.331-16.331h23.918l6.291-27.25c14.42-62.5 70.08-106.78 134.22-106.78h72.46c28.31 0 54.15 16.09 66.63 41.49l41.89 85.2h39.36c52.97 0 95.9 42.94 95.9 95.9z" fill="#e490b7"/><g fill="#df75a5"><path d="m300.867 198.89 41.89 85.2h26.483l-41.89-85.2c-12.48-25.4-38.32-41.49-66.63-41.49h-26.483c28.31 0 54.15 16.09 66.63 41.49z"/><path d="m408.6 284.09h-26.483c52.97 0 95.9 42.94 95.9 95.9v24.62h26.483v-24.62c0-52.96-42.93-95.9-95.9-95.9z"/></g><path d="m30.521 355.669h-23.021v-47.908c0-9.02 7.311-16.331 16.331-16.331h23.918v47.011c0 9.515-7.714 17.228-17.228 17.228z" fill="#ffe07d"/><path d="m504.5 404.61v25.29c0 10.38-8.41 18.79-18.79 18.79h-456.33c-12.08 0-21.88-9.8-21.88-21.88v-22.2z" fill="#9ec8fc"/><path d="m478.017 404.61v25.29c0 10.38-8.41 18.79-18.79 18.79h26.483c10.38 0 18.79-8.41 18.79-18.79v-25.29z" fill="#80b6fc"/><ellipse cx="392.41" cy="430.044" fill="#bc95e2" rx="58.38" ry="58.38" transform="matrix(.921 -.39 .39 .921 -136.743 187.31)"/><path d="m437.673 393.223c1.112 4.494 1.713 9.187 1.713 14.019 0 32.191-26.189 58.38-58.38 58.38-18.241 0-34.549-8.414-45.263-21.559 6.296 25.441 29.309 44.361 56.667 44.361 32.191 0 58.38-26.189 58.38-58.38.001-13.95-4.923-26.768-13.117-36.821z" fill="#ac80dd"/><path d="m392.411 406.873c12.797 0 23.171 10.374 23.171 23.171s-10.374 23.171-23.171 23.171-23.171-10.374-23.171-23.171 10.374-23.171 23.171-23.171z" fill="#ddebfd"/><ellipse cx="126.728" cy="430.044" fill="#bc95e2" rx="58.38" ry="58.38" transform="matrix(.707 -.707 .707 .707 -266.969 215.567)"/><path d="m171.991 393.223c1.112 4.494 1.713 9.187 1.713 14.019 0 32.191-26.189 58.38-58.38 58.38-18.241 0-34.549-8.414-45.263-21.559 6.296 25.441 29.309 44.361 56.667 44.361 32.191 0 58.38-26.189 58.38-58.38 0-13.95-4.924-26.768-13.117-36.821z" fill="#ac80dd"/><path d="m126.728 406.873c12.797 0 23.171 10.374 23.171 23.171s-10.374 23.171-23.171 23.171-23.171-10.374-23.171-23.171 10.374-23.171 23.171-23.171z" fill="#ddebfd"/><path d="m432.869 277.188h22.643l15 64.01h-71.726l8.196-42.627c2.386-12.412 13.247-21.383 25.887-21.383z" fill="#e490b7"/><path d="m489.791 298.745v20.897c0 11.905-9.651 21.557-21.557 21.557h-14.432v-64.01h14.432c11.906-.001 21.557 9.65 21.557 21.556z" fill="#ddebfd"/><path d="m121.547 211.29c18.888-15.024 42.58-23.298 66.714-23.298h72.463c16.769 0 31.783 9.348 39.18 24.397l29.844 60.708c2.493 5.07-1.198 10.997-6.848 10.997h-235.227c-3.498 0-6.087-3.254-5.3-6.663l1.471-6.374c5.426-23.518 18.817-44.743 37.703-59.767z" fill="#9ec8fc"/><g><path d="m170.443 47.426c-13.077 0-23.717 10.64-23.717 23.717s10.64 23.717 23.717 23.717c13.078 0 23.718-10.64 23.718-23.717s-10.64-23.717-23.718-23.717zm0 32.435c-4.807 0-8.717-3.911-8.717-8.717s3.91-8.717 8.717-8.717 8.718 3.911 8.718 8.717-3.911 8.717-8.718 8.717z"/><path d="m259.94 94.861c13.078 0 23.718-10.64 23.718-23.717s-10.64-23.717-23.718-23.717c-13.077 0-23.717 10.64-23.717 23.717s10.64 23.717 23.717 23.717zm0-32.435c4.807 0 8.718 3.911 8.718 8.717s-3.911 8.717-8.718 8.717-8.717-3.911-8.717-8.717 3.911-8.717 8.717-8.717z"/><path d="m496.637 325.761c.425-1.974.654-4.02.654-6.119v-20.897c0-16.022-13.035-29.057-29.057-29.057h-36.365c-7.258 0-14.177 2.633-19.779 7.057-7.795-.081-27.306-.127-38.177-.147l-17.213-34.998c-1.828-3.717-6.324-5.248-10.041-3.42s-5.248 6.323-3.42 10.04l19.271 39.18c1.26 2.561 3.864 4.186 6.719 4.19 9.445.015 22.324.046 31.937.086-.662 1.762-1.186 3.592-1.549 5.479l-3.253 16.92c-.782 4.068 1.882 7.999 5.949 8.781.479.092.954.136 1.424.136 3.524 0 6.667-2.496 7.357-6.085l3.253-16.92c.719-3.739 2.519-7.078 4.99-9.679.503-.374.955-.809 1.351-1.296 3.122-2.7 7.054-4.324 11.182-4.324h14.434v56.51c0 4.142 3.357 7.5 7.5 7.5h14.432c7.593 0 14.513-2.931 19.695-7.718 5.951 12.066 9.071 25.355 9.071 39.01v17.12h-47.569c-11.408-19.675-32.687-32.946-57.021-32.946-24.333 0-45.612 13.271-57.02 32.946h-151.643c-11.408-19.675-32.687-32.946-57.021-32.946-24.333 0-45.612 13.271-57.02 32.946h-54.708v-33.941h15.521c13.636 0 24.729-11.092 24.729-24.727v-46.158l6.099-26.418c6.595-28.582 22.869-54.381 45.827-72.645 22.956-18.264 51.753-28.322 81.085-28.322h72.46c25.644 0 48.595 14.292 59.899 37.3l6.681 13.586c1.828 3.717 6.322 5.252 10.04 3.421 3.717-1.828 5.249-6.323 3.421-10.04l-6.68-13.584c-13.845-28.178-41.955-45.683-73.361-45.683h-21.811v-27.87c6.641 2.751 13.792 4.185 21.031 4.185 15.105 0 29.202-6.014 39.695-16.933 10.486-10.913 15.929-25.251 15.326-40.37-1.107-27.942-23.835-51.108-51.738-52.739-16.738-.979-32.821 5.589-44.102 18.036-1.037 1.147-2.434 1.779-3.93 1.78-1.5 0-2.902-.634-3.942-1.782-11.265-12.445-27.344-19.017-44.087-18.034-27.898 1.63-50.631 24.794-51.752 52.737-.603 15.118 4.84 29.453 15.327 40.367 10.495 10.922 24.597 16.938 39.705 16.938 7.233 0 14.385-1.434 21.032-4.188v27.874h-3.216c-32.71 0-64.823 11.217-90.424 31.583-25.602 20.367-43.75 49.137-51.104 81.01l-4.949 21.437h-17.952c-13.14 0-23.83 10.691-23.83 23.831v119.049c0 16.2 13.18 29.38 29.38 29.38h36.892c10.139 23.354 33.417 39.734 60.456 39.734 27.04 0 50.318-16.38 60.457-39.734h29.115c4.143 0 7.5-3.358 7.5-7.5s-3.357-7.5-7.5-7.5h-24.654c1.683-9.832 1.143-19.615-1.539-29.08h138.925c-2.677 9.445-3.226 19.228-1.539 29.08h-76.193c-4.143 0-7.5 3.358-7.5 7.5s3.357 7.5 7.5 7.5h80.654c10.139 23.354 33.417 39.734 60.456 39.734 27.04 0 50.318-16.38 60.457-39.734h32.843c14.496 0 26.29-11.793 26.29-26.29v-49.91c0-19.28-5.304-37.952-15.363-54.229zm-28.403 7.937h-6.932v-49.01h6.932c7.751 0 14.057 6.306 14.057 14.057v20.897c0 7.75-6.306 14.056-14.057 14.056zm-267.017-228.022c-3.269-1.873-7.325-1.851-10.584.059-6.12 3.585-13.102 5.48-20.189 5.48-10.988 0-21.248-4.379-28.89-12.332-7.632-7.942-11.593-18.375-11.154-29.374.815-20.326 17.349-37.177 37.641-38.362 12.206-.718 23.891 4.067 32.093 13.129 3.866 4.267 9.359 6.712 15.063 6.712 5.703-.003 11.191-2.452 15.046-6.713 8.209-9.059 19.893-13.847 32.104-13.128 20.293 1.187 36.821 18.036 37.627 38.36.439 11.004-3.522 21.439-11.154 29.381-13.356 13.899-33.715 15.853-49.082 6.837-3.264-1.902-7.318-1.92-10.582-.045-3.235 1.859-5.246 5.337-5.246 9.077v35.143h-17.434v-35.143c0-3.742-2.016-7.222-5.259-9.081zm-177.387 193.254h16.419v39.511c0 5.363-4.364 9.727-9.729 9.727h-15.52v-40.408c0-4.868 3.961-8.83 8.83-8.83zm5.55 142.26c-7.929 0-14.38-6.451-14.38-14.38v-14.7h48.349c-2.677 9.445-3.226 19.228-1.539 29.08zm97.348 39.734c-28.056 0-50.88-22.825-50.88-50.88s22.824-50.88 50.88-50.88 50.881 22.825 50.881 50.88-22.826 50.88-50.881 50.88zm265.682 0c-28.056 0-50.88-22.825-50.88-50.88s22.824-50.88 50.88-50.88 50.881 22.825 50.881 50.88-22.825 50.88-50.881 50.88zm104.59-51.024c0 6.226-5.064 11.29-11.29 11.29h-28.381c1.683-9.832 1.143-19.615-1.539-29.08h41.21z"/><path d="m392.411 399.373c-16.912 0-30.672 13.759-30.672 30.671s13.76 30.671 30.672 30.671 30.671-13.759 30.671-30.671-13.759-30.671-30.671-30.671zm0 46.342c-8.642 0-15.672-7.03-15.672-15.671s7.03-15.671 15.672-15.671c8.641 0 15.671 7.03 15.671 15.671s-7.03 15.671-15.671 15.671z"/><path d="m126.728 399.373c-16.912 0-30.671 13.759-30.671 30.671s13.759 30.671 30.671 30.671 30.672-13.759 30.672-30.671-13.76-30.671-30.672-30.671zm0 46.342c-8.641 0-15.671-7.03-15.671-15.671s7.03-15.671 15.671-15.671c8.642 0 15.672 7.03 15.672 15.671s-7.031 15.671-15.672 15.671z"/><path d="m306.635 209.079c-8.668-17.634-26.26-28.588-45.91-28.588h-72.463c-25.822 0-51.173 8.853-71.383 24.929-20.209 16.076-34.536 38.786-40.343 63.948l-1.473 6.376c-.891 3.864.014 7.861 2.483 10.964s6.16 4.884 10.126 4.884h235.228c5.261 0 10.063-2.666 12.844-7.132s3.056-9.951.734-14.673zm-215.484 63.663c5.048-21.871 17.5-41.61 35.065-55.583 17.566-13.973 39.601-21.668 62.045-21.668h10.541v81.101h-108.539zm231.749 3.85h-109.097v-81.101h46.922c13.889 0 26.322 7.742 32.449 20.205l29.866 60.762c-.002.037-.049.112-.14.134z"/></g></g></svg>