<svg id="Layer_1" enable-background="new 0 0 512 512" height="512" viewBox="0 0 512 512" width="512" xmlns="http://www.w3.org/2000/svg"><g id="XMLID_1699_"><path id="XMLID_2848_" d="m422 502h-332c-22.091 0-40-17.909-40-40v-412c0-22.091 17.909-40 40-40h332c22.091 0 40 17.909 40 40v412c0 22.091-17.909 40-40 40z" fill="#f9f9f9"/><path id="XMLID_1600_" d="m90 502h332c22.091 0 40-17.909 40-40v-206h-412v206c0 22.091 17.909 40 40 40z" fill="#e1e3e9"/><path id="XMLID_2845_" d="m422 10h-332c-22.091 0-40 17.909-40 40v14h412v-14c0-22.091-17.909-40-40-40z" fill="#e1e3e9"/><path id="XMLID_2755_" d="m206 108.063h207.086v48h-207.086z" fill="#f6838d"/><g id="XMLID_238_"><path id="XMLID_670_" d="m422 0h-332c-27.57 0-50 22.43-50 50v412c0 27.57 22.43 50 50 50h332c27.57 0 50-22.43 50-50v-412c0-27.57-22.43-50-50-50zm-332 20h332c16.542 0 30 13.458 30 30v4h-151c-5.523 0-10 4.478-10 10s4.477 10 10 10h151v172h-392v-172h151c5.523 0 10-4.478 10-10s-4.477-10-10-10h-151v-4c0-16.542 13.458-30 30-30zm332 472h-332c-16.542 0-30-13.458-30-30v-196h392v196c0 16.542-13.458 30-30 30z"/><path id="XMLID_681_" d="m121.169 128.01c7.261 0 13.168 4.947 13.168 11.027 0 5.522 4.477 10 10 10s10-4.478 10-10c0-13.849-9.752-25.606-23.168-29.583v-1.39c0-5.522-4.477-10-10-10s-10 4.478-10 10v1.39c-13.417 3.977-23.169 15.734-23.169 29.583 0 17.108 14.879 31.026 33.169 31.026 7.261 0 13.168 4.946 13.168 11.026s-5.907 11.027-13.168 11.027-13.169-4.946-13.169-11.026c0-5.522-4.477-10-10-10s-10 4.478-10 10c0 13.849 9.752 25.606 23.169 29.583v1.39c0 5.522 4.477 10 10 10s10-4.478 10-10v-1.39c13.417-3.978 23.168-15.734 23.168-29.583 0-17.108-14.879-31.026-33.168-31.026-7.261 0-13.169-4.946-13.169-11.026s5.908-11.028 13.169-11.028z"/><path id="XMLID_684_" d="m196 108.063v48c0 5.522 4.477 10 10 10h207.086c5.523 0 10-4.478 10-10v-48c0-5.522-4.477-10-10-10h-207.086c-5.523 0-10 4.478-10 10zm20 10h187.086v28h-187.086z"/><path id="XMLID_685_" d="m413.086 194.063h-207.086c-5.523 0-10 4.478-10 10s4.477 10 10 10h207.086c5.523 0 10-4.478 10-10s-4.477-10-10-10z"/><path id="XMLID_686_" d="m307.667 393.208h-60.333c-5.523 0-10 4.478-10 10s4.477 10 10 10h60.333c5.523 0 10-4.478 10-10s-4.478-10-10-10z"/><path id="XMLID_687_" d="m307.667 345.208h-60.333c-5.523 0-10 4.478-10 10s4.477 10 10 10h60.333c5.523 0 10-4.478 10-10s-4.478-10-10-10z"/><path id="XMLID_688_" d="m307.667 441.208h-60.333c-5.523 0-10 4.478-10 10s4.477 10 10 10h60.333c5.523 0 10-4.478 10-10s-4.478-10-10-10z"/><path id="XMLID_689_" d="m307.667 297.208h-60.333c-5.523 0-10 4.478-10 10s4.477 10 10 10h60.333c5.523 0 10-4.478 10-10s-4.478-10-10-10z"/><path id="XMLID_690_" d="m416.709 393.208h-61.043c-5.523 0-10 4.478-10 10s4.477 10 10 10h61.043c5.523 0 10-4.478 10-10s-4.477-10-10-10z"/><path id="XMLID_692_" d="m416.709 345.208h-61.043c-5.523 0-10 4.478-10 10s4.477 10 10 10h61.043c5.523 0 10-4.478 10-10s-4.477-10-10-10z"/><path id="XMLID_693_" d="m416.709 441.208h-61.043c-5.523 0-10 4.478-10 10s4.477 10 10 10h61.043c5.523 0 10-4.478 10-10s-4.477-10-10-10z"/><path id="XMLID_694_" d="m416.709 297.208h-61.043c-5.523 0-10 4.478-10 10s4.477 10 10 10h61.043c5.523 0 10-4.478 10-10s-4.477-10-10-10z"/><path id="XMLID_695_" d="m199.333 393.208h-101.333c-5.523 0-10 4.478-10 10s4.477 10 10 10h101.333c5.523 0 10-4.478 10-10s-4.477-10-10-10z"/><path id="XMLID_696_" d="m199.333 345.208h-101.333c-5.523 0-10 4.478-10 10s4.477 10 10 10h101.333c5.523 0 10-4.478 10-10s-4.477-10-10-10z"/><path id="XMLID_697_" d="m199.333 441.208h-101.333c-5.523 0-10 4.478-10 10s4.477 10 10 10h101.333c5.523 0 10-4.478 10-10s-4.477-10-10-10z"/><path id="XMLID_699_" d="m199.333 297.208h-101.333c-5.523 0-10 4.478-10 10s4.477 10 10 10h101.333c5.523 0 10-4.478 10-10s-4.477-10-10-10z"/><path id="XMLID_700_" d="m256 74c2.63 0 5.21-1.07 7.07-2.931 1.86-1.859 2.93-4.439 2.93-7.069s-1.07-5.21-2.93-7.07-4.44-2.93-7.07-2.93-5.21 1.069-7.07 2.93c-1.86 1.86-2.93 4.44-2.93 7.07s1.07 5.21 2.93 7.069c1.86 1.861 4.44 2.931 7.07 2.931z"/></g></g></svg>