<svg id="house_x5F_cleaner" enable-background="new 0 0 300 300" height="512" viewBox="0 0 300 300" width="512" xmlns="http://www.w3.org/2000/svg"><path d="m54 269.334c-2.209 0-4-1.789-4-4v-68c0-2.211 1.791-4 4-4s4 1.789 4 4v68c0 2.211-1.791 4-4 4z" fill="#4c241d"/><circle cx="154" cy="125.334" fill="#e5efef" r="92"/><path d="m214 265.334c-2.209 0-4-1.789-4-4v-12c0-2.211 1.791-4 4-4s4 1.789 4 4v12c0 2.211-1.791 4-4 4z" fill="#4c241d"/><path d="m218.284 126.021c7.811-7.811 7.811-20.474 0-28.285-5.196-5.196-12.521-6.855-19.155-5.138l-105.129-7.264c-11.046 0-20 8.954-20 20 0 7.964 4.689 14.782 11.426 18-6.737 3.218-11.426 10.036-11.426 18 0 9.689 6.892 17.763 16.04 19.601-.003.136-.04.263-.04.399 0 11.046 8.954 20 20 20s20-8.954 20-20c0-2.849-.615-5.547-1.688-8h30.026c-4.087 7.576-3.021 17.198 3.378 23.598 7.81 7.811 20.474 7.811 28.284 0 5.631-5.631 7.137-13.769 4.649-20.807 7.039 2.489 15.176.983 20.807-4.648 6.851-6.851 7.686-17.433 2.518-25.202.098-.095.214-.158.31-.254z" fill="#f53e28"/><path d="m175.857 186.775c-6.146.004-12.291-2.336-16.971-7.016-6-6-8.254-14.461-6.334-22.426h-18.891c.225 1.316.338 2.652.338 4 0 13.234-10.766 24-24 24-12.328 0-22.516-9.344-23.852-21.32-9.52-3.3-16.147-12.378-16.147-22.679 0-7.055 3.027-13.527 8.182-18-5.154-4.473-8.182-10.945-8.182-18 0-13.234 10.766-24 24-24l104.783 7.23c8.143-1.879 16.449.461 22.33 6.344 8.717 8.715 9.312 22.527 1.787 31.945 4.4 9.062 2.668 20.164-4.617 27.449-4.998 4.996-11.705 7.453-18.543 6.941.439 6.801-2.008 13.613-6.912 18.516-4.678 4.68-10.826 7.016-16.971 7.016zm-47.545-37.441h30.025c1.408 0 2.713.742 3.436 1.949.721 1.211.754 2.711.084 3.949-3.391 6.289-2.312 13.871 2.686 18.871 6.238 6.234 16.391 6.234 22.629 0 4.371-4.371 5.791-10.75 3.705-16.648-.514-1.453-.146-3.07.943-4.16 1.092-1.09 2.707-1.465 4.164-.941 5.898 2.09 12.27.668 16.643-3.707 5.367-5.367 6.215-13.844 2.016-20.156-1.064-1.598-.842-3.727.529-5.07.094-.094.273-.246.424-.367 6.098-6.25 6.051-16.297-.139-22.488-4.01-4.012-9.74-5.543-15.324-4.094-.42.109-.855.141-1.279.121l-105.129-7.267c-8.547.008-15.725 7.184-15.725 16.008 0 6.18 3.506 11.695 9.15 14.391 1.391.664 2.275 2.07 2.275 3.609s-.885 2.945-2.275 3.609c-5.645 2.695-9.15 8.211-9.15 14.391 0 7.59 5.396 14.184 12.83 15.68 1.91.383 3.266 2.09 3.209 4.035-.002.109-.02.309-.037.473.1 8.734 7.238 15.812 15.998 15.812 8.822 0 16-7.176 16-16 0-2.191-.455-4.344-1.354-6.398-.539-1.234-.42-2.66.318-3.793.741-1.129 1.999-1.809 3.348-1.809zm89.973-23.313h.039z" fill="#4c241d"/><path d="m172 211.334h-12c-2.209 0-4-1.789-4-4s1.791-4 4-4h12c2.209 0 4 1.789 4 4s-1.791 4-4 4z" fill="#4c241d"/><path d="m175.895 249.596c-1.021 0-2.041-.387-2.822-1.164-1.566-1.559-1.57-4.094-.012-5.66l8.469-8.504c1.559-1.559 4.09-1.57 5.656-.012s1.57 4.094.012 5.66l-8.469 8.504c-.782.781-1.807 1.176-2.834 1.176z" fill="#4c241d"/><circle cx="60" cy="51.334" fill="#9dc1e4" r="20.666"/><path d="m60 76.002c-13.602 0-24.666-11.066-24.666-24.668s11.064-24.668 24.666-24.668 24.666 11.066 24.666 24.668-11.064 24.668-24.666 24.668zm0-41.336c-9.189 0-16.666 7.477-16.666 16.668s7.477 16.668 16.666 16.668 16.666-7.477 16.666-16.668-7.477-16.668-16.666-16.668z" fill="#4c241d"/><circle cx="256" cy="107.334" fill="#fff" r="10"/><path d="m256 121.334c-7.719 0-14-6.281-14-14s6.281-14 14-14 14 6.281 14 14-6.281 14-14 14zm0-20c-3.309 0-6 2.691-6 6s2.691 6 6 6 6-2.691 6-6-2.691-6-6-6z" fill="#4c241d"/><circle cx="44" cy="91.334" fill="#9dc1e4" r="10"/><path d="m44 105.334c-7.719 0-14-6.281-14-14s6.281-14 14-14 14 6.281 14 14-6.281 14-14 14zm0-20c-3.309 0-6 2.691-6 6s2.691 6 6 6 6-2.691 6-6-2.691-6-6-6z" fill="#4c241d"/><path d="m218.652 54.682c-1.023 0-2.047-.391-2.828-1.172-1.562-1.562-1.562-4.094 0-5.656l14.695-14.695c1.562-1.562 4.094-1.562 5.656 0s1.562 4.094 0 5.656l-14.695 14.695c-.781.781-1.804 1.172-2.828 1.172z" fill="#4c241d"/><path d="m233.348 54.682c-1.023 0-2.047-.391-2.828-1.172l-14.695-14.695c-1.562-1.562-1.562-4.094 0-5.656s4.094-1.562 5.656 0l14.695 14.695c1.562 1.562 1.562 4.094 0 5.656-.781.781-1.805 1.172-2.828 1.172z" fill="#4c241d"/><path d="m218 269.334h-144v-32.902c0-14.82 8.534-28.25 21.776-34.269l50.224-22.829 50.224 22.829c13.242 6.019 21.776 19.449 21.776 34.269z" fill="#fff"/><path d="m218 273.334h-144c-2.209 0-4-1.789-4-4v-32.902c0-16.371 9.467-31.25 24.119-37.91l50.227-22.828c1.051-.477 2.258-.477 3.309 0l50.225 22.828c14.654 6.66 24.121 21.539 24.121 37.91v32.902c-.001 2.211-1.792 4-4.001 4zm-140-8h136v-28.902c0-13.238-7.627-25.262-19.432-30.629l-48.568-22.074-48.57 22.074c-11.803 5.367-19.43 17.39-19.43 30.629z" fill="#4c241d"/><path d="m146 201.334c-8.837 0-16-7.163-16-16v-8h32v8c0 8.837-7.163 16-16 16z" fill="#e7d1c4"/><path d="m146 205.334c-11.027 0-20-8.973-20-20v-8c0-2.211 1.791-4 4-4h32c2.209 0 4 1.789 4 4v8c0 11.027-8.973 20-20 20zm-12-24v4c0 6.617 5.383 12 12 12s12-5.383 12-12v-4z" fill="#4c241d"/><path d="m198 119.334c-.294 0-.336-2.941-.288-6.301.083-5.821-3.813-10.999-9.466-12.394-27.643-6.821-57.325-5.547-84.267 2.727-3.531 1.084-5.848 4.473-5.744 8.166.105 3.746.133 7.801-.236 7.801-5.644 0-10.196 4.676-9.993 10.365.114 3.199 2.081 6.09 4.734 7.88 3.217 2.171 5.98 2.017 8.431 1.192 3.968 19.359 18.022 35.548 37.427 41.794 5.563 1.791 11.581 1.62 17.141-.182l1.775-.575c19.093-6.188 33.023-22.039 37.173-41.079 2.441.861 5.222 1.012 8.371-.95 2.549-1.588 4.495-4.194 4.862-7.174.752-6.09-3.979-11.27-9.92-11.27z" fill="#e7d1c4"/><path d="m146.754 185.834c-3.197 0-6.354-.484-9.381-1.461-19.199-6.18-33.932-21.711-39.221-41.035-2.572-.02-5.176-.773-7.65-2.441-3.91-2.641-6.34-6.77-6.494-11.051-.135-3.844 1.256-7.477 3.92-10.234 1.781-1.848 3.973-3.137 6.377-3.789.002-.977-.016-2.324-.066-4.18-.156-5.523 3.367-10.5 8.566-12.102 28.068-8.621 58.744-9.613 86.4-2.785 7.473 1.844 12.617 8.559 12.508 16.332-.018 1.141-.02 2.039-.016 2.742 2.602.715 4.971 2.172 6.793 4.23 2.656 3.004 3.895 7.023 3.402 11.031-.492 3.996-3.004 7.766-6.715 10.082-2.422 1.508-4.982 2.258-7.525 2.152-5.443 18.934-20.055 34.176-38.904 40.285l-1.77.578c-3.39 1.099-6.832 1.646-10.224 1.646zm-45.582-51.063c.693 0 1.381.18 1.994.531.994.574 1.693 1.543 1.924 2.664 3.738 18.234 17.047 33.098 34.736 38.789 4.568 1.473 9.783 1.41 14.682-.176l1.77-.578c17.387-5.633 30.605-20.242 34.504-38.125.244-1.121.959-2.086 1.963-2.645 1.004-.555 2.195-.664 3.279-.273 1.814.641 3.24.469 4.924-.574 1.68-1.051 2.805-2.645 3.004-4.27.217-1.762-.299-3.449-1.453-4.754-1.141-1.289-2.779-2.027-4.498-2.027-1.07 0-2.137-.449-2.889-1.211-1.311-1.332-1.494-2.527-1.398-9.148.057-3.965-2.646-7.52-6.424-8.453-26.27-6.477-55.432-5.531-82.135 2.668-1.773.543-2.975 2.285-2.92 4.23.229 8.285-.027 9.352-1.32 10.68-.754.773-1.834 1.234-2.914 1.234-1.643 0-3.176.652-4.316 1.832-1.143 1.184-1.738 2.742-1.68 4.395.061 1.703 1.201 3.508 2.973 4.703 1.955 1.324 3.334 1.254 4.92.715.414-.136.844-.207 1.274-.207zm100.617-16.476h.041z" fill="#4c241d"/><circle cx="168" cy="135.334" fill="#4c241d" r="4"/><circle cx="128" cy="135.334" fill="#4c241d" r="4"/><path d="m196.224 202.163-22.224-10.102v29.273h-56v-29.273l-22.224 10.102c-.62.282-1.177.658-1.776.972v66.199h104v-66.199c-.599-.314-1.156-.69-1.776-.972z" fill="#6b4f5b"/><path d="m198 273.334h-104c-2.209 0-4-1.789-4-4v-66.199c0-1.492.83-2.859 2.15-3.547l.551-.312c.463-.27.928-.531 1.42-.754l22.225-10.102c1.236-.566 2.674-.457 3.82.277 1.143.738 1.834 2.004 1.834 3.363v25.273h48v-25.273c0-1.359.691-2.625 1.834-3.363 1.146-.734 2.586-.84 3.82-.277l22.225 10.102c.492.223.959.484 1.42.754l.551.312c1.32.688 2.15 2.055 2.15 3.547v66.199c0 2.211-1.791 4-4 4zm-100-8h96v-59.789l-16-7.273v23.062c0 2.211-1.791 4-4 4h-56c-2.209 0-4-1.789-4-4v-23.062l-16 7.273z" fill="#4c241d"/><path d="m198 85.334c0-44-100-52-99.78 7.34.021 5.763.146 12.021.087 16.344 10.93.374 21.141-3.243 27.89-10.021 11.638 22.604 44.081 31.871 71.803 10.216 0-8.389 0-20.267 0-23.879z" fill="#f53e28"/><path d="m164.654 125.502c-3.629 0-7.25-.387-10.832-1.176-11.961-2.625-22.158-9.508-28.637-19.184-7.25 5.395-16.877 8.203-27.016 7.871-2.176-.074-3.893-1.875-3.863-4.051.037-2.684.002-6.121-.033-9.719-.021-2.172-.045-4.398-.053-6.555-.08-21.438 11.658-32.762 21.518-38.484 18.574-10.785 47.234-10.48 66.668.707 12.635 7.275 19.594 18.079 19.594 30.423v23.879c0 1.23-.566 2.395-1.537 3.152-11.057 8.637-23.463 13.137-35.809 13.137zm-38.457-30.504c.203 0 .408.016.613.047 1.264.195 2.357.984 2.943 2.121 5.049 9.809 14.447 16.859 25.783 19.348 12.854 2.816 26.441-.477 38.463-9.289v-21.891c0-12-8.475-19.398-15.586-23.488-17.146-9.879-42.365-10.184-58.658-.723-8.035 4.664-17.602 13.926-17.535 31.535.008 2.141.029 4.352.051 6.504.021 2.02.041 3.988.047 5.809 8.371-.512 15.893-3.621 21.045-8.797.756-.758 1.78-1.176 2.834-1.176zm71.803 14.215h.039z" fill="#4c241d"/><path d="m114 245.334h64v24h-64z" fill="#fff"/><path d="m178 273.334h-64c-2.209 0-4-1.789-4-4v-24c0-2.211 1.791-4 4-4h64c2.209 0 4 1.789 4 4v24c0 2.211-1.791 4-4 4zm-60-8h56v-16h-56z" fill="#4c241d"/><ellipse cx="148" cy="81.686" fill="#fff" rx="50" ry="15.648"/><path d="m148 101.334c-26.834 0-54-6.75-54-19.648s27.166-19.648 54-19.648 54 6.75 54 19.648-27.166 19.648-54 19.648zm0-31.297c-28.535 0-46 7.543-46 11.648s17.465 11.648 46 11.648 46-7.543 46-11.648-17.465-11.648-46-11.648z" fill="#4c241d"/><path d="m198 81.334h-100v-12.352c0-7.214 3.939-13.887 10.278-17.332 25.875-14.064 52.23-13.511 79.016.209 6.575 3.369 10.706 10.168 10.706 17.555z" fill="#fff"/><path d="m198 85.334h-100c-2.209 0-4-1.789-4-4v-12.352c0-8.711 4.738-16.699 12.367-20.848 26.545-14.422 54.387-14.367 82.752.168 7.945 4.067 12.881 12.161 12.881 21.114v11.918c0 2.211-1.791 4-4 4zm-96-8h92v-7.918c0-5.938-3.268-11.301-8.529-13.996-26.236-13.438-50.863-13.527-75.283-.254-5.051 2.742-8.188 8.039-8.188 13.816z" fill="#4c241d"/><path d="m56 209.334h-4c-12.15 0-22-9.85-22-22v-42h48v42c0 12.15-9.85 22-22 22z" fill="#bf7e68"/><path d="m56 213.334h-4c-14.336 0-26-11.664-26-26v-42c0-2.211 1.791-4 4-4h48c2.209 0 4 1.789 4 4v42c0 14.336-11.664 26-26 26zm-22-64v38c0 9.926 8.074 18 18 18h4c9.926 0 18-8.074 18-18v-38z" fill="#4c241d"/><path d="m42.203 173.334c-2.209 0-4-1.789-4-4v-22.613c0-2.211 1.791-4 4-4s4 1.789 4 4v22.613c0 2.211-1.791 4-4 4z" fill="#4c241d"/><path d="m54.203 161.334c-2.209 0-4-1.789-4-4v-10.613c0-2.211 1.791-4 4-4s4 1.789 4 4v10.613c0 2.211-1.791 4-4 4z" fill="#4c241d"/><path d="m210 193.334v-24h-12v100h40v-62.045c0-7.707-6.248-13.955-13.955-13.955z" fill="#9dc1e4"/><g fill="#4c241d"><path d="m238 273.334h-40c-2.209 0-4-1.789-4-4v-100c0-2.211 1.791-4 4-4h12c2.209 0 4 1.789 4 4v20h10.045c9.9 0 17.955 8.055 17.955 17.953v62.047c0 2.211-1.791 4-4 4zm-36-8h32v-58.047c0-5.488-4.467-9.953-9.955-9.953h-14.045c-2.209 0-4-1.789-4-4v-20h-4z"/><path d="m270 161.334h-12c-2.209 0-4-1.789-4-4s1.791-4 4-4h12c2.209 0 4 1.789 4 4s-1.791 4-4 4z"/><path d="m258.004 149.334c-1.469 0-2.881-.809-3.582-2.211-.988-1.977-.188-4.379 1.789-5.367l8-4c1.98-.984 4.381-.184 5.367 1.789.988 1.977.188 4.379-1.789 5.367l-8 4c-.574.285-1.185.422-1.785.422z"/><path d="m265.996 177.334c-.6 0-1.211-.137-1.785-.422l-8-4c-1.977-.988-2.777-3.391-1.789-5.367.988-1.973 3.389-2.773 5.367-1.789l8 4c1.977.988 2.777 3.391 1.789 5.367-.701 1.402-2.113 2.211-3.582 2.211z"/><circle cx="248" cy="75.334" r="4.529"/></g><path d="m242 169.334h-44c0-8.837 7.163-16 16-16h28z" fill="#fc8c29"/><path d="m242 173.334h-44c-2.209 0-4-1.789-4-4 0-11.027 8.973-20 20-20h28c2.209 0 4 1.789 4 4v16c0 2.211-1.791 4-4 4zm-39.314-8h35.314v-8h-24c-5.215 0-9.664 3.344-11.314 8z" fill="#4c241d"/><path d="m198 225.334h40v20h-40z" fill="#fff"/><path d="m238 249.334h-40c-2.209 0-4-1.789-4-4v-20c0-2.211 1.791-4 4-4h40c2.209 0 4 1.789 4 4v20c0 2.211-1.791 4-4 4zm-36-8h32v-12h-32z" fill="#4c241d"/><path d="m146 161.334c-2.922 0-5.736-1.062-7.926-2.992-1.656-1.457-1.816-3.984-.357-5.645 1.461-1.66 3.986-1.82 5.646-.355.514.453 1.389.992 2.637.992 1.146 0 2.199-.469 2.967-1.316 1.48-1.637 4.01-1.77 5.65-.281 1.639 1.48 1.766 4.012.283 5.648-2.271 2.508-5.515 3.949-8.9 3.949z" fill="#4c241d"/></svg>