<svg height="512" viewBox="0 0 128 128" width="512" xmlns="http://www.w3.org/2000/svg"><g><g><path d="m6.5 59.127h115v62.373h-115z" fill="#6aa8fb" transform="matrix(-1 0 0 -1 128 180.627)"/><path d="m35.25 37.25h57.5v84.25h-57.5z" fill="#f3d232" transform="matrix(-1 0 0 -1 128 158.75)"/><path d="m54.375 86.25h19.25v26.25h-19.25z" fill="#eaeaf0" transform="matrix(-1 0 0 -1 128 198.75)"/><g fill="#eaeaf0"><path d="m46.628 59.127h6.865v6.75h-6.865z" transform="matrix(-1 0 0 -1 100.122 125.004)"/><path d="m60.567 59.127h6.865v6.75h-6.865z" transform="matrix(-1 0 0 -1 128 125.004)"/><path d="m74.507 59.127h6.865v6.75h-6.865z" transform="matrix(-1 0 0 -1 155.878 125.004)"/></g><path d="m48.616 109.5h30.767v9h-30.767z" fill="#dc4c12"/><path d="m103.617 45.333-39.617-38.833-39.617 38.833z" fill="#6aa8fb"/><path d="m44.167 115.5h39.667v6h-39.667z" fill="#a4390d"/><g fill="#eaeaf0"><g><path d="m17.443 69.149h6.865v6.75h-6.865z" transform="matrix(0 -1 1 0 -51.649 93.399)"/><path d="m17.443 83.088h6.865v6.75h-6.865z" transform="matrix(0 -1 1 0 -65.588 107.338)"/><path d="m17.443 97.027h6.865v6.75h-6.865z" transform="matrix(0 -1 1 0 -79.527 121.277)"/></g><g><path d="m103.692 69.149h6.865v6.75h-6.865z" transform="matrix(0 -1 1 0 34.601 179.649)"/><path d="m103.692 83.088h6.865v6.75h-6.865z" transform="matrix(0 -1 1 0 20.662 193.588)"/><path d="m103.692 97.027h6.865v6.75h-6.865z" transform="matrix(0 -1 1 0 6.723 207.527)"/></g><circle cx="64" cy="30.288" r="8.846"/></g></g><g fill="#20334d"><path d="m121.5 57.38h-27v-10.3h9.117a1.75 1.75 0 0 0 1.225-3l-39.617-38.83a1.752 1.752 0 0 0 -2.45 0l-18.853 18.48a1.75 1.75 0 1 0 2.449 2.5l17.629-17.28 35.332 34.633h-6.553c-.01 0-.019 0-.029 0s-.019 0-.029 0h-57.442c-.01 0-.019 0-.029 0s-.019 0-.029 0h-6.553l11.052-10.833a1.75 1.75 0 0 0 -2.449-2.5l-14.113 13.833a1.75 1.75 0 0 0 1.225 3h9.117v10.3h-27a1.749 1.749 0 0 0 -1.75 1.75v40.242a1.75 1.75 0 0 0 3.5 0v-38.495h25.25v58.87h-25.25v-10.917a1.75 1.75 0 0 0 -3.5 0v12.667a1.749 1.749 0 0 0 1.75 1.75h115a1.749 1.749 0 0 0 1.75-1.75v-62.37a1.749 1.749 0 0 0 -1.75-1.75zm-75.583 62.37v-2.5h36.166v2.5zm25.953-12h-15.74v-19.75h15.74zm5.76 3.5v2.5h-27.26v-2.5zm42.12 8.5h-25.25v-12.083a1.75 1.75 0 0 0 -3.5 0v12.083h-5.417v-4.25a1.749 1.749 0 0 0 -1.75-1.75h-2.7v-4.25a1.749 1.749 0 0 0 -1.75-1.75h-4.013v-21.5a1.749 1.749 0 0 0 -1.75-1.75h-19.24a1.749 1.749 0 0 0 -1.75 1.75v21.5h-4.01a1.749 1.749 0 0 0 -1.75 1.75v4.25h-2.7a1.749 1.749 0 0 0 -1.75 1.75v4.25h-5.42v-72.667h54v43.231a1.75 1.75 0 0 0 3.5 0v-29.434h25.25z"/><path d="m92.75 95.594a1.749 1.749 0 0 0 -1.75 1.75v4.062a1.75 1.75 0 0 0 3.5 0v-4.062a1.749 1.749 0 0 0 -1.75-1.75z"/><path d="m81.477 74.808h-34.953a1.75 1.75 0 0 0 0 3.5h34.953a1.75 1.75 0 0 0 0-3.5z"/><path d="m46.628 67.627h6.865a1.749 1.749 0 0 0 1.75-1.75v-6.75a1.749 1.749 0 0 0 -1.75-1.75h-6.865a1.749 1.749 0 0 0 -1.75 1.75v6.75a1.749 1.749 0 0 0 1.75 1.75zm1.75-6.75h3.365v3.25h-3.365z"/><path d="m60.567 67.627h6.866a1.75 1.75 0 0 0 1.75-1.75v-6.75a1.75 1.75 0 0 0 -1.75-1.75h-6.866a1.75 1.75 0 0 0 -1.75 1.75v6.75a1.75 1.75 0 0 0 1.75 1.75zm1.75-6.75h3.366v3.25h-3.366z"/><path d="m74.507 67.627h6.865a1.749 1.749 0 0 0 1.75-1.75v-6.75a1.749 1.749 0 0 0 -1.75-1.75h-6.865a1.749 1.749 0 0 0 -1.75 1.75v6.75a1.749 1.749 0 0 0 1.75 1.75zm1.75-6.75h3.365v3.25h-3.365z"/><path d="m17.5 77.706h6.75a1.749 1.749 0 0 0 1.75-1.75v-6.865a1.749 1.749 0 0 0 -1.75-1.75h-6.75a1.749 1.749 0 0 0 -1.75 1.75v6.865a1.749 1.749 0 0 0 1.75 1.75zm1.75-6.865h3.25v3.365h-3.25z"/><path d="m15.75 89.9a1.75 1.75 0 0 0 1.75 1.75h6.75a1.75 1.75 0 0 0 1.75-1.75v-6.87a1.749 1.749 0 0 0 -1.75-1.75h-6.75a1.749 1.749 0 0 0 -1.75 1.75zm3.5-5.116h3.25v3.366h-3.25z"/><path d="m15.75 103.835a1.749 1.749 0 0 0 1.75 1.75h6.75a1.749 1.749 0 0 0 1.75-1.75v-6.865a1.749 1.749 0 0 0 -1.75-1.75h-6.75a1.749 1.749 0 0 0 -1.75 1.75zm3.5-5.115h3.25v3.365h-3.25z"/><path d="m103.75 77.706h6.75a1.749 1.749 0 0 0 1.75-1.75v-6.865a1.749 1.749 0 0 0 -1.75-1.75h-6.75a1.749 1.749 0 0 0 -1.75 1.75v6.865a1.749 1.749 0 0 0 1.75 1.75zm1.75-6.865h3.25v3.365h-3.25z"/><path d="m103.75 91.646h6.75a1.75 1.75 0 0 0 1.75-1.75v-6.866a1.749 1.749 0 0 0 -1.75-1.75h-6.75a1.749 1.749 0 0 0 -1.75 1.75v6.87a1.75 1.75 0 0 0 1.75 1.746zm1.75-6.866h3.25v3.366h-3.25z"/><path d="m103.75 105.585h6.75a1.749 1.749 0 0 0 1.75-1.75v-6.865a1.749 1.749 0 0 0 -1.75-1.75h-6.75a1.749 1.749 0 0 0 -1.75 1.75v6.865a1.749 1.749 0 0 0 1.75 1.75zm1.75-6.865h3.25v3.365h-3.25z"/><path d="m74.6 30.288a10.6 10.6 0 1 0 -10.6 10.597 10.608 10.608 0 0 0 10.6-10.597zm-17.692 0a7.1 7.1 0 1 1 7.1 7.1 7.1 7.1 0 0 1 -7.108-7.1z"/><path d="m66.156 32.038a1.75 1.75 0 1 0 0-3.5h-.406v-2.205a1.75 1.75 0 0 0 -3.5 0v3.955a1.749 1.749 0 0 0 1.75 1.75z"/></g></g></svg>