<svg id="Capa_1" enable-background="new 0 0 512 512" height="512" viewBox="0 0 512 512" width="512" xmlns="http://www.w3.org/2000/svg"><path d="m0 23.722h512v488.278h-512z" fill="#beebfa"/><path d="m256 23.722h256v488.278h-256z" fill="#b3d8f4"/><path d="m0 170.864h21.432l38.435-38.435h41.447l289.372-85.422h121.314v-47.007h-512z" fill="#ffeb99"/><path d="m256 86.766 134.686-39.759h121.314v-47.007h-256z" fill="#fad17f"/><path d="m269.147 271.058-60.465 34.046 4.043 57.896-19.154 10v117.402l195.28-21.107v-180.329l-54.289-48.869-30.961 30.961z" fill="#1c78bf"/><path d="m326.765 110.928 63.921-63.921v-31.007h-93.24l-32.575 32.575v22.182h-71.471l-92.086 61.672v28.164l63.686 57.74-5.316 86.771h40.475 8.523l60.465-34.046h34.454l30.961-30.961-4.013-3.612-41.854-37.675 38.07-38.07z" fill="#ff3939"/><path d="m264.871 48.575v22.182h-8.871v207.704l13.147-7.403h34.454l30.961-30.961-4.013-3.612-41.854-37.675 38.07-38.07v-49.812l63.921-63.921v-31.007h-93.24z" fill="#d20000"/><path d="m303.601 271.058h-34.454l-13.147 7.403v205.193l132.851-14.359v-180.329l-54.289-48.869z" fill="#1865a1"/></svg>