<?xml version="1.0"?>
<svg xmlns="http://www.w3.org/2000/svg" viewBox="0 0 64 64" width="512" height="512"><circle cx="32" cy="32" fill="#fcd821" r="29"/><g fill="#b6dedc"><circle cx="32" cy="48" r="9"/><circle cx="48" cy="32" r="9"/><circle cx="32" cy="16" r="9"/><circle cx="16" cy="32" r="9"/></g><circle cx="32" cy="14" fill="#344496" r="3"/><path d="m32.89807 17h-1.79614a3.1019 3.1019 0 0 0 -3.10193 3.10193v3.95148a8.92468 8.92468 0 0 0 8 0v-3.95148a3.1019 3.1019 0 0 0 -3.10193-3.10193z" fill="#344496"/><circle cx="48" cy="30" fill="#ec322c" r="3"/><path d="m48.89807 33h-1.79614a3.1019 3.1019 0 0 0 -3.10193 3.10193v3.95148a8.92468 8.92468 0 0 0 8 0v-3.95148a3.1019 3.1019 0 0 0 -3.10193-3.10193z" fill="#ec322c"/><circle cx="32" cy="46" fill="#344496" r="3"/><path d="m32.89807 49h-1.79614a3.1019 3.1019 0 0 0 -3.10193 3.10193v3.95148a8.92468 8.92468 0 0 0 8 0v-3.95148a3.1019 3.1019 0 0 0 -3.10193-3.10193z" fill="#344496"/><circle cx="16" cy="30" fill="#ec322c" r="3"/><path d="m16.89807 33h-1.79614a3.1019 3.1019 0 0 0 -3.10193 3.10193v3.95148a8.92468 8.92468 0 0 0 8 0v-3.95148a3.1019 3.1019 0 0 0 -3.10193-3.10193z" fill="#ec322c"/><path d="m32 62a30 30 0 1 1 30-30 30.03406 30.03406 0 0 1 -30 30zm0-58a28 28 0 1 0 28 28 28.03146 28.03146 0 0 0 -28-28z"/><path d="m32 6a10 10 0 1 0 10 10 10.01146 10.01146 0 0 0 -10-10zm-3 17.411v-3.309a2.10388 2.10388 0 0 1 2.10156-2.102h1.79688a2.10388 2.10388 0 0 1 2.10156 2.102v3.309a7.93469 7.93469 0 0 1 -6 0zm3-7.411a2 2 0 1 1 2-2 2.00229 2.00229 0 0 1 -2 2zm5 6.23505v-2.13305a4.09009 4.09009 0 0 0 -1.98883-3.4978 4.0001 4.0001 0 1 0 -6.02234 0 4.09009 4.09009 0 0 0 -1.98883 3.4978v2.133a8 8 0 1 1 10 0z"/><path d="m32 38a10 10 0 1 0 10 10 10.01146 10.01146 0 0 0 -10-10zm-3 17.411v-3.309a2.10388 2.10388 0 0 1 2.10156-2.102h1.79688a2.10388 2.10388 0 0 1 2.10156 2.10205v3.309a7.93469 7.93469 0 0 1 -6 0zm3-7.411a2 2 0 1 1 2-2 2.00229 2.00229 0 0 1 -2 2zm5 6.23505v-2.133a4.09009 4.09009 0 0 0 -1.98883-3.4978 4.0001 4.0001 0 1 0 -6.02234 0 4.09009 4.09009 0 0 0 -1.98883 3.4978v2.133a8 8 0 1 1 10 0z"/><path d="m48 22a10 10 0 1 0 10 10 10.01146 10.01146 0 0 0 -10-10zm-3 17.411v-3.309a2.10388 2.10388 0 0 1 2.10156-2.102h1.79688a2.10388 2.10388 0 0 1 2.10156 2.10205v3.309a7.93469 7.93469 0 0 1 -6 0zm3-7.411a2 2 0 1 1 2-2 2.00229 2.00229 0 0 1 -2 2zm5 6.23505v-2.133a4.09009 4.09009 0 0 0 -1.98883-3.4978 4.0001 4.0001 0 1 0 -6.02234 0 4.09009 4.09009 0 0 0 -1.98883 3.4978v2.133a8 8 0 1 1 10 0z"/><path d="m16 22a10 10 0 1 0 10 10 10.01146 10.01146 0 0 0 -10-10zm-3 17.411v-3.309a2.10388 2.10388 0 0 1 2.10156-2.102h1.79688a2.10388 2.10388 0 0 1 2.10156 2.10205v3.309a7.93469 7.93469 0 0 1 -6 0zm3-7.411a2 2 0 1 1 2-2 2.00229 2.00229 0 0 1 -2 2zm5 6.23505v-2.133a4.09009 4.09009 0 0 0 -1.98883-3.4978 4.0001 4.0001 0 1 0 -6.02234 0 4.09009 4.09009 0 0 0 -1.98883 3.4978v2.133a8 8 0 1 1 10 0z"/></svg>
