<svg height="512" viewBox="0 0 512 512" width="512" xmlns="http://www.w3.org/2000/svg"><g id="Flat"><path d="m352 56a173.286 173.286 0 0 1 -24.7 89.16l-23.3 38.84-8 48h-80l-8-48-23.3-38.84a173.286 173.286 0 0 1 -24.7-89.16h32a115.567 115.567 0 0 0 16.46 59.44l7.54 12.56h80l7.54-12.56a115.526 115.526 0 0 0 16.46-59.44z" fill="#e0e0de"/><path d="m352 56a173.286 173.286 0 0 1 -24.7 89.16l-23.3 38.84-8 48h-80l-7.94-47.64a461.4 461.4 0 0 0 69.65-56.36h18.29l7.54-12.56a115.651 115.651 0 0 0 12.83-30.7q10.83-13.755 20.86-28.74z" fill="#dbdbd9"/><rect fill="#fec9a3" height="72" rx="24" width="48" x="232" y="56"/><path d="m320 384h-48l-16-112-16 112h-48l16-16 7.06-120 .94-16h80l.94 16 7.06 120z" fill="#404f66"/><path d="m256 176a8 8 0 0 1 -6.86-3.884l-24-40a8 8 0 0 1 13.72-8.232l17.14 28.567 17.14-28.567a8 8 0 0 1 13.72 8.232l-24 40a8 8 0 0 1 -6.86 3.884z" fill="#b8b8b6"/><path d="m184 208v72h-32v-72l-8 72h-80l-3.43-27.4-4.57-36.6a242.875 242.875 0 0 1 -32-120.5v-15.5h32v9.35a168.372 168.372 0 0 0 24 86.65h72a30.99 30.99 0 0 1 5.22.43 32 32 0 0 1 26.78 31.57z" fill="#e0e0de"/><path d="m184 208v72h-32v-72l-8 72h-80l-3.43-27.4a464.817 464.817 0 0 0 96.65-76.17 32 32 0 0 1 26.78 31.57z" fill="#dbdbd9"/><rect fill="#fec9a3" height="72" rx="24" width="48" x="80" y="104"/><path d="m168 432h-48l-16-112-16 112h-48l16-16 7.06-120 .94-16h80l.94 16 7.06 120z" fill="#404f66"/><path d="m104 224a8 8 0 0 1 -6.86-3.884l-24-40a8 8 0 0 1 13.72-8.232l17.14 28.567 17.14-28.567a8 8 0 1 1 13.72 8.232l-24 40a8 8 0 0 1 -6.86 3.884z" fill="#b8b8b6"/><path d="m488 80v15.5a243.26 243.26 0 0 1 -32 120.5l-8 64h-80l-3.07-27.62-4.93-44.38v72h-32v-72a32 32 0 0 1 32-32h72a168.372 168.372 0 0 0 24-86.65v-9.35z" fill="#e0e0de"/><path d="m328 272.33q16.17-7.875 32-17.05v24.72h-32z" fill="#dbdbd9"/><path d="m480.54 155.18a242.417 242.417 0 0 1 -24.54 60.82l-8 64h-80l-3.07-27.62a462.122 462.122 0 0 0 115.61-97.2z" fill="#dbdbd9"/><rect fill="#fec9a3" height="72" rx="24" transform="matrix(-1 0 0 -1 816 280)" width="48" x="384" y="104"/><path d="m472 432h-48l-16-112-16 112h-48l16-16 7.06-120 .94-16h80l.94 16 7.06 120z" fill="#404f66"/><path d="m408 224a8 8 0 0 1 -6.86-3.884l-24-40a8 8 0 1 1 13.72-8.232l17.14 28.567 17.14-28.567a8 8 0 0 1 13.72 8.232l-24 40a8 8 0 0 1 -6.86 3.884z" fill="#b8b8b6"/><g fill="#fec9a3"><path d="m152 280h32v32h-32z"/><path d="m24 48h32v32h-32z"/><path d="m328 280h32v32h-32z" transform="matrix(-1 0 0 -1 688 592)"/><path d="m456 48h32v32h-32z"/><path d="m160 24h32v32h-32z"/><path d="m320 24h32v32h-32z"/></g><path d="m328 432v-48h-144v48h-160v56h464v-56z" fill="#f35244"/><path d="m328 432v-48h-32l-152 104h344v-56z" fill="#e64c3f"/><circle cx="256" cy="184" fill="#ffb531" r="24"/><circle cx="104" cy="232" fill="#ffb531" r="24"/><circle cx="408" cy="232" fill="#ffb531" r="24"/><path d="m144 280h-80l-.94 16h81.88z" fill="#3b495e"/><path d="m296.94 248h-81.88l.94-16h80z" fill="#3b495e"/><path d="m448.94 296h-81.88l.94-16h80z" fill="#3b495e"/></g></svg>