<svg id="_x33_0" enable-background="new 0 0 64 64" height="512" viewBox="0 0 64 64" width="512" xmlns="http://www.w3.org/2000/svg"><g><g><g><path d="m27.5 60.6 2.91 1.17c.39.15.8.23 1.22.23h-12.63v-21.66c0-1.53.42-3.03 1.2-4.34.88-1.47 2.19-2.63 3.73-3.33.47-.22.96-.39 1.46-.52l.64-.15c-.66.8-1.03 1.81-1.03 2.85 0 .95.3 1.84.82 2.57.52.74 1.26 1.32 2.15 1.64l8.93 3.19c-1.85.6-3.31 2.07-3.88 3.94l-3.02 9.81h-1.61c-.66 0-1.26.27-1.69.7s-.7 1.03-.7 1.69c0 .97.59 1.85 1.5 2.21z" fill="#fcd770"/></g><g><path d="m28.83 31.83 4.99 4.99c.76.76 1.78 1.18 2.84 1.18.87 0 1.72-.28 2.41-.8l1.3-.98 1.34.8c1.28.77 2.3 1.87 2.98 3.17.42.81.71 1.69.83 2.61l.59 4.31-6.56.82-.34-3.07c-.13-1.14-.9-2.1-1.98-2.49l-.33-.12-8.93-3.19c-.89-.32-1.63-.9-2.15-1.64-.52-.73-.82-1.62-.82-2.57 0-1.04.37-2.05 1.03-2.85.09-.11.18-.21.28-.31l1.7-1.67c.04.68.33 1.32.82 1.81z" fill="#fcd770"/></g><g><path d="m33.99 13.96.51 2.29-.33 1.49c-.7 3.15-2.84 5.77-5.76 7.08l-.41-.82.72-2.17c.19-.55.28-1.13.28-1.71s-.24-1.12-.62-1.5-.92-.62-1.5-.62c-.56 0-1.1.22-1.5.62l-.38.38c-.6-1.79-2.27-3-4.16-3h-.01c-1.81 0-3.55-.72-4.83-2-.79 1.18-1.35 2.49-1.67 3.86h-.01l-2.04-.4c-.66-.14-1.23-.49-1.64-.99-.4-.49-.64-1.12-.64-1.8 0-.44.1-.88.3-1.27l.62-1.23-.3-.12c-1.58-.63-2.62-2.17-2.62-3.88 0-1.15.47-2.19 1.22-2.95.76-.75 1.8-1.22 2.95-1.22h6.36c2.02 0 3.92.84 5.26 2.27v.01c.66-.19 1.34-.28 2.03-.28 2.03 0 3.99.81 5.43 2.25l.31.31c-.36.56-.56 1.22-.56 1.9v.01c0 .97.4 1.86 1.03 2.5.28.27.6.5 1.96.99z" fill="#b27946"/></g><g><path d="m30 56 5.25 2.25-.5 1.5c-.45 1.35-1.7 2.25-3.12 2.25-.42 0-.83-.08-1.22-.23l-2.91-1.17c-.91-.36-1.5-1.24-1.5-2.21 0-.66.27-1.26.7-1.69s1.03-.7 1.69-.7z" fill="#cf9e76"/></g><g><path d="m39.55 47.93.2 1.84-1.13.15c-.38.05-.7.31-.82.67l-2.55 7.66-5.25-2.25 3.02-9.81c.57-1.87 2.03-3.34 3.88-3.94l.33.12c1.08.39 1.85 1.35 1.98 2.49z" fill="#969faa"/></g><g><path d="m46.5 48.87-.15.02-.24-1.78-.59-4.31c-.12-.92-.41-1.8-.83-2.61l7.59-2c.06.16.12.31.18.47.36.89.54 1.83.54 2.78 0 1.88-.7 3.61-1.86 4.94-1.16 1.32-2.78 2.24-4.64 2.49z" fill="#aab2bd"/></g><g><path d="m50 28 .44 3.1c.35 2.42.96 4.81 1.84 7.09l-7.59 2c-.68-1.3-1.7-2.4-2.98-3.17l-1.34-.8 5.63-4.22c2.21 0 4-1.79 4-4z" fill="#b4dd7f"/></g><g><path d="m46 32c-2.21 0-4-1.79-4-4 0-.63.15-1.23.42-1.77.65-1.32 2.01-2.23 3.58-2.23.36 0 .7.05 1.03.14 1.71.45 2.97 2.01 2.97 3.86 0 2.21-1.79 4-4 4z" fill="#b4dd7f"/></g><g><path d="m37 11.53c0 .68-.28 1.3-.72 1.75-.45.44-1.07.72-1.75.72-.18 0-.36-.01-.54-.04-1.36-.49-1.68-.72-1.96-.99-.63-.64-1.03-1.53-1.03-2.5v-.01c0-.68.2-1.34.56-1.9.13-.21.29-.41.47-.59 1.27-1.27 2.77-2.26 4.4-2.94 1.63-.67 3.39-1.03 5.18-1.03h4.39c-1.1 0-2 .9-2 2s.9 2 2 2c.09 0 .19-.01.28-.02-.18.3-.28.65-.28 1.02 0 1.1.9 2 2 2v1.79c0 1.18.35 2.32.98 3.28l-.27.81c-.46 1.36-1.43 2.48-2.71 3.12l-2-3 .38-.38c.4-.4.62-.94.62-1.5 0-.58-.24-1.12-.62-1.5s-.92-.62-1.5-.62c-.56 0-1.1.22-1.5.62l-.38.38c-.64-1.28-1.76-2.25-3.12-2.71l-.94-.31h-.01c.05.18.07.36.07.55z" fill="#656d78"/></g><g><path d="m55.3 11.95c.46.68.7 1.49.7 2.32 0 1.11-.44 2.17-1.23 2.96-.49.49-.77 1.16-.77 1.87v.9l-3.33-2.22c-.68-.46-1.25-1.04-1.69-1.71-.63-.96-.98-2.1-.98-3.28v-1.79c1.1 0 2-.9 2-2s-.9-2-2-2c-.1 0-.19.01-.28.02.18-.3.28-.65.28-1.02 0-.59-.26-1.12-.67-1.49l.14-.22c.96-1.43 2.56-2.29 4.29-2.29 1.17 0 2.23.48 3 1.24.76.77 1.24 1.83 1.24 3 0 1.13-.45 2.21-1.24 3l-.76.76z" fill="#656d78"/></g><g><path d="m47.33 4.51c.41.37.67.9.67 1.49 0 .37-.1.72-.28 1.02-.61.09-1.13.45-1.44.96-.09.01-.19.02-.28.02-1.1 0-2-.9-2-2s.9-2 2-2c.51 0 .98.19 1.33.51z" fill="#ff826e"/></g><g><path d="m48 7c1.1 0 2 .9 2 2s-.9 2-2 2-2-.9-2-2c0-.37.1-.72.28-1.02.31-.51.83-.87 1.44-.96.09-.01.18-.02.28-.02z" fill="#ff826e"/></g><g><path d="m28.41 24.82 1.22 2.44v.01l-.8.56c-.51.51-.83 1.22-.83 2 0 .06 0 .13.01.19l-1.7 1.67c-.1.1-.19.2-.28.31l-.64.15c-.5.13-.99.3-1.46.52v-.01l-.93-4.66-1.26.63c-.49.24-1.02.37-1.57.37-1.33 0-2.55-.75-3.14-1.94l-.53-1.07-.5-.99-2-1v-3.39c0-.93.11-1.86.33-2.75.32-1.37.88-2.68 1.67-3.86 1.28 1.28 3.02 2 4.83 2h.01c1.89 0 3.56 1.21 4.16 3l.38-.38c.4-.4.94-.62 1.5-.62.58 0 1.12.24 1.5.62s.62.92.62 1.5-.09 1.16-.28 1.71l-.72 2.17z" fill="#f0d0b4"/></g><g><path d="m46.35 48.89.65 4.79c0 .64-.26 1.22-.68 1.64s-1 .68-1.64.68c-1.01 0-1.89-.64-2.21-1.59l-.47-1.41-.54-.27c-.91-.46-1.53-1.34-1.64-2.35l-.07-.61-.2-1.84 6.56-.82z" fill="#f0d0b4"/></g><g><path d="m30.83 27c.75 0 1.47.3 2 .83l4.17 4.17 5-4c0 2.21 1.79 4 4 4l-5.63 4.22-1.3.98c-.69.52-1.54.8-2.41.8-1.06 0-2.08-.42-2.84-1.18l-4.99-4.99c-.49-.49-.78-1.13-.82-1.81-.01-.06-.01-.13-.01-.19 0-.78.32-1.49.83-2l.8-.56z" fill="#f0d0b4"/></g><g><path d="m37 11.53c0-.19-.02-.37-.07-.55h.01l.94.31c1.36.46 2.48 1.43 3.12 2.71l.38-.38c.4-.4.94-.62 1.5-.62.58 0 1.12.24 1.5.62s.62.92.62 1.5c0 .56-.22 1.1-.62 1.5l-.38.38 2 3 1.03 4.13v.01c-.33-.09-.67-.14-1.03-.14-1.57 0-2.93.91-3.58 2.23h-.01l-1.21-3.63-.56.19c-.42.14-.87.21-1.31.21-.97 0-1.88-.34-2.6-.91-.37-.3-.69-.67-.94-1.09h-.01c-.23-.38-.4-.8-.5-1.25l-.78-3.5-.51-2.29c.18.03.36.04.54.04.68 0 1.3-.28 1.75-.72.44-.45.72-1.07.72-1.75z" fill="#f0d0b4"/></g></g><g><path d="m55.287 10.128.179-.179c.989-.991 1.534-2.307 1.534-3.706 0-2.891-2.352-5.243-5.242-5.243-1.835 0-3.549.814-4.709 2.199-.328-.123-.679-.199-1.049-.199h-4.391c-3.813 0-7.395 1.464-10.124 4.115-1.576-1.364-3.563-2.115-5.67-2.115-.576 0-1.15.07-1.715.184-1.512-1.39-3.508-2.184-5.572-2.184h-6.354c-2.853 0-5.174 2.321-5.174 5.174 0 1.868.984 3.548 2.562 4.466l-.157.313c-.264.53-.405 1.124-.405 1.718 0 1.825 1.299 3.409 3.088 3.767l1.062.212c-.098.643-.15 1.297-.15 1.955v4.013l2.255 1.127.88 1.76c.768 1.539 2.315 2.495 4.036 2.495.697 0 1.395-.165 2.018-.476l.088-.044.528 2.641c-1.411.793-2.604 1.935-3.46 3.361-.88 1.467-1.345 3.146-1.345 4.855v22.663h13.633c1.848 0 3.48-1.178 4.064-2.93l3.054-9.162.145-.019c.255 1.182 1.021 2.187 2.116 2.735l.17.085.34 1.018c.453 1.359 1.72 2.273 3.154 2.273 1.833 0 3.324-1.491 3.324-3.324l-.538-3.974c3.78-.895 6.538-4.307 6.538-8.26 0-1.086-.204-2.146-.607-3.152-.942-2.356-1.602-4.824-1.96-7.335l-.442-3.097-.004.001c-.058-2.031-1.324-3.761-3.112-4.487l-.729-2.915c.933-.626 1.671-1.472 2.164-2.482.253.229.519.446.809.639l4.881 3.255v-2.773c0-.433.176-.856.481-1.162.98-.98 1.519-2.282 1.519-3.667 0-1.028-.302-2.022-.871-2.876zm-7.287-.128c-.552 0-1-.449-1-1s.448-1 1-1 1 .449 1 1-.448 1-1 1zm-1-4c0 .065-.013.129-.026.192-.448.164-.844.428-1.164.771-.441-.095-.81-.481-.81-.963 0-.551.448-1 1-1s1 .449 1 1zm-34.52 10.477c-.858-.172-1.48-.932-1.48-1.806 0-.285.067-.57.194-.824l.206-.411 1.229.492.742-1.856-2.376-.951c-1.212-.485-1.995-1.642-1.995-2.947 0-1.75 1.424-3.174 3.174-3.174h6.354c1.178 0 2.325.345 3.31.962l-2.286 1.143.895 1.789 2.377-1.188c.924-.462 1.958-.706 2.991-.706 1.69 0 3.28.629 4.516 1.765-.215.534-.331 1.11-.331 1.707 0 2.011 1.327 3.7 3.145 4.289l.331 1.488-.284 1.277c-.513 2.307-1.919 4.316-3.854 5.623l.332-.999c.219-.655.33-1.338.33-2.029 0-1.721-1.4-3.121-3.121-3.121-.544 0-1.08.146-1.549.413-.98-1.483-2.654-2.413-4.502-2.413-1.557 0-3.021-.606-4.121-1.707l-.862-.863-.677 1.015c-.677 1.015-1.196 2.112-1.56 3.257zm25.401-4.094c.963.407 1.752 1.118 2.225 2.064l.621 1.241 1.359-1.36c.209-.208.498-.328.793-.328.618 0 1.121.503 1.121 1.121 0 .3-.116.581-.328.793l-.959.958 2.359 3.538.655 2.617c-1.12.062-2.134.491-2.939 1.173l-.323-.968.852-.284-.633-1.897-2.361.787c-.322.108-.657.162-.996.162-.409 0-.797-.083-1.157-.224 1.167-.371 2.155-1.19 2.725-2.329l-1.789-.895c-.447.893-1.344 1.448-2.342 1.448h-.364c-.058-.15-.11-.303-.145-.464l-1.024-4.608c1.298-.268 2.323-1.268 2.65-2.545zm11.626 19.173c.308 2.02.801 4.01 1.467 5.943l-5.807 1.528c-.738-1.151-1.734-2.134-2.946-2.86l-.061-.037 4.225-3.169c1.21-.094 2.306-.6 3.122-1.405zm-9.306 13.197c-.168-1.51-1.201-2.815-2.631-3.325l-9.268-3.31c-1.377-.492-2.302-1.805-2.302-3.267 0-.913.37-1.807 1.01-2.446l.572-.563c.154.247.328.483.539.695l4.996 4.996c.947.946 2.206 1.467 3.545 1.467 1.079 0 2.147-.356 3.008-1.003l.762-.572.761.456c1.83 1.099 3.046 2.942 3.334 5.058l.451 3.305-4.548.569zm-10.456-19.501c2.034-1.161 3.654-2.937 4.63-5.05.61 2.245 2.604 3.798 4.952 3.798.417 0 .828-.067 1.231-.166l.79 2.369c-.156.402-.248.83-.295 1.274l-3.979 3.183-3.539-3.538c-.722-.724-1.683-1.122-2.707-1.122-.231 0-.455.029-.675.068zm8.725 11.145c-1.159.871-2.91.748-3.938-.28l-4.996-4.995c-.346-.346-.536-.805-.536-1.293 0-1.009.82-1.829 1.828-1.829.481 0 .952.195 1.293.536l4.805 4.804 4.423-3.538c.447 1.15 1.308 2.082 2.399 2.638zm-14.34-7.844 1.317-.658-.895-1.789-3.259 1.629c-.346.173-.734.265-1.122.265-.891 0-1.683-.473-2.136-1.227 1.381-.338 2.651-1.045 3.672-2.066l-1.414-1.414c-.878.878-2.008 1.423-3.222 1.613l-.326-.651-1.745-.873v-2.776c0-1.781.431-3.517 1.254-5.079 1.323.957 2.911 1.473 4.584 1.473 1.46 0 2.751.931 3.214 2.316l.512 1.535 1.522-1.523c.209-.208.498-.328.793-.328.618 0 1.121.503 1.121 1.121 0 .476-.076.945-.228 1.396l-.853 2.559 1.43 2.858c-.76.652-1.256 1.588-1.325 2.648l-1.423 1.401c-.034.034-.058.076-.091.111l-.364.087c-.157.039-.308.093-.462.14zm-4.13 11.784c0-1.347.366-2.67 1.06-3.826.745-1.241 1.812-2.212 3.076-2.836-.084.383-.136.774-.136 1.176 0 2.305 1.458 4.375 3.63 5.15l6.823 2.436c-1.117.871-1.963 2.07-2.39 3.457l-2.802 9.106h-.876c-1.866 0-3.385 1.519-3.385 3.385 0 1.037.464 1.985 1.234 2.615h-6.234zm13.801 19.101c-.403 1.211-1.824 1.879-3.017 1.398l-2.914-1.165c-.528-.211-.87-.717-.87-1.286 0-.764.621-1.385 1.385-1.385h1.41l4.216 1.807zm3.053-9.162-2.209 6.627-3.425-1.468 2.754-8.953c.446-1.451 1.534-2.609 2.934-3.166.709.259 1.221.907 1.304 1.658l.436 3.931-.163.022c-.762.101-1.387.619-1.631 1.349zm7.822 4.724c-.571 0-1.077-.364-1.257-.906l-.601-1.803-.911-.456c-.609-.305-1.019-.891-1.094-1.567l-.163-1.466 4.597-.575.751 5.508c-.03.703-.611 1.265-1.322 1.265zm2.513-7.313-.679-5.017c-.085-.626-.241-1.23-.447-1.811l5.595-1.472c.223.662.342 1.351.342 2.055 0 2.954-2.021 5.492-4.811 6.245zm1.811-19.687c0 1.654-1.346 3-3 3s-3-1.346-3-3 1.346-3 3-3 3 1.346 3 3zm-2.706-9.362-1.014-1.522c.466-.559.72-1.257.72-1.995 0-1.721-1.4-3.121-3.121-3.121-.587 0-1.165.17-1.66.479-.768-.989-1.81-1.73-3.023-2.135l-.465-.155c-.314-.754-.886-1.385-1.649-1.767l-.634-.317-.895 1.789.634.317c.501.251.813.756.813 1.317 0 .811-.66 1.472-1.472 1.472-1.394 0-2.528-1.134-2.528-2.539 0-.665.27-1.317.74-1.788 2.369-2.368 5.519-3.673 8.869-3.673h1.575c-.112.314-.184.648-.184 1 0 1.309.847 2.412 2.018 2.821-.004.061-.018.118-.018.179 0 1.302.839 2.402 2 2.816v.973c0 1.211.315 2.373.884 3.397l-.125.377c-.278.833-.787 1.548-1.465 2.075zm8.171-6.137c.35.524.535 1.135.535 1.766 0 .851-.331 1.65-.933 2.251-.473.473-.8 1.053-.958 1.686l-1.883-1.255c-1.394-.929-2.226-2.485-2.226-4.16v-.973c1.161-.414 2-1.514 2-2.816 0-1.311-.85-2.416-2.024-2.823.004-.06.024-.117.024-.177 0-.554-.161-1.066-.424-1.512.785-.937 1.942-1.488 3.182-1.488 1.788 0 3.242 1.455 3.242 3.243 0 .866-.337 1.68-.949 2.292l-1.338 1.337z"/><circle cx="38" cy="16" r="1"/><circle cx="18" cy="19" r="1"/></g></g></svg>