<svg id="Capa_1" enable-background="new 0 0 512 512" height="512" viewBox="0 0 512 512" width="512" xmlns="http://www.w3.org/2000/svg"><g><g><path d="m306 156.5c0-11.046-8.954-20-20-20h-112c-11.046 0-20 8.954-20 20v12h152z" fill="#faef93" stroke="#fee95d" stroke-miterlimit="10"/><path d="m420 504.5h-380c-17.673 0-32-14.327-32-32v-239c0-17.673 14.327-32 32-32h380c17.673 0 32 14.327 32 32v239c0 17.673-14.327 32-32 32z" fill="#decba0"/><path d="m420 474.5h-380c-17.673 0-32-14.327-32-32v30c0 17.673 14.327 32 32 32h380c17.673 0 32-14.327 32-32v-30c0 17.673-14.327 32-32 32z" fill="#d4b981"/><path d="m482 468.5h-206c-12.15 0-22-9.85-22-22v-324c0-12.15 9.85-22 22-22h206c12.15 0 22 9.85 22 22v324c0 12.15-9.85 22-22 22z" fill="#f88fa4"/><g fill="#57758d"><path d="m306 468.5v21c0 8.284-6.716 15-15 15-8.284 0-15-6.716-15-15v-21z"/><path d="m482 468.5v21c0 8.284-6.716 15-15 15-8.284 0-15-6.716-15-15v-21z"/><path d="m301 7.5h156v30h-156z"/></g><path d="m41 188.5v13h51v-13c0-8.284-6.716-15-15-15h-21c-8.284 0-15 6.716-15 15z" fill="#faef93" stroke="#fee95d" stroke-miterlimit="10"/><g fill="#f05475"><path d="m307 434.5c-8.284 0-15-6.716-15-15v-270c0-8.284 6.716-15 15-15 8.284 0 15 6.716 15 15v270c0 8.284-6.716 15-15 15z"/><path d="m379 434.5c-8.284 0-15-6.716-15-15v-270c0-8.284 6.716-15 15-15 8.284 0 15 6.716 15 15v270c0 8.284-6.716 15-15 15z"/><path d="m451 434.5c-8.284 0-15-6.716-15-15v-270c0-8.284 6.716-15 15-15 8.284 0 15 6.716 15 15v270c0 8.284-6.716 15-15 15z"/></g><path d="m158 421.5h-78c-8.284 0-15-6.716-15-15v-123l54-41 54 41v123c0 8.284-6.716 15-15 15z" fill="#faef93" stroke="#fee95d" stroke-miterlimit="10"/><path d="m482 437.5h-206c-12.15 0-22-9.85-22-22v31c0 12.15 9.85 22 22 22h206c12.15 0 22-9.85 22-22v-31c0 12.15-9.85 22-22 22z" fill="#f05475"/></g><g fill="#fff"><path d="m91 319h57v15h-57z"/><path d="m91 350h57v15h-57z"/><path d="m91 381h57v15h-57z"/></g><g><path d="m482 93h-35.5v-48h18v-45h-171v45h18v48h-35.5c-16.267 0-29.5 13.233-29.5 29.5v324c0 13.676 9.354 25.204 22 28.531v14.469c0 12.406 10.094 22.5 22.5 22.5s22.5-10.094 22.5-22.5v-13.5h131v13.5c0 12.406 10.094 22.5 22.5 22.5s22.5-10.094 22.5-22.5v-14.469c12.646-3.327 22-14.855 22-28.531v-324c0-16.267-13.233-29.5-29.5-29.5zm-173.5-63v-15h141v15zm123 15v48h-105v-48zm-133 444.5c0 4.136-3.364 7.5-7.5 7.5s-7.5-3.364-7.5-7.5v-13.5h15zm176 0c0 4.136-3.364 7.5-7.5 7.5s-7.5-3.364-7.5-7.5v-13.5h15zm22-43c0 7.995-6.505 14.5-14.5 14.5h-206c-7.995 0-14.5-6.505-14.5-14.5v-324c0-7.995 6.505-14.5 14.5-14.5h206c7.995 0 14.5 6.505 14.5 14.5z"/><path d="m15.5 472.5v-239c0-13.51 10.99-24.5 24.5-24.5h71.5v29.777l-54 41v126.723c0 12.406 10.094 22.5 22.5 22.5h78c12.406 0 22.5-10.094 22.5-22.5v-126.723l-54-41v-29.777h103.5v-15h-68.5v-18h68.5v-15h-68.5v-4.5c0-6.893 5.607-12.5 12.5-12.5h56v-15h-56c-15.163 0-27.5 12.337-27.5 27.5v37.5h-47v-5.5c0-12.406-10.094-22.5-22.5-22.5h-21c-12.406 0-22.5 10.094-22.5 22.5v6.044c-18.697 3.11-33 19.39-33 38.956v239c0 21.78 17.72 39.5 39.5 39.5h212v-15h-212c-13.51 0-24.5-10.99-24.5-24.5zm111-214.889 39 29.611v119.278c0 4.136-3.364 7.5-7.5 7.5h-78c-4.136 0-7.5-3.364-7.5-7.5v-119.277l39-29.611v30.888h15zm-78-69.111c0-4.136 3.364-7.5 7.5-7.5h21c4.136 0 7.5 3.364 7.5 7.5v5.5h-36z"/><path d="m284.5 212.071h15v15h-15z"/><path d="m284.5 182.071h15v15h-15z"/><path d="m314.5 419.5c0 4.136-3.364 7.5-7.5 7.5s-7.5-3.364-7.5-7.5v-177.429h-15v177.429c0 12.406 10.094 22.5 22.5 22.5s22.5-10.094 22.5-22.5v-58.714h-15z"/><path d="m314.5 300.786h15v15h-15z"/><path d="m307 127c-12.406 0-22.5 10.094-22.5 22.5v17.571h15v-17.571c0-4.136 3.364-7.5 7.5-7.5s7.5 3.364 7.5 7.5v136.286h15v-136.286c0-12.406-10.094-22.5-22.5-22.5z"/><path d="m314.5 330.786h15v15h-15z"/><path d="m386.5 300.786h15v15h-15z"/><path d="m379 127c-12.406 0-22.5 10.094-22.5 22.5v17.571h15v-17.571c0-4.136 3.364-7.5 7.5-7.5s7.5 3.364 7.5 7.5v136.286h15v-136.286c0-12.406-10.094-22.5-22.5-22.5z"/><path d="m386.5 330.786h15v15h-15z"/><path d="m356.5 182.071h15v15h-15z"/><path d="m356.5 212.071h15v15h-15z"/><path d="m386.5 419.5c0 4.136-3.364 7.5-7.5 7.5s-7.5-3.364-7.5-7.5v-177.429h-15v177.429c0 12.406 10.094 22.5 22.5 22.5s22.5-10.094 22.5-22.5v-58.714h-15z"/><path d="m458.5 330.786h15v15h-15z"/><path d="m451 127c-12.406 0-22.5 10.094-22.5 22.5v17.571h15v-17.571c0-4.136 3.364-7.5 7.5-7.5s7.5 3.364 7.5 7.5v136.286h15v-136.286c0-12.406-10.094-22.5-22.5-22.5z"/><path d="m458.5 300.786h15v15h-15z"/><path d="m428.5 212.071h15v15h-15z"/><path d="m428.5 182.071h15v15h-15z"/><path d="m458.5 419.5c0 4.136-3.364 7.5-7.5 7.5s-7.5-3.364-7.5-7.5v-177.429h-15v177.429c0 12.406 10.094 22.5 22.5 22.5s22.5-10.094 22.5-22.5v-58.714h-15z"/><path d="m36 456h194v15h-194z"/></g></g></svg>