<svg id="Layer_2" height="512" viewBox="0 0 64 64" width="512" xmlns="http://www.w3.org/2000/svg" data-name="Layer 2"><path d="m28 21.26v12.82l-.32 1.19-8.52 9.48c-1.92 1.91-1.07 4.98.71 8.45a17.668 17.668 0 0 0 2.17 2.83l-.04.13c-.66.19-1.35.36-2.08.5a27.278 27.278 0 0 1 -4.92.44h-.21c-.26 0-.52-.01-.78-.02-6.71-.23-12.01-2.81-12.01-5.98v-29.84z" fill="#ec1c24"/><path d="m28 39.329-1.76 2.219-7.24 10.532c-.53.06-2.08-.052-2.64-.022-.45.02-.9.03-1.36.03a26.588 26.588 0 0 1 -5.12-.48c-4.63-.92-7.88-3.04-7.88-5.52v-18c0 3.32 5.82 6 13 6a25.852 25.852 0 0 0 6.12-.7c4.09-1.01 6.88-3 6.88-5.3z" fill="#faaf40"/><path d="m17 46.068-2 1.024-7-4 7-4 5 2.976" fill="#ec1c24"/><path d="m28 21.088c0 3.32-5.82 6-13 6a25.971 25.971 0 0 1 -6.36-.76c-3.96-1.028-6.64-2.99-6.64-5.24 0-3.31 5.82-6 13-6a26.9 26.9 0 0 1 4.31.34c5.06.82 8.69 3.05 8.69 5.66z" fill="#9b0d21"/><g opacity=".3"><path d="m28 26.23v8.68l-.32.36-8.52 9.48c-1.92 1.91-1.07 4.98.71 8.45a17.668 17.668 0 0 0 2.17 2.83l-.04.13c-.66.19-1.35.36-2.08.5a27.278 27.278 0 0 1 -4.92.44h-.21c-.26 0-.52-.01-.78-.02l-3.5-4.49a6.8 6.8 0 0 1 -.63-.98 6.609 6.609 0 0 1 1.09-7.66l10.15-10.56z" fill="#661e0a"/></g><path d="m28 21.088c0 3.32-5.82 6-13 6a25.971 25.971 0 0 1 -6.36-.76 28.074 28.074 0 0 0 2.75-1.49 18.806 18.806 0 0 0 7.12-7.51 14.452 14.452 0 0 0 .8-1.9c5.06.82 8.69 3.05 8.69 5.66z" fill="#7f061b"/><path d="m58.46 41.218-21.92 21.92c-1.165 1.143-4.03 1.17-7.02-.27a24.309 24.309 0 0 1 -6.41-4.68c-5.08-5.08-7.29-11.1-4.95-13.44l4.24-4.24 12.73-12.73 2.03-2.03 2.92-2.92z" fill="#ec1c24"/><path d="m53.51 46.168-12.72 12.72c-2.32 2.32-8.2.19-13.24-4.76-.07-.06-.13-.12-.2-.19-5.08-5.07-7.29-11.09-4.95-13.43l12.73-12.73c-1.53 1.53-1.11 4.65.8 8.05a24.918 24.918 0 0 0 4.15 5.39c5.08 5.07 11.09 7.29 13.43 4.95z" fill="#faaf40"/><path d="m28.766 42.628 7.778 2.121 2.121 7.778-7.778-2.121z" fill="#ec1c24"/><path d="m58.46 41.218c-2.34 2.34-8.35.12-13.43-4.95a26.487 26.487 0 0 1 -2.61-3.03c-3.16-4.24-4.23-8.52-2.34-10.41 2.34-2.34 8.36-.13 13.43 4.95a25.591 25.591 0 0 1 3.93 5c2.1 3.55 2.62 6.84 1.02 8.44z" fill="#9b0d21"/><g opacity=".3"><path d="m40.25 29.653-4.32 6.176-5.01 6.68a17.1 17.1 0 0 0 -3.37 11.62 15.855 15.855 0 0 0 .48 2.89l.81 3.2.68 2.65a24.309 24.309 0 0 1 -6.41-4.68c-5.08-5.08-7.29-11.1-4.95-13.44l4.24-4.24 12.73-12.73 3.535-3.535a26.375 26.375 0 0 0 1.585 5.409z" fill="#e5e6e7"/></g><path d="m58.46 41.218c-2.34 2.34-8.35.12-13.43-4.95a26.487 26.487 0 0 1 -2.61-3.03 34.505 34.505 0 0 0 3.75 1.33c4.85 1.38 7.87.78 9.76-.43a6.266 6.266 0 0 0 1.51-1.36c2.1 3.55 2.62 6.84 1.02 8.44z" fill="#7f061b"/><path d="m16 21.092a1 1 0 0 1 -.8-.395c-1.875-2.462-2.609-4.752-2.184-6.809a14.492 14.492 0 0 1 1.184-3.134c.3-.643.607-1.307.86-1.994a6.952 6.952 0 0 0 .26-.893 1 1 0 1 1 1.953.426 8.792 8.792 0 0 1 -.336 1.156c-.281.767-.608 1.469-.924 2.147a13.156 13.156 0 0 0 -1.035 2.7c-.3 1.464.308 3.21 1.816 5.191a1 1 0 0 1 -.794 1.605z" fill="#661e0a"/><g fill="#ffdd17"><path d="m12 8.08a1 1 0 0 1 -.707-.293l-2-2a1 1 0 0 1 1.414-1.414l2 2a1 1 0 0 1 -.707 1.707z"/><path d="m20 9.08a1 1 0 0 1 -.448-1.895l2-1a1 1 0 1 1 .895 1.789l-2 1a1 1 0 0 1 -.447.106z"/><path d="m17 5.08a1 1 0 0 1 -1-1v-3.08a1 1 0 0 1 2 0v3.08a1 1 0 0 1 -1 1z"/></g><path d="m12 38.08h-1a1 1 0 0 1 0-2h1a1 1 0 0 1 0 2z" fill="#b26b0f"/><path d="m8 38.08h-1a1 1 0 0 1 0-2h1a1 1 0 0 1 0 2z" fill="#b26b0f"/><path d="m50.687 33.021a1.041 1.041 0 0 1 -.135-.009 1 1 0 0 1 -.857-1.125c.416-3.068 1.516-5.207 3.271-6.358a6.449 6.449 0 0 1 2.47-.911 7.944 7.944 0 0 0 1.9-.574 6.234 6.234 0 0 0 1.563-1.29c.14-.142.274-.278.4-.4a1 1 0 0 1 1.401 1.433c-.118.114-.241.239-.369.369a7.793 7.793 0 0 1 -2.147 1.7 9.853 9.853 0 0 1 -2.34.719 4.545 4.545 0 0 0 -1.775.624c-1.249.819-2.052 2.486-2.386 4.954a1 1 0 0 1 -.996.868z" fill="#661e0a"/><path d="m57 22.08a1 1 0 0 1 -.9-.553l-1-2a1 1 0 0 1 1.789-.895l1 2a1 1 0 0 1 -.889 1.448z" fill="#ffdd17"/><path d="m62 21.08a1 1 0 0 1 -.895-1.445l1-2.012a1 1 0 1 1 1.791.891l-1 2.012a1 1 0 0 1 -.896.554z" fill="#ffdd17"/><path d="m63 28.08a1 1 0 0 1 -.446-.105l-2-1a1 1 0 1 1 .895-1.789l2 1a1 1 0 0 1 -.449 1.894z" fill="#ffdd17"/></svg>