<svg height="512" viewBox="0 0 64 64" width="512" xmlns="http://www.w3.org/2000/svg"><path d="m38 51 1 6h-14l1-6h5z" fill="#ff7956"/><path d="m48 19v10c-4 0-4-4-8-4s-4 4-8 4-4-4-8-4-4 4-8 4v-22c4 0 4-4 8-4s4 4 8 4 4-4 8-4 4 4 8 4z" fill="#ff7956"/><path d="m61 17v28h-58v-28a1.973 1.973 0 0 1 1.93-2h11.07v14c4 0 4-4 8-4s4 4 8 4 4-4 8-4 4 4 8 4v-14h11.07a1.973 1.973 0 0 1 1.93 2z" fill="#57a4ff"/><g fill="#ffeb99"><circle cx="55" cy="39" r="2"/><path d="m41 57 3 4h-24l3-4h2 14z"/><circle cx="40" cy="35" r="2"/><circle cx="32" cy="39" r="2"/><path d="m31 45h-28v4a1.973 1.973 0 0 0 1.93 2h54.14a1.973 1.973 0 0 0 1.93-2v-4z"/><circle cx="24" cy="35" r="2"/><circle cx="9" cy="39" r="2"/></g><path d="m59.07 14h-10.07v-7a1 1 0 0 0 -1-1c-1.586 0-2.339-.753-3.293-1.707a5.978 5.978 0 0 0 -9.414 0c-.954.954-1.707 1.707-3.293 1.707s-2.339-.753-3.293-1.707a5.978 5.978 0 0 0 -9.414 0c-.954.954-1.707 1.707-3.293 1.707a1 1 0 0 0 -1 1v7h-10.07a2.969 2.969 0 0 0 -2.93 3v32a2.969 2.969 0 0 0 2.93 3h19.89l-.667 4h-1.153a1 1 0 0 0 -.8.4l-3 4a1 1 0 0 0 .8 1.6h24a1 1 0 0 0 .8-1.6l-3-4a1 1 0 0 0 -.8-.4h-1.153l-.667-4h19.89a2.969 2.969 0 0 0 2.93-3v-32a2.969 2.969 0 0 0 -2.93-3zm-42.07-6.079a6.574 6.574 0 0 0 3.707-2.214c.954-.954 1.707-1.707 3.293-1.707s2.339.753 3.293 1.707a5.978 5.978 0 0 0 9.414 0c.954-.954 1.707-1.707 3.293-1.707s2.339.753 3.293 1.707a6.574 6.574 0 0 0 3.707 2.214v19.96a5.064 5.064 0 0 1 -2.293-1.588 5.978 5.978 0 0 0 -9.414 0c-.954.954-1.707 1.707-3.293 1.707s-2.339-.753-3.293-1.707a5.978 5.978 0 0 0 -9.414 0 5.064 5.064 0 0 1 -2.293 1.588zm24 27.079a1 1 0 1 1 -1-1 1 1 0 0 1 1 1zm-8 4a1 1 0 1 1 -1-1 1 1 0 0 1 1 1zm-8-4a1 1 0 1 1 -1-1 1 1 0 0 1 1 1zm-20.07-19h10.07v2h-4a3 3 0 0 0 -3 3v15.184a3 3 0 1 0 2 0v-15.184a1 1 0 0 1 1-1h4v9a1 1 0 0 0 1 1 6.192 6.192 0 0 0 4.707-2.293 5.068 5.068 0 0 1 2.293-1.584v6.061a3 3 0 1 0 2 0v-6.061a5.068 5.068 0 0 1 2.293 1.584 6.594 6.594 0 0 0 3.707 2.206v6.271a3 3 0 1 0 2 0v-6.271a6.594 6.594 0 0 0 3.707-2.206 5.068 5.068 0 0 1 2.293-1.584v6.061a3 3 0 1 0 2 0v-6.061a5.068 5.068 0 0 1 2.293 1.584 6.192 6.192 0 0 0 4.707 2.293 1 1 0 0 0 1-1v-9h4a1 1 0 0 1 1 1v15.184a3 3 0 1 0 2 0v-15.184a3 3 0 0 0 -3-3h-4v-2h10.07a.98.98 0 0 1 .93 1v27h-56v-27a.98.98 0 0 1 .93-1zm5.07 23a1 1 0 1 1 -1-1 1 1 0 0 1 1 1zm46 0a1 1 0 1 1 -1-1 1 1 0 0 1 1 1zm-14 21h-20l1.5-2h17zm-4.181-4h-11.638l.666-4h10.306zm21.251-6h-54.14a.98.98 0 0 1 -.93-1v-3h56v3a.98.98 0 0 1 -.93 1z"/><path d="m31 47h2v2h-2z"/></svg>