<svg id="Capa_1" enable-background="new 0 0 512 512" height="512" viewBox="0 0 512 512" width="512" xmlns="http://www.w3.org/2000/svg"><g><g><g><path d="m140.033 471.366-14.355 28.711c-1.355 2.71-4.125 4.422-7.155 4.422h-15.245c-5.947 0-9.815-6.258-7.155-11.578l10.778-21.556v-8.033h33.134v8.034z" fill="#7d83ad"/><path d="m371.967 471.366 14.355 28.712c1.355 2.71 4.125 4.422 7.155 4.422h15.245c5.947 0 9.815-6.258 7.155-11.578l-10.777-21.556v-8.033h-33.133z" fill="#7d83ad"/><path d="m40.633 123.467c-18.299 0-33.132 14.834-33.132 33.132v281.636c0 18.299 14.834 33.132 33.132 33.132h430.732c18.298 0 33.132-14.834 33.132-33.132v-281.636c0-18.298-14.834-33.132-33.132-33.132z" fill="#868eaf"/><path d="m471.366 123.467h-23c18.298 0 33.132 14.834 33.132 33.132v281.636c0 18.299-14.834 33.133-33.132 33.133h23c18.298 0 33.132-14.834 33.132-33.133v-281.636c0-18.298-14.834-33.132-33.132-33.132z" fill="#7d83ad"/><path d="m471.366 123.467h-430.733c-18.298 0-33.132 14.834-33.132 33.132v248.501h496.997v-248.501c0-18.298-14.834-33.132-33.132-33.132z" fill="#a0c8ff"/><path d="m471.366 123.467h-23c18.298 0 33.132 14.834 33.132 33.132v248.501h23v-248.501c0-18.298-14.834-33.132-33.132-33.132z" fill="#91b2fa"/><g><path d="m380.533 322.267h-249.066c-4.418 0-8-3.582-8-8v-99.967c0-4.418 3.582-8 8-8h249.067c4.418 0 8 3.582 8 8v99.967c-.001 4.418-3.582 8-8.001 8z" fill="#89dd8e"/><path d="m380.533 206.3h-23c4.418 0 8 3.582 8 8v99.967c0 4.418-3.582 8-8 8h23c4.418 0 8-3.582 8-8v-99.967c0-4.418-3.581-8-8-8z" fill="#79d191"/></g></g></g><g><path d="m512 405.1c0-.013-.002-.026-.002-.039v-248.462c0-22.405-18.227-40.632-40.632-40.632h-430.732c-22.405 0-40.633 18.228-40.633 40.632v92.683c0 4.142 3.357 7.5 7.5 7.5s7.5-3.358 7.5-7.5v-92.683c0-14.134 11.499-25.632 25.633-25.632h430.732c14.134 0 25.632 11.498 25.632 25.632v241.001h-481.997v-118.318c0-4.142-3.357-7.5-7.5-7.5s-7.5 3.358-7.5 7.5v125.798c0 .007-.001.013-.001.019s.001.013.001.019v33.116c0 22.405 18.228 40.632 40.633 40.632h54.13l-11.139 22.279c-1.163 2.325-1.038 5.086.328 7.297s3.78 3.557 6.38 3.557h33.134c2.841 0 5.438-1.605 6.708-4.146l14.493-28.987h21.724c4.143 0 7.5-3.358 7.5-7.5s-3.357-7.5-7.5-7.5h-125.758c-14.134 0-25.633-11.499-25.633-25.632v-25.634h481.997v25.635c0 14.134-11.498 25.632-25.632 25.632h-274.974c-4.143 0-7.5 3.358-7.5 7.5s3.357 7.5 7.5 7.5h170.941l14.493 28.987c1.271 2.541 3.867 4.146 6.708 4.146h33.134c2.6 0 5.014-1.346 6.38-3.557s1.491-4.972.328-7.297l-11.14-22.279h54.131c22.404 0 40.632-18.228 40.632-40.632v-33.096c-.001-.013.001-.026.001-.039zm-393.169 91.9h-16.363l9.066-18.133h16.364zm290.7 0h-16.362l-9.067-18.133h16.363z"/><path d="m405.1 445.733c4.143 0 7.5-3.358 7.5-7.5s-3.357-7.5-7.5-7.5h-16.566c-4.143 0-7.5 3.358-7.5 7.5s3.357 7.5 7.5 7.5z"/><path d="m355.4 445.733c4.143 0 7.5-3.358 7.5-7.5s-3.357-7.5-7.5-7.5h-16.567c-4.143 0-7.5 3.358-7.5 7.5s3.357 7.5 7.5 7.5z"/><path d="m454.8 445.733c4.143 0 7.5-3.358 7.5-7.5s-3.357-7.5-7.5-7.5h-16.566c-4.143 0-7.5 3.358-7.5 7.5s3.357 7.5 7.5 7.5z"/><path d="m380.533 329.767c8.547 0 15.5-6.953 15.5-15.5v-99.967c0-8.547-6.953-15.5-15.5-15.5h-249.066c-8.547 0-15.5 6.953-15.5 15.5v99.967c0 8.547 6.953 15.5 15.5 15.5zm-249.566-15.5v-99.967c0-.276.225-.5.5-.5h249.066c.275 0 .5.224.5.5v99.967c0 .276-.225.5-.5.5h-249.066c-.276 0-.5-.224-.5-.5z"/><path d="m156.6 296.633h33.134c4.143 0 7.5-3.358 7.5-7.5s-3.357-7.5-7.5-7.5h-25.634v-42.2c0-4.142-3.357-7.5-7.5-7.5s-7.5 3.358-7.5 7.5v49.7c0 4.142 3.357 7.5 7.5 7.5z"/><path d="m222.867 296.633c4.143 0 7.5-3.358 7.5-7.5v-49.7c0-4.142-3.357-7.5-7.5-7.5s-7.5 3.358-7.5 7.5v49.7c0 4.142 3.358 7.5 7.5 7.5z"/><path d="m322.267 296.633h33.133c4.143 0 7.5-3.358 7.5-7.5s-3.357-7.5-7.5-7.5h-25.634v-9.85h17.351c4.143 0 7.5-3.358 7.5-7.5s-3.357-7.5-7.5-7.5h-17.351v-9.85h25.634c4.143 0 7.5-3.358 7.5-7.5s-3.357-7.5-7.5-7.5h-33.134c-4.143 0-7.5 3.358-7.5 7.5v49.7c.001 4.142 3.358 7.5 7.501 7.5z"/><path d="m265.451 291.505c1.021 3.063 3.887 5.128 7.115 5.128s6.095-2.066 7.115-5.128l16.566-49.7c1.31-3.93-.814-8.177-4.743-9.487-3.933-1.311-8.177.814-9.487 4.744l-9.451 28.354-9.451-28.354c-1.31-3.93-5.558-6.055-9.487-4.744-3.929 1.31-6.053 5.557-4.743 9.487z"/><path d="m172.678 44.466c1.657 0 3.325-.546 4.714-1.67 22.142-17.924 50.059-27.796 78.608-27.796 28.548 0 56.465 9.871 78.607 27.795 3.221 2.607 7.944 2.109 10.548-1.111 2.606-3.219 2.109-7.942-1.11-10.548-24.804-20.078-56.072-31.136-88.045-31.136s-63.241 11.058-88.046 31.137c-3.22 2.606-3.717 7.329-1.11 10.548 1.481 1.831 3.648 2.781 5.834 2.781z"/><path d="m323.107 74.207c2.03 0 4.054-.82 5.533-2.435 2.797-3.055 2.589-7.799-.466-10.596-19.746-18.084-45.379-28.043-72.174-28.043-26.793 0-52.424 9.958-72.172 28.04-3.056 2.797-3.265 7.542-.467 10.597s7.54 3.264 10.596.467c16.976-15.543 39.01-24.103 62.043-24.103 23.035 0 45.07 8.561 62.044 24.105 1.439 1.318 3.254 1.968 5.063 1.968z"/><path d="m256 66.267c-21.679 0-42.172 9.481-56.224 26.012-2.684 3.156-2.3 7.889.856 10.572s7.891 2.299 10.571-.857c11.199-13.173 27.527-20.727 44.797-20.727 17.272 0 33.6 7.555 44.797 20.729 1.484 1.745 3.594 2.643 5.719 2.643 1.717 0 3.442-.586 4.854-1.786 3.156-2.683 3.54-7.416.857-10.572-14.053-16.532-34.547-26.014-56.227-26.014z"/></g></g></svg>