<svg id="_x33_0" enable-background="new 0 0 64 64" height="512" viewBox="0 0 64 64" width="512" xmlns="http://www.w3.org/2000/svg"><g><g><g><path d="m29.75 53.53c-.56-.98-1.51-1.53-2.55-1.53-.77 0-1.51.31-2.05.85l-1.15 1.15h-14v-4h-8v-4.9c0-2.01.68-3.95 1.94-5.52 1.33-1.66 3.21-2.79 5.31-3.17l4.97-.9 2.78 6.49 5-4 5 4 2.78-6.49.56.1c-.22.41-.34.89-.34 1.39 0 .83.34 1.58.88 2.12s1.29.88 2.12.88h1.2c.4 1.96 1.37 3.71 2.73 5.07.87.87 1.89 1.57 3.03 2.07v.01l-.96 3.85-4.88.7c-1.39.2-2.73.71-3.91 1.49-.15.1-.31.21-.45.33z" fill="#fcd770"/></g><g><path d="m22 38-5 4-2.78-6.49 2.78-.51z" fill="#ffc729"/></g><g><path d="m29.78 35.51-2.78 6.49-5-4 5-3z" fill="#ffc729"/></g><g><path d="m30.21 53.19c1.18-.78 2.52-1.29 3.91-1.49l4.88-.7.34.5c1.04 1.56 2.79 2.5 4.66 2.5.94 0 1.84-.24 2.64-.66.8-.44 1.5-1.06 2.02-1.84l.34-.5 4.88.7c1.39.2 2.73.71 3.91 1.49 1.31.88 2.37 2.06 3.09 3.41s1.12 2.88 1.12 4.46v.94h-30c1.1 0 2.1-.45 2.83-1.17.72-.73 1.17-1.73 1.17-2.83 0-2.21-1.79-4-4-4h-2l-.2-.39c-.01-.03-.03-.06-.05-.08l.01-.01c.14-.12.3-.23.45-.33z" fill="#75b1f2"/></g><g><path d="m16.1 11.56-1.17.7c-1.82 1.08-2.93 3.04-2.93 5.15v.59h-1c-.8 0-1.53.32-2.06.82-.62-1.93-.94-3.95-.94-5.98 0-5.99 4.85-10.84 10.84-10.84h11.71c1.23 0 2.34.5 3.15 1.3.8.81 1.3 1.92 1.3 3.15 0 .37-.04.73-.13 1.08l-.87 3.47.48.48c.97.97 1.52 2.3 1.52 3.68 0 .55-.09 1.11-.27 1.64l-.67 2.02c-.54-.51-1.26-.82-2.06-.82h-1v-.23c0-1.01-.75-1.86-1.75-1.99l-10.97-1.37c-.94-.11-1.76-.57-2.34-1.24-.4-.45-.7-1-.84-1.61z" fill="#b27946"/></g><g><path d="m54 28c0 1.66-1.34 3-3 3h-6.9c-2.19 0-4.15-1.14-5.26-2.9l-1.44.86c-1.83 1.1-3.05 2.96-3.33 5.05l-.07-.01h-1c-.9 0-1.7.39-2.24 1.02l-.01-.01-.4-1.63c-.23-.92-.35-1.86-.35-2.8 0-1.08.14-2.13.4-3.14.3-1.17.76-2.28 1.37-3.3.53-.9 1.18-1.72 1.91-2.46.65-.64 1.37-1.22 2.14-1.71 1.95-1.25 4.27-1.97 6.76-1.97h2.84c6.95 0 12.58 5.63 12.58 12.58 0 .94-.12 1.88-.35 2.8l-.6 2.43c-.53-.5-1.25-.81-2.05-.81h-1z" fill="#656d78"/></g><g><path d="m10 54h14l1.15-1.15c.54-.54 1.28-.85 2.05-.85 1.04 0 1.99.55 2.55 1.53.02.02.04.05.05.08l.2.39h2c2.21 0 4 1.79 4 4 0 1.1-.45 2.1-1.17 2.83-.73.72-1.73 1.17-2.83 1.17h-23c-3.87 0-7-3.13-7-7v-5h8z" fill="#f0d0b4"/></g><g><path d="m57.05 35.81c.59.55.95 1.33.95 2.19 0 .83-.34 1.58-.88 2.12s-1.29.88-2.12.88h-1.46c.3-.95.46-1.95.46-3v-3h1c.8 0 1.52.31 2.05.81z" fill="#f0d0b4"/></g><g><path d="m48.04 47.15.96 3.85-.34.5c-.52.78-1.22 1.4-2.02 1.84-.8.42-1.7.66-2.64.66-1.87 0-3.62-.94-4.66-2.5l-.34-.5.96-3.85v-.01c1.23.56 2.6.86 4.04.86s2.81-.3 4.04-.86z" fill="#f0d0b4"/></g><g><path d="m54 28v7 3c0 1.05-.16 2.05-.46 3-.86 2.75-2.89 4.99-5.5 6.14-1.23.56-2.6.86-4.04.86s-2.81-.3-4.04-.86c-1.14-.5-2.16-1.2-3.03-2.07-1.36-1.36-2.33-3.11-2.73-5.07-.13-.64-.2-1.31-.2-2v-3.04c0-.32.02-.64.07-.95.28-2.09 1.5-3.95 3.33-5.05l1.44-.86c1.11 1.76 3.07 2.9 5.26 2.9h6.9c1.66 0 3-1.34 3-3z" fill="#f0d0b4"/></g><g><path d="m34 34.96v3.04c0 .69.07 1.36.2 2h-1.2c-.83 0-1.58-.34-2.12-.88s-.88-1.29-.88-2.12c0-.5.12-.98.34-1.39.12-.21.25-.41.42-.59.54-.63 1.34-1.02 2.24-1.02h1l.07.01c-.05.31-.07.63-.07.95z" fill="#f0d0b4"/></g><g><path d="m26.21 31.07.79 3.93-5 3-5-3 .78-3.92.01-.02c1.28.61 2.7.94 4.21.94s2.93-.34 4.21-.93z" fill="#f0d0b4"/></g><g><path d="m35.06 18.82c.34.32.6.71.76 1.15-.77.49-1.49 1.07-2.14 1.71-.73.74-1.38 1.56-1.91 2.46.15-.69.23-1.41.23-2.14v-4h1c.8 0 1.52.31 2.06.82z" fill="#f0d0b4"/></g><g><path d="m32 18v4c0 .73-.08 1.45-.23 2.14-.61 1.02-1.07 2.13-1.37 3.3-1.02 1.57-2.47 2.84-4.19 3.63-1.28.59-2.7.93-4.21.93s-2.93-.33-4.21-.94c-1.07-.49-2.04-1.17-2.86-1.99-1.36-1.36-2.33-3.11-2.73-5.07-.13-.64-.2-1.31-.2-2v-4-.59c0-2.11 1.11-4.07 2.93-5.15l1.17-.7c.14.61.44 1.16.84 1.61.58.67 1.4 1.13 2.34 1.24l10.97 1.37c1 .13 1.75.98 1.75 1.99z" fill="#f0d0b4"/></g><g><path d="m12.2 24h-1.2c-.83 0-1.58-.34-2.12-.88s-.88-1.29-.88-2.12c0-.86.36-1.63.94-2.18.53-.5 1.26-.82 2.06-.82h1v4c0 .69.07 1.36.2 2z" fill="#f0d0b4"/></g><g><path d="m18 24h8c0 2.21-1.79 4-4 4-1.1 0-2.1-.45-2.83-1.17-.72-.73-1.17-1.73-1.17-2.83z" fill="#ff826e"/></g></g><g><path d="m18 20c.552 0 1 .449 1 1h2c0-1.654-1.346-3-3-3s-3 1.346-3 3h2c0-.551.448-1 1-1z"/><path d="m26 20c.552 0 1 .449 1 1h2c0-1.654-1.346-3-3-3s-3 1.346-3 3h2c0-.551.448-1 1-1z"/><path d="m27 24v-1h-10v1c0 2.757 2.243 5 5 5s5-2.243 5-5zm-7.829 1h5.658c-.413 1.164-1.525 2-2.829 2s-2.416-.836-2.829-2z"/><path d="m40 36c.552 0 1 .449 1 1h2c0-1.654-1.346-3-3-3s-3 1.346-3 3h2c0-.551.448-1 1-1z"/><path d="m48 34c-1.654 0-3 1.346-3 3h2c0-.551.448-1 1-1s1 .449 1 1h2c0-1.654-1.346-3-3-3z"/><path d="m58.341 52.359c-1.291-.861-2.786-1.432-4.324-1.652l-4.21-.602-.604-2.417c2.284-1.232 4.078-3.251 5.033-5.688h.764c2.206 0 4-1.794 4-4 0-.925-.329-1.768-.858-2.446l.482-1.929c.25-.997.376-2.023.376-3.05 0-7.485-6.09-13.575-13.575-13.575h-2.85c-2.306 0-4.477.582-6.381 1.6-.002-.002-.003-.005-.005-.007l.493-1.476c.212-.633.318-1.293.318-1.961 0-1.658-.646-3.216-1.817-4.387l-.075-.075.73-2.92c.107-.434.162-.878.162-1.322 0-3.006-2.446-5.452-5.452-5.452h-11.71c-6.527 0-11.838 5.311-11.838 11.838 0 1.949.291 3.876.836 5.743-.517.674-.836 1.506-.836 2.419 0 2.206 1.794 4 4 4h.426c.805 2.832 2.711 5.201 5.232 6.608l-.506 2.53-7.079 1.287c-2.335.425-4.438 1.679-5.919 3.532-1.388 1.736-2.154 3.917-2.154 6.141v9.902c0 4.411 3.589 8 8 8h54v-1.936c0-3.506-1.742-6.761-4.659-8.705zm-10.418-1.546-.091.136c-.856 1.284-2.289 2.051-3.832 2.051s-2.976-.767-3.832-2.051l-.091-.136.584-2.335c1.054.337 2.175.522 3.339.522s2.285-.185 3.339-.522zm-3.923-3.813c-4.963 0-9-4.038-9-9v-3.037c0-2.095 1.116-4.067 2.913-5.145l.665-.399c1.338 1.588 3.336 2.581 5.521 2.581h6.901c.732 0 1.409-.212 2-.556v6.556c0 4.962-4.037 9-9 9zm11-7h-.191c.12-.65.191-1.316.191-2v-2c1.103 0 2 .897 2 2s-.897 2-2 2zm-9.575-21c6.383 0 11.575 5.192 11.575 11.575 0 .863-.106 1.726-.315 2.564l-.282 1.128c-.438-.165-.908-.267-1.403-.267v-6c0-2.206-1.794-4-4-4s-4 1.794-4 4h2c0-1.103.897-2 2-2s2 .897 2 2-.897 2-2 2h-6.901c-2.479 0-4.632-1.765-5.118-4.196l-1.961.392c.107.536.279 1.046.496 1.529l-.631.379c-1.823 1.093-3.115 2.876-3.632 4.896h-.253c-.582 0-1.131.131-1.631.356l-.054-.216c-.209-.839-.315-1.702-.315-2.565 0-6.383 5.192-11.575 11.575-11.575zm-10.93.693c-.526.391-1.031.809-1.495 1.27v-1.963c.586 0 1.122.269 1.495.693zm-5.119 13.932.207.829-1.735-.316-.505-2.524c.59-.328 1.141-.723 1.664-1.156 0 .04-.006.078-.006.117-.001 1.027.125 2.053.375 3.05zm-2.185 2.426 1.178.214-1.771 4.132-2.851-2.281zm5.809-1.051v3c0 .338.021.67.051 1h-.051c-1.103 0-2-.897-2-2s.897-2 2-2zm-22-12c-1.103 0-2-.897-2-2s.897-2 2-2v3c0 .338.021.67.051 1zm.027-6h-.027c-.513 0-1.001.106-1.452.283-.36-1.453-.548-2.943-.548-4.445 0-5.425 4.413-9.838 9.838-9.838h11.71c1.903 0 3.452 1.549 3.452 3.452 0 .281-.035.563-.103.837l-1.005 4.018.876.876c.795.794 1.232 1.849 1.232 2.973 0 .453-.072.9-.215 1.329l-.275.825c-.472-.194-.981-.31-1.51-.31h-.112c-.308-1.156-1.281-2.057-2.516-2.211l-10.971-1.372c-1.369-.17-2.401-1.34-2.401-2.72 0-1.182.753-2.228 1.874-2.601l.441-.147-.631-1.897-.442.147c-1.939.646-3.242 2.453-3.242 4.498 0 .114.023.222.031.334l-.613.365c-1.99 1.185-3.253 3.307-3.391 5.604zm1.973 5v-4.59c0-1.753.936-3.399 2.441-4.296l.176-.105c.717 1.275 1.999 2.2 3.536 2.392l10.971 1.372c.499.063.876.489.876.993v4.234c0 .617-.067 1.233-.191 1.834-.56.974-1 2.023-1.306 3.129-1.676 2.527-4.472 4.037-7.503 4.037-4.963 0-9-4.038-9-9zm9 11c1.199 0 2.362-.212 3.464-.578l.417 2.083-3.881 2.329-3.881-2.329.415-2.073c1.091.363 2.254.568 3.466.568zm-5.192 3.051 3.444 2.066-2.851 2.281-1.771-4.133zm-12.091 4.155c1.18-1.476 2.854-2.475 4.714-2.813l4.181-.76 2.987 6.97 4.401-3.522v8.919h2v-8.919l4.401 3.521 2.053-4.79c.664 1.292 1.996 2.188 3.546 2.188h.426c.82 2.884 2.781 5.291 5.371 6.688l-.604 2.417-4.21.602c-1.412.202-2.78.712-3.994 1.458-.721-.737-1.714-1.165-2.785-1.165-1.044 0-2.025.406-2.763 1.144l-.855.856h-12.586v-7.236l-1.105-2.211-1.789.895.894 1.788v2.764h-6v-3.902c0-1.771.609-3.509 1.717-4.892zm4.283 20.794c-3.309 0-6-2.691-6-6v-4h6v2h-2v2h17.414l1.441-1.442c.36-.36.839-.558 1.349-.558.727 0 1.38.404 1.705 1.053l.472.947h2.619c1.654 0 3 1.346 3 3s-1.346 3-3 3zm26.974 0c.635-.838 1.026-1.87 1.026-3 0-2.511-1.868-4.576-4.283-4.928.505-.174 1.023-.311 1.55-.386l4.253-.607c1.229 1.829 3.276 2.921 5.48 2.921s4.251-1.092 5.481-2.921l4.253.607c1.244.178 2.454.641 3.498 1.337 2.341 1.561 3.747 4.165 3.768 6.977z"/><path d="m47 40.838c-.432 1.293-1.637 2.162-3 2.162s-2.568-.869-3-2.165l-.052-.154-1.896.638.052.151c.703 2.112 2.67 3.53 4.896 3.53s4.193-1.418 4.896-3.527l.052-.154-1.896-.638z"/></g></g></svg>