<svg id="Layer_5" enable-background="new 0 0 64 64" height="512" viewBox="0 0 64 64" width="512" xmlns="http://www.w3.org/2000/svg"><g><g><g><path d="m38 42v20h-34v-20z" fill="#ccd1d9"/></g><g><path d="m8 48h10v8h-10z" fill="#69d6f4"/></g><g><path d="m24 48h10v8h-10z" fill="#69d6f4"/></g><g><path d="m38 42h-34-2v-6h34.27c-.41.7-.36 1.6.18 2.27.38.46.95.73 1.55.73z" fill="#ff826e"/></g><g><path d="m45.84 28-9.11 7.45c-.19.16-.35.35-.46.55h-34.27l4.99-3.99 5.01-4.01h15.66z" fill="#ff826e"/></g><g><path d="m40 19v2h-12v-4h10c1.1 0 2 .9 2 2z" fill="#a0d468"/></g><g><path d="m59 13 3 4-3 4h-1l-2-3h-1l-2 3h-1l-2-3h-1l-2 3h-1l-2-3h-1l-2 3h-1v-2c0-1.1-.9-2-2-2h-10v-4z" fill="#b4dd7f"/></g><g><path d="m28 21v5c0 .7-.12 1.38-.34 2h-15.66l-5.01 4.01-.09-.11c-2.79-.52-4.9-2.96-4.9-5.9v-18c0-3.31 2.69-6 6-6h14c3.31 0 6 2.69 6 6v5 4zm-14 1v-10c0-1.1-.9-2-2-2h-2c-1.1 0-2 .9-2 2v10c0 1.1.9 2 2 2h2c1.1 0 2-.9 2-2z" fill="#a0d468"/></g><g><path d="m58.74 38.55-9.74-7.97-9.73 7.97c-.36.29-.81.45-1.27.45v3 20h22v-23c-.46 0-.91-.16-1.26-.45z" fill="#ccd1d9"/></g><g><path d="m49 44c-1.94 0-3.68.78-4.95 2.05s-2.05 3.01-2.05 4.95v11h14v-11c0-3.87-3.13-7-7-7z" fill="#e6e9ed"/></g><g><path d="m46 50h6v12h-6z" fill="#cf9e76"/></g><g><path d="m36.27 36c.11-.2.27-.39.46-.55l9.11-7.45 1.89-1.55c.36-.29.81-.45 1.27-.45s.91.16 1.27.45l11 9c.85.7.98 1.96.28 2.82-.38.46-.95.73-1.55.73-.46 0-.91-.16-1.26-.45l-9.74-7.97-9.73 7.97c-.36.29-.81.45-1.27.45-.6 0-1.17-.27-1.55-.73-.54-.67-.59-1.57-.18-2.27z" fill="#fc6e51"/></g></g><g><path d="m7 57h12v-10h-12zm2-8h8v6h-8z"/><path d="m23 47v10h12v-10zm10 8h-8v-6h8z"/><path d="m15 22v-10c0-1.654-1.346-3-3-3h-2c-1.654 0-3 1.346-3 3v10c0 1.654 1.346 3 3 3h2c1.654 0 3-1.346 3-3zm-6 0v-10c0-.552.448-1 1-1h2c.552 0 1 .448 1 1v10c0 .552-.448 1-1 1h-2c-.552 0-1-.448-1-1z"/><path d="m50.901 25.68c-1.066-.877-2.737-.874-3.8-.003l-1.617 1.323h-16.569c.048-.33.085-.663.085-1v-4h12.535l1.965-2.947 1.965 2.947h2.07l1.965-2.947 1.965 2.947h2.07l1.965-2.947 1.965 2.947h2.035l3.75-5-3.75-5h-30.5v-4c0-3.859-3.141-7-7-7h-14c-3.859 0-7 3.141-7 7v18c0 2.758 1.621 5.173 4.016 6.306l-4.016 3.214v7.48h2v20h58v-23.19c.509-.181.97-.481 1.321-.91 1.048-1.279.858-3.174-.423-4.224zm-2.532 1.544c.351-.289.906-.29 1.265.003l10.998 8.998c.428.351.491.982.142 1.409-.336.408-.993.478-1.405.141l-10.369-8.483-10.364 8.48c-.419.339-1.075.271-1.411-.141-.349-.426-.284-1.057.142-1.405zm-12.269 7.455c-1.28 1.049-1.469 2.941-.423 4.219.347.427.814.721 1.323.893v1.209h-34v-4h30v-2h-28.149l7.5-6h30.689zm2.9-14.679h-10v-2h9c.552 0 1 .448 1 1zm19.5-6 2.25 3-2.231 2.976-1.984-2.976h-2.07l-1.965 2.947-1.965-2.947h-2.07l-1.965 2.947-1.965-2.947h-2.07l-1.465 2.197v-.197c0-1.654-1.346-3-3-3h-9v-2zm-55.5 12v-18c0-2.757 2.243-5 5-5h14c2.757 0 5 2.243 5 5v18c0 .34-.044.672-.111 1h-15.24l-4.81 3.848c-2.236-.533-3.839-2.524-3.839-4.848zm2 17h32v18h-32zm50 18h-2v-12h-8v12h-2v-10c0-3.309 2.691-6 6-6s6 2.691 6 6zm-4 0h-4v-10h4zm6 0v-10c0-4.411-3.589-8-8-8s-8 3.589-8 8v10h-2v-21.2c.321-.107.628-.258.898-.477l9.102-7.447 9.103 7.447c.269.22.574.389.897.504v21.173z"/></g></g></svg>