<svg id="Layer_5" enable-background="new 0 0 64 64" height="512" viewBox="0 0 64 64" width="512" xmlns="http://www.w3.org/2000/svg"><g><g><g><path d="m42 56.02h16v6h-16z" fill="#969faa"/></g><g><path d="m4 56.02h16v6h-16z" fill="#d3a06c"/></g><g><path d="m5.49 50.49c.97.97 2.27 1.51 3.63 1.51h10.88v.02 4h-16v-9.08c0 1.32.52 2.58 1.46 3.51z" fill="#75b1f2"/></g><g><path d="m10 46v-4.6c0-3.28-1.73-6.32-4.54-8 .7-.8 1.6-1.42 2.64-1.77l1.9-.63 3 4 2-2c1.51.6 2.76 1.64 3.63 2.93s1.37 2.83 1.37 4.46v5.61l-9.76.02c-.08 0-.16 0-.24.02z" fill="#75b1f2"/></g><g><path d="m58 46.94v9.08h-16v-4-.02h10.88c1.36 0 2.66-.54 3.63-1.51l.03-.04c.94-.93 1.46-2.19 1.46-3.51z" fill="#ff826e"/></g><g><path d="m58 40v2h-6-2v-5c0-.73.2-1.41.54-2 .69-1.2 1.98-2 3.46-2 1.1 0 2.1.45 2.83 1.17.72.73 1.17 1.73 1.17 2.83z" fill="#ff826e"/></g><g><path d="m52 42v3.02c0 .55-.45 1-1 1l-9-.02v-5.17c0-1.81.48-3.55 1.34-5.07.86-1.53 2.11-2.83 3.66-3.76 0 1.66 1.34 3 3 3h.54c-.34.59-.54 1.27-.54 2v5z" fill="#ff826e"/></g><g><path d="m34 50.04c0 1.08.88 1.96 1.96 1.96h2.04v2c0 1.1-.9 2-2 2h-3c-1.1 0-2-.9-2-2v-14c0-1.1.9-2 2-2h3c1.1 0 2 .9 2 2v4.41.01c-.22.16-.41.39-.54.65l-.46.93h-1c-1.1 0-2 .89-2 2.26z" fill="#ccd1d9"/></g><g><path d="m31 40v14c0 1.1-.9 2-2 2h-3c-1.1 0-2-.9-2-2v-2h2.03c1.09 0 1.97-.88 1.97-1.97v-2.03c0-1.1-.9-2-2-2h-1l-.46-.93c-.13-.26-.32-.49-.54-.65v-.01-4.41c0-1.1.9-2 2-2h3c1.1 0 2 .9 2 2z" fill="#ccd1d9"/></g><g><path d="m14.54 10c.69-1.2 1.98-2 3.46-2 .64 0 1.24.15 1.78.42 1.32.65 2.22 2.01 2.22 3.58 0 .41-.06.81-.18 1.19-.51 1.63-2.02 2.81-3.82 2.81h-1.08-.92-4c-1.1 0-2 .9-2 2v2c-.55 0-1.05.22-1.41.59-.37.36-.59.86-.59 1.41v.17c0 .53.21 1.04.59 1.42l1.41 1.41v5l-4.27-3.2c-1.17-.88-2.11-2.01-2.75-3.29s-.98-2.71-.98-4.18c0-5.15 4.18-9.33 9.33-9.33z" fill="#b27946"/></g><g><path d="m62 34.76v.12c0 2.42-1.65 4.53-4 5.12v-3c0-1.1-.45-2.1-1.17-2.83-.73-.72-1.73-1.17-2.83-1.17l-1-3v-4l1.41-1.41c.38-.38.59-.89.59-1.42v-.17c0-.56-.22-1.06-.59-1.42-.36-.36-.86-.58-1.41-.58v-2c0-2.21-1.79-4-4-4h-6c.15-.92.48-1.77.94-2.53 1.26-2.1 3.56-3.47 6.14-3.47h1.74c3.97 0 7.18 3.21 7.18 7.18v10.43c0 1.55.5 3.06 1.44 4.3l.5.68c.69.92 1.06 2.03 1.06 3.17z" fill="#656d78"/></g><g><path d="m43 15c.15-.92.48-1.77.94-2.53h-.01l-.5-.12c-.2-.64-.47-1.25-.77-1.84l1.36-2.29-4.24-4.24-2.29 1.36c-.59-.3-1.2-.57-1.84-.77l-.65-2.57h-6l-.65 2.57c-.64.2-1.25.47-1.84.77l-2.29-1.36-4.44 4.44c1.32.65 2.22 2.01 2.22 3.58 0 .41-.06.81-.18 1.19-.51 1.63-2.02 2.81-3.82 2.81h-1.08c.7 0 1.35.36 1.71.96.86 1.45 2.31 4.39 2.36 7.84h.01l3.22 3.22 2.29-1.36c.59.3 1.2.57 1.84.77l.65 2.57h6l.65-2.57c.64-.2 1.25-.47 1.84-.77l2.29 1.36 3.32-3.32-2.1-.7c0-1.9.29-3.65.64-5.1.59-2.36 1.36-3.9 1.36-3.9zm-11 9c-4.42 0-8-3.58-8-8 0-.97.17-1.89.49-2.75 1.12-3.06 4.06-5.25 7.51-5.25 4.42 0 8 3.58 8 8 0 .83-.13 1.63-.36 2.38-1.01 3.26-4.05 5.62-7.64 5.62z" fill="#fcd770"/></g><g><path d="m15 29.97v3.03l-2 2-3-4v-1-5l-1.41-1.41c-.38-.38-.59-.89-.59-1.42v-.17c0-.55.22-1.05.59-1.41.36-.37.86-.59 1.41-.59v-2c0-1.1.9-2 2-2h4 .92c.7 0 1.35.36 1.71.96.86 1.45 2.31 4.39 2.36 7.84.01.06.01.13.01.2l-3 1v.61c.01.89-.34 1.74-.97 2.36l-.02.03c-.55.54-1.26.88-2.01.97z" fill="#f0d0b4"/></g><g><path d="m10 46.04c.08-.02.16-.02.24-.02l9.76-.02 1.43-1.43c.37-.37.86-.57 1.37-.57.45 0 .87.15 1.2.41v.01c.22.16.41.39.54.65l.46.93h1c1.1 0 2 .9 2 2v2.03c0 1.09-.88 1.97-1.97 1.97-.65 0-1.33 0-2.03 0-1.29 0-2.64 0-4 0-4.29 0-8.6 0-10.88 0-1.36 0-2.66-.54-3.63-1.51l-.03-.04c-.94-.93-1.46-2.19-1.46-3.51v-1.92-7.7c0-1.48.54-2.86 1.46-3.92 2.81 1.68 4.54 4.72 4.54 8v4.6z" fill="#f0d0b4"/></g><g><path d="m58 45.02v1.92c0 1.32-.52 2.58-1.46 3.51l-.03.04c-.97.97-2.27 1.51-3.63 1.51-2.28 0-6.59 0-10.88 0-1.36 0-2.71 0-4 0-.7 0-1.39 0-2.04 0-1.08 0-1.96-.88-1.96-1.96v-1.78c0-1.37.9-2.26 2-2.26h1l.46-.93c.13-.26.32-.49.54-.65v-.01c.33-.26.75-.41 1.2-.41.51 0 1 .2 1.37.57l1.43 1.43 9 .02c.55 0 1-.45 1-1v-3.02h6z" fill="#f0d0b4"/></g><g><path d="m53 26v4l1 3c-1.48 0-2.77.8-3.46 2h-.54c-1.66 0-3-1.34-3-3v-3-.03c-.75-.09-1.46-.43-2-.97-.64-.64-1-1.51-1-2.41v-.59l-.9-.3-2.1-.7c0-1.9.29-3.65.64-5.1.59-2.36 1.36-3.9 1.36-3.9h6c2.21 0 4 1.79 4 4v2c.55 0 1.05.22 1.41.58.37.36.59.86.59 1.42v.17c0 .53-.21 1.04-.59 1.42z" fill="#f0d0b4"/></g></g><g><circle cx="17" cy="20.999" r="1"/><circle cx="46" cy="19" r="1"/><path d="m61.744 30.992-.508-.677c-.797-1.063-1.236-2.38-1.236-3.709v-10.426c0-4.511-3.669-8.18-8.18-8.18h-1.737c-2.455 0-4.673 1.078-6.181 2.818-.039-.088-.063-.177-.104-.265l1.48-2.489-5.342-5.342-2.49 1.48c-.317-.147-.636-.281-.956-.4l-.713-2.802h-7.555l-.712 2.802c-.319.119-.639.252-.956.4l-2.49-1.48-4.541 4.541c-.483-.156-.988-.263-1.523-.263-1.627 0-3.061.793-3.974 2h-2.693c-5.698 0-10.333 4.635-10.333 10.333 0 3.235 1.545 6.325 4.133 8.266l3.664 2.748-1.01.336c-2.862.955-4.786 3.624-4.787 6.641v7.692 18h18v-10.016h2v1c0 1.654 1.346 3 3 3h3c.771 0 1.468-.301 2-.78.532.48 1.229.78 2 .78h3c1.654 0 3-1.346 3-3v-1h2v10.016h18v-18-4.306c2.386-.93 4-3.218 4-5.834v-.116c0-1.35-.446-2.688-1.256-3.768zm-8.744-8.992c.551 0 1 .449 1 1v.171c0 .267-.104.518-.293.707l-1.707 1.707v4.577l.679 2.037c-1.074.297-1.999.935-2.654 1.8h-.025c-1.103 0-2-.897-2-2v-2h2v-2h-2.586c-.635 0-1.258-.258-1.707-.707-.456-.456-.707-1.063-.707-1.707v-1.306l-2.986-.995c.133-3.336 1.155-6.139 1.634-7.284h5.352c1.654 0 3 1.346 3 3v3zm4 15v4h-6v-4c0-1.654 1.346-3 3-3s2.999 1.346 3 3zm-21 0h-3c-.771 0-1.468.301-2 .78-.532-.48-1.229-.78-2-.78h-3c-1.654 0-3 1.346-3 3v3.014c-.066-.005-.131-.014-.197-.014-.664 0-1.287.23-1.802.634v-3.249c0-3.452-1.941-6.535-5-8.035v-1.603c.638-.218 1.233-.567 1.737-1.071.781-.781 1.238-1.853 1.264-2.957l1.879-.627 3.184 3.184 2.49-1.48c.317.147.636.281.956.4l.712 2.804h7.555l.713-2.802c.319-.119.639-.252.956-.4l2.49 1.48 3.121-3.121c.125.96.54 1.853 1.237 2.55.487.487 1.073.828 1.707 1.043v1.702c-3.099 2.084-5.001 5.626-5.001 9.38v2.802c-.516-.404-1.14-.634-1.804-.634-.067 0-.131.009-.197.014v-3.014c0-1.654-1.346-3-3-3zm-30.291-2.216c2.047 1.56 3.292 4.015 3.292 6.617v3.881c-.617.278-1.132.762-1.449 1.395l-.447.893 1.789.895.447-.894c.171-.342.515-.554.898-.555l10.176-.016 1.725-1.725c.43-.429 1.23-.299 1.501.244l.741 1.481h1.618c.551 0 1 .449 1 1v2.028c0 .536-.433.972-.965.972h-16.917c-1.098 0-2.133-.432-2.955-1.252-.75-.75-1.163-1.748-1.163-2.809v-9.615c.001-.92.263-1.786.709-2.54zm3.585-11.905c-.189-.189-.293-.44-.293-.708v-.171c0-.551.449-1 1-1h1v-3c0-.551.449-1 1-1h3.999.917c.351 0 .677.181.85.473.773 1.298 2.032 3.834 2.212 6.813l-2.981.993.004 1.336c.002.613-.245 1.213-.704 1.672-.46.46-1.069.713-1.714.713-.001 0-.002 0-.002 0h-1.581v2l1 .001v1.585l-.892.892-2.108-2.811v-6.081zm33.705 17.953c0-2.777 1.272-5.406 3.381-7.157.518 1.114 1.526 1.951 2.751 2.224-.08.355-.131.721-.131 1.101v6h2v2.016l-8.001-.014zm-18.62-35.596 2.095 1.246.493-.254c.558-.288 1.124-.525 1.683-.704l.528-.169.599-2.355h4.445l.599 2.354.528.169c.56.179 1.125.416 1.683.704l.493.254 2.095-1.246 3.143 3.143-1.246 2.095.254.493c.288.559.525 1.125.704 1.684l.095.298c-.233.544-.41 1.12-.523 1.723-.333.706-2.047 4.555-2.047 9.329v.721l1.248.416-1.627 1.628-2.095-1.246-.493.254c-.558.288-1.124.525-1.683.704l-.528.169-.599 2.354h-4.445l-.599-2.354-.528-.169c-.56-.179-1.125-.416-1.683-.704l-.493-.254-2.095 1.246-2.41-2.41c-.158-3.303-1.449-6.103-2.338-7.65 1.953-.681 3.368-2.522 3.368-4.705 0-1.477-.656-2.792-1.677-3.708zm-21.379 14.097c0-4.595 3.738-8.333 8.333-8.333h1.768c-.066.323-.101.658-.101 1v1h2v-1c0-1.654 1.346-3 3-3s3 1.346 3 3-1.346 3-3 3h-1.083-.917-3.999c-1.654 0-3 1.346-3 3v1.171c-1.164.413-2 1.525-2 2.829v.171c0 .801.312 1.555.879 2.122l1.121 1.121v2.587l-2.668-2.001c-2.087-1.566-3.333-4.058-3.333-6.667zm5.419 13.248 1.214-.405 3.259 4.346 2.312-2.312c2.319 1.182 3.796 3.531 3.796 6.175v4.616l-8 .013v-3.614c0-3.172-1.486-6.174-3.947-8.113.41-.298.867-.54 1.366-.706zm-3.419 28.436v-4h14v4zm14-6h-14v-3.623c1.134 1.034 2.582 1.606 4.118 1.606h9.882zm10-.017h-3c-.551 0-1-.449-1-1v-1h1.035c1.635 0 2.965-1.333 2.965-2.972v-2.028c0-1.654-1.346-3-3-3h-.382l-.188-.376c-.117-.234-.263-.444-.43-.634v-3.99c0-.551.449-1 1-1h3c.551 0 1 .449 1 1v14c0 .551-.449 1-1 1zm8-1c0 .551-.449 1-1 1h-3c-.551 0-1-.449-1-1v-14c0-.551.449-1 1-1h3c.551 0 1 .449 1 1v3.991c-.167.189-.313.4-.43.633l-.188.376h-.382c-1.71 0-3 1.403-3 3.263v1.777c0 1.632 1.327 2.96 2.959 2.96h1.041zm15.883-1c1.521 0 2.958-.563 4.117-1.61v3.626h-14v-2.016zm-9.883 8.017v-4h14v4zm14-14.078c0 1.061-.413 2.059-1.201 2.846-.783.784-1.819 1.215-2.916 1.215h-16.924c-.529 0-.959-.431-.959-.96v-1.777c0-.755.402-1.263 1-1.263h1.618l.741-1.482c.271-.543 1.07-.673 1.501-.244l1.725 1.726 9.411.016h.004c.534 0 1.035-.208 1.413-.584.379-.379.587-.881.587-1.416v-2.016h4v2.017zm4-12.063c0 1.504-.782 2.85-2 3.617v-1.493c0-2.501-1.853-4.56-4.254-4.924l-.746-2.238v-3.424l1.121-1.121c.567-.567.879-1.32.879-2.122v-.171c0-1.304-.836-2.416-2-2.829v-1.171c0-2.757-2.243-5-5-5h-4.694c.89-2.373 3.154-4 5.777-4h1.737c3.408 0 6.18 2.772 6.18 6.18v10.426c0 1.758.581 3.501 1.636 4.908l.508.677c.552.737.856 1.649.856 2.569z"/><path d="m32 25c4.962 0 9-4.038 9-9s-4.038-9-9-9-9 4.038-9 9 4.038 9 9 9zm0-16c3.86 0 7 3.14 7 7s-3.14 7-7 7-7-3.14-7-7 3.14-7 7-7z"/></g></g></svg>