<svg id="Layer_1_copy" height="512" viewBox="0 0 512 512" width="512" xmlns="http://www.w3.org/2000/svg" data-name="Layer 1 copy"><path d="m504 512v-128l-72-32h-344l-80 32v128" fill="#8f4c2e"/><path d="m216 512v-8l-32-152h-32l-40 72 64 64h-32v24z" fill="#a05a3f"/><path d="m295.667 512v-8l32.333-152h32l40 72-64 64h32v24z" fill="#a05a3f"/><path d="m232 512v-56l-16-40 40-24 40 24-16 40v56" fill="#435e7a"/><path d="m256 392-40 24 16 40h48l16-40z" fill="#354458"/><path d="m328 352-16.394 77.07-55.606-37.07-55.754 37.169-16.246-77.169z" fill="#fff"/><path d="m200 312-48-16v-24l-32-24v-24l-16-16v-48l48-32v-64l64-56h72l72 48v72l48 32v40l-24 16v32l-24 24v24l-48 16" fill="#96aaaa"/><path d="m200 264v88l56 40 56-40v-88z" fill="#fdcaa7"/><path d="m200 337.347c52.244 18.922 94.943-7.19 112-20.387v-36.875h-112z" fill="#eaa475"/><path d="m336 256-56 48h-48l-56-48v-168l32-24 48 8 56-8 24 24z" fill="#fdcaa7"/><g opacity=".3"><path d="m291.02 294.56-11.02 9.44h-48l-56-48v-168l32-24 8.99 1.5v147.82a50.135 50.135 0 0 0 20.6 42.39z" fill="#f9f2ed"/></g><path d="m272 216h-16a8 8 0 0 1 -8-8v-56h16v48h8z" fill="#8f4c2e"/><path d="m248 248h16v16h-16z" fill="#eaa475"/><path d="m234.343 149.657-5.656-5.657h-28.687v-16h32a8 8 0 0 1 5.657 2.343l8 8z" fill="#8f4c2e"/><path d="m277.657 149.657-11.313-11.313 8-8a8 8 0 0 1 5.656-2.344h32v16h-28.687z" fill="#8f4c2e"/><g fill="#231f20"><path d="m232 200h-32a8 8 0 0 1 -7.761-6.06l-8-32a8 8 0 0 1 7.761-9.94h40a8 8 0 0 1 8 8v32a8 8 0 0 1 -8 8zm-25.754-16h17.754v-16h-21.754z"/><path d="m312 200h-32a8 8 0 0 1 -8-8v-32a8 8 0 0 1 8-8h40a8 8 0 0 1 7.761 9.94l-8 32a8 8 0 0 1 -7.761 6.06zm-24-16h17.754l4-16h-21.754z"/><path d="m232 152h48v16h-48z"/></g><path d="m312 248h-24a8 8 0 0 1 -7.155-4.422l-5.789-11.578h-38.112l-5.789 11.578a8 8 0 0 1 -7.155 4.422h-24v-16h19.056l5.789-11.578a8 8 0 0 1 7.155-4.422h48a8 8 0 0 1 7.155 4.422l5.789 11.578h19.056z" fill="#8f4c2e"/><path d="m240 112h40v16h-40z" fill="#eaa475"/><path d="m240 88h40v16h-40z" fill="#eaa475"/><path d="m232 160h-40l8 32h32z" fill="#dff7f7"/><path d="m280 160h40l-8 32h-32z" fill="#dff7f7"/><path d="m326.306 155.077a8 8 0 0 0 -6.306-3.077h-128a8 8 0 0 0 -7.761 9.94l8 32a8 8 0 0 0 7.761 6.06h32a8 8 0 0 0 8-8v-24h32v24a8 8 0 0 0 8 8h32a8 8 0 0 0 7.761-6.06l8-32a8 8 0 0 0 -1.455-6.863zm-102.306 28.923h-17.754l-4-16h21.754zm81.754 0h-17.754v-16h21.754z" fill="#354458"/></svg>