<?xml version="1.0" encoding="iso-8859-1"?>
<!-- Generator: Adobe Illustrator 19.0.0, SVG Export Plug-In . SVG Version: 6.00 Build 0)  -->
<svg xmlns="http://www.w3.org/2000/svg" xmlns:xlink="http://www.w3.org/1999/xlink" version="1.1" id="Layer_1" x="0px" y="0px" viewBox="0 0 512 512" style="enable-background:new 0 0 512 512;" xml:space="preserve" width="512" height="512">
<g id="XMLID_1991_">
	<polygon id="XMLID_1895_" style="fill:#FFCB78;" points="437.075,241.131 502,356 354.323,356 181.667,356 10,356 75.187,241.131     "/>
	<g id="XMLID_1867_">
		<path id="XMLID_1912_" style="fill:#FFFFFF;" d="M412.001,356V70c0-11.046-8.954-20-20-20H119.999c-11.046,0-20,8.954-20,20v286    H412.001z"/>
		<path id="XMLID_1906_" style="fill:#E8E7E9;" d="M380,50V30c0-11.046-8.954-20-20-20H152c-11.046,0-20,8.954-20,20v20H380z"/>
		<path id="XMLID_1891_" style="fill:#FFBE52;" d="M286.99,356c0,17.121-13.879,31-31,31c-17.121,0-31-13.879-31-31H10v146h492V356    H286.99z"/>
		<rect id="XMLID_1104_" x="156.186" y="98" style="fill:#FF7480;" width="199.95" height="72"/>
	</g>
	<g id="XMLID_564_">
		<path id="XMLID_581_" d="M356.137,88h-199.95c-5.522,0-10,4.477-10,10v72c0,5.523,4.478,10,10,10h199.95c5.522,0,10-4.477,10-10    V98C366.137,92.477,361.659,88,356.137,88z M346.137,160h-179.95v-52h179.95V160z"/>
		<path id="XMLID_585_" d="M156.137,236h199.95c5.522,0,10-4.477,10-10s-4.478-10-10-10h-199.95c-5.522,0-10,4.477-10,10    S150.614,236,156.137,236z"/>
		<path id="XMLID_586_" d="M356.137,271.999h-0.109c-5.522,0-10,4.478-10,10s4.478,10,10,10h0.109c5.522,0,10-4.478,10-10    S361.659,271.999,356.137,271.999z"/>
		<path id="XMLID_587_" d="M316.137,272h-160c-5.522,0-10,4.478-10,10s4.478,10,10,10h160c5.522,0,10-4.478,10-10    S321.659,272,316.137,272z"/>
		<path id="XMLID_590_" d="M510.701,351.083c0.002-0.001,0.003-0.002,0.005-0.003l-64.925-114.868    c-1.774-3.139-5.101-5.08-8.706-5.08h-15.074V70c0-16.542-13.458-30-30-30H390V30c0-16.542-13.458-30-30-30H152    c-16.542,0-30,13.458-30,30v10h-2.001c-16.542,0-30,13.458-30,30v161.131H75.187c-3.6,0-6.921,1.934-8.697,5.064L1.303,351.064    c0.002,0,0.004,0.001,0.006,0.002C0.48,352.523,0,354.204,0,356v146c0,5.522,4.478,10,10,10h45.833c5.522,0,10-4.478,10-10    s-4.478-10-10-10H20V366h161.667h34.556c4.476,17.79,20.607,31,39.767,31s35.291-13.21,39.767-31h58.567H492v126H135.833    c-5.522,0-10,4.478-10,10s4.478,10,10,10H502c5.522,0,10-4.478,10-10V356C512,354.211,511.524,352.536,510.701,351.083z M142,30    c0-5.514,4.486-10,10-10h208c5.514,0,10,4.486,10,10v10H142V30z M81.01,251.131h8.989V346H27.173L81.01,251.131z M286.989,346    c-5.522,0-10,4.478-10,10c0,11.579-9.421,21-21,21s-21-9.421-21-21c0-5.522-4.478-10-10-10h-43.322h-71.668V70    c0-5.514,4.486-10,10-10h272.002c5.514,0,10,4.486,10,10v276h-47.678H286.989z M422.001,346v-94.869h9.239L484.861,346H422.001z"/>
		<path id="XMLID_966_" d="M172.979,404.167c-5.522,0-10,4.478-10,10v29.666c0,5.522,4.478,10,10,10H339c5.522,0,10-4.478,10-10    v-29.666c0-5.522-4.478-10-10-10s-10,4.478-10,10v19.666H182.979v-19.666C182.979,408.645,178.502,404.167,172.979,404.167z"/>
		<path id="XMLID_967_" d="M95.83,492c-2.63,0-5.21,1.069-7.07,2.93s-2.93,4.44-2.93,7.07s1.069,5.21,2.93,7.069    c1.86,1.86,4.44,2.931,7.07,2.931c2.64,0,5.21-1.07,7.069-2.931c1.87-1.859,2.931-4.439,2.931-7.069s-1.061-5.21-2.931-7.07    C101.04,493.069,98.46,492,95.83,492z"/>
	</g>
</g>















</svg>
