<svg id="Layer_1" enable-background="new 0 0 512 512" height="512" viewBox="0 0 512 512" width="512" xmlns="http://www.w3.org/2000/svg"><g><path d="m15.436 313.558 3.851 16.798c1.628 6.1 3.487 12.104 5.565 18.007l30.425 59.132c1.933 2.756 3.923 5.468 5.965 8.139l46.562 46.46c.852.648 1.704 1.293 2.564 1.93l291.289-.018c.858-.635 1.707-1.279 2.556-1.925l46.558-46.462c2.039-2.668 4.027-5.377 5.957-8.13l30.423-59.133c2.076-5.898 3.933-11.898 5.561-17.993l3.859-16.834c2.897-15.067 4.433-30.619 4.433-46.532 0-135.311-109.691-245.002-245.002-245.002s-245.004 109.692-245.004 245.003c0 15.923 1.537 31.484 4.438 46.56z" fill="#2a428c"/><path d="m287.778 162.71v-65.696c0-4.741-5.536-7.324-9.169-4.278l-19.003 15.93c-2.075 1.739-5.098 1.739-7.173 0l-19.002-15.93c-3.633-3.046-9.169-.463-9.169 4.278v65.643c21.209-3.753 42.71-3.642 63.516.053z" fill="#ff4155"/><path d="m225.277 162.531-22.47-61.735c-1.622-4.455-7.707-4.989-10.08-.884l-12.408 21.469c-1.355 2.344-4.196 3.378-6.741 2.453l-23.305-8.47c-4.456-1.619-8.775 2.701-7.153 7.156l22.451 61.684c18.648-10.78 38.891-18.029 59.706-21.673z" fill="#50dd89"/><path d="m166.485 183.739-42.229-50.327c-3.048-3.632-8.949-2.052-9.774 2.617l-4.317 24.418c-.471 2.666-2.788 4.61-5.495 4.611l-24.796.011c-4.741.002-7.322 5.539-4.274 9.171l42.195 50.286c13.833-16.508 30.376-30.244 48.69-40.787z" fill="#ffdd40"/><path d="m117.793 224.526c6.021-7.185 12.556-13.843 19.525-19.942-5.799-3.262-3.911-10.398-3.911-10.398-30.342-1.761-25.492-30.173-25.492-30.173l-.015-.012c-.92.658-2.031 1.056-3.231 1.057l-24.796.011c-4.741.002-7.322 5.539-4.274 9.171z" fill="#ffb332"/><path d="m401.657 464.006-7.411-8.832c-12.702 15.156-27.69 27.967-44.232 38.124 18.465-7.679 35.787-17.549 51.643-29.292z" fill="#ffdd40"/><path d="m118.491 223.777-56.895-32.848c-4.106-2.37-9.111 1.132-8.29 5.802l4.295 24.422c.469 2.667-1.043 5.285-3.587 6.212l-23.297 8.491c-4.454 1.624-4.985 7.71-.88 10.08l56.849 32.822c7.355-20.245 18.202-38.81 31.805-54.981z" fill="#e80054"/><path d="m425.353 400.944c-7.354 20.245-18.201 38.81-31.805 54.98l10.665 6.157c17.522-13.332 33.19-28.97 46.558-46.463z" fill="#ff4155"/><path d="m404.213 462.081c8.306-6.32 16.18-13.174 23.605-20.483-5.306-2.05-6.839-6.641-6.839-6.641-5.921 2.011-9.45.889-11.553-1.04-4.751 7.735-10.06 15.091-15.877 22.006z" fill="#e80054"/><path d="m22.387 266.406c-4.669-.823-8.174 4.18-5.806 8.287l12.388 21.48c1.353 2.345.828 5.323-1.246 7.064l-12.288 10.321c1.091 5.671 2.376 11.273 3.851 16.798l56.716 10.001c-.013-21.539 3.83-42.694 11.083-62.543z" fill="#1e9ef4"/><path d="m436.036 339.344c.013 21.539-3.83 42.694-11.082 62.543l31.774 5.603c12.673-18.073 22.962-37.935 30.423-59.133z" fill="#4fabf7"/><path d="m76.056 339.334-51.204 9.029c7.462 21.198 17.751 41.06 30.425 59.132l31.756-5.6c-7.379-20.235-11.003-41.429-10.977-62.561z" fill="#1ba552"/><path d="m484.315 303.238c-2.073-1.741-2.598-4.719-1.246-7.064l12.389-21.48c2.369-4.107-1.137-9.111-5.806-8.287l-64.646 11.399c7.379 20.236 11.003 41.43 10.977 62.561l56.727-10.003c1.478-5.537 2.766-11.15 3.859-16.834z" fill="#50dd89"/><path d="m61.241 415.634c13.37 17.492 29.039 33.129 46.562 46.46l10.641-6.143c-13.855-16.491-24.509-35.168-31.712-55.034z" fill="#e80054"/><path d="m425.307 278.784 56.895-32.848c4.106-2.371 3.575-8.457-.879-10.08l-23.297-8.491c-2.544-.927-4.056-3.546-3.587-6.212l4.295-24.422c.821-4.669-4.184-8.172-8.29-5.802l-56.849 32.821c13.855 16.491 24.509 35.168 31.712 55.034z" fill="#ff4155"/><path d="m161.833 493.236c-16.754-10.336-31.574-23.25-44.005-38.103l-7.46 8.891c15.805 11.702 33.067 21.545 51.465 29.212z" fill="#4fabf7"/><path d="m394.211 224.567 42.229-50.327c3.047-3.632.467-9.169-4.274-9.171l-24.797-.011c-2.707-.001-5.024-1.945-5.495-4.611l-4.317-24.418c-.825-4.669-6.727-6.248-9.774-2.617l-42.194 50.285c18.66 10.759 35.059 24.665 48.622 40.87z" fill="#4fabf7"/><path d="m346.448 184.255 22.47-61.735c1.621-4.455-2.697-8.776-7.153-7.156l-23.305 8.47c-2.545.925-5.386-.109-6.741-2.453l-12.408-21.469c-2.372-4.105-8.458-3.571-10.08.884l-22.451 61.684c21.214 3.728 41.381 11.186 59.668 21.775z" fill="#50dd89"/><path d="m285.042 24.556c1.704-1.66.764-4.553-1.59-4.895l-15.683-2.279c-.935-.136-1.743-.723-2.161-1.57l-7.015-14.212c-1.053-2.133-4.094-2.133-5.147 0l-7.014 14.211c-.418.847-1.226 1.434-2.161 1.57l-15.683 2.279c-2.354.342-3.294 3.235-1.591 4.895l11.348 11.062c.676.659.985 1.609.825 2.54l-2.679 15.62c-.402 2.345 2.059 4.132 4.164 3.026l14.027-7.375c.836-.439 1.835-.439 2.671 0l14.027 7.375c2.106 1.107 4.566-.681 4.164-3.026l-2.679-15.62c-.159-.931.149-1.881.826-2.54z" fill="#ff4155"/><g><path d="m254.326 48.444 2.679-15.62c.16-.931-.149-1.881-.825-2.54l-11.348-11.062c-.531-.517-.805-1.155-.859-1.797l-15.383 2.236c-2.355.342-3.294 3.235-1.591 4.895l11.348 11.062c.677.659.985 1.609.826 2.54l-2.679 15.62c-.402 2.345 2.059 4.132 4.165 3.026l13.706-7.206c-.088-.361-.109-.748-.039-1.154z" fill="#e80054"/></g><path d="m54.96 146.428c1.271-1.239.57-3.398-1.187-3.653l-11.703-1.701c-.697-.101-1.3-.539-1.612-1.172l-5.234-10.605c-.786-1.592-3.055-1.592-3.841 0l-5.234 10.605c-.312.632-.915 1.07-1.613 1.172l-11.703 1.701c-1.757.255-2.458 2.414-1.187 3.653l8.468 8.255c.505.492.735 1.201.616 1.896l-1.999 11.656c-.3 1.75 1.536 3.084 3.108 2.258l10.467-5.503c.624-.328 1.369-.328 1.993 0l10.467 5.503c1.571.826 3.408-.508 3.107-2.258l-1.999-11.656c-.119-.695.111-1.404.616-1.896z" fill="#ffdd40"/><g><path d="m31.315 164.234 1.999-11.656c.119-.695-.111-1.404-.616-1.896l-8.468-8.255c-.363-.354-.549-.783-.612-1.22l-10.785 1.567c-1.757.255-2.458 2.414-1.187 3.653l8.469 8.255c.505.492.735 1.201.616 1.896l-1.999 11.656c-.3 1.75 1.536 3.084 3.108 2.258l9.613-5.054c-.154-.357-.212-.768-.138-1.204z" fill="#ffb332"/></g><g><path d="m178.649 82.31c-4.545 0-8.229-3.684-8.229-8.229v-23.04c0-4.545 3.684-8.229 8.229-8.229s8.229 3.684 8.229 8.229v23.041c0 4.545-3.684 8.228-8.229 8.228z" fill="#4fabf7"/></g><g><path d="m190.169 70.79h-23.041c-4.545 0-8.229-3.684-8.229-8.229s3.684-8.229 8.229-8.229h23.041c4.545 0 8.229 3.684 8.229 8.229s-3.684 8.229-8.229 8.229z" fill="#73c3f9"/></g><g><path d="m438.183 113.873c-4.545 0-8.229-3.684-8.229-8.229v-23.041c0-4.545 3.684-8.229 8.229-8.229s8.229 3.684 8.229 8.229v23.041c0 4.545-3.684 8.229-8.229 8.229z" fill="#38c674"/></g><g><path d="m449.703 102.352h-23.041c-4.545 0-8.229-3.684-8.229-8.229s3.684-8.229 8.229-8.229h23.041c4.545 0 8.229 3.684 8.229 8.229s-3.684 8.229-8.229 8.229z" fill="#50dd89"/></g><path d="m413.751 248.784c-50.295-87.113-161.686-116.96-248.798-66.665-87.113 50.294-116.96 161.685-66.665 248.798 13.375 23.165 31.07 42.28 51.48 56.917 32.136 15.487 68.171 24.166 106.232 24.166 38.031 0 74.038-8.666 106.155-24.13 75.335-53.884 98.87-157.206 51.596-239.086z" fill="#ffb332"/><path d="m362.155 487.87c20.223-14.464 36.707-32.495 49.097-52.713-4.501-2.185-4.896-7.775-4.896-7.775-82.727 17.434-94.02-41.672-94.02-41.672l-38.618-47.871c-15.469 0-15.639-13.304-15.639-13.304l-18.008-25.593c-4.366-1.318-2.751-5.828-2.751-5.828l-17.563-13.78c-87.993-4.114-75.021-73.153-75.021-73.153-4.682 0-7.515-1.251-9.215-2.942-63.793 56.149-81.357 151.254-37.233 227.679 13.375 23.165 31.07 42.28 51.48 56.917 32.136 15.486 68.171 24.165 106.232 24.165 38.031 0 74.038-8.666 106.155-24.13z" fill="#ff9100"/><path d="m342.971 490.456c-13.54 7.818-27.69 13.584-42.095 17.428 35.76-6.62 68.797-20.997 97.292-41.334 53.214-59.631 64.874-148.849 22.709-221.881-52.611-91.126-168.932-122.281-260.039-69.677-91.126 52.609-122.28 168.928-69.677 260.039 6.674 11.56 14.407 22.161 22.999 31.759 28.9 20.554 62.453 34.992 98.769 41.432-43.849-11.246-83.266-39.42-107.516-81.421-48.062-83.247-19.58-189.503 63.654-237.557 83.278-48.082 189.521-19.549 237.558 63.653 48.063 83.249 19.582 189.502-63.654 237.559z" fill="#ffdd40"/><g fill="#ffb332"><path d="m420.971 434.96c-13.764 4.669-14.615-7.578-14.615-7.578h-.001c-14.748 25.363-36.13 47.339-63.384 63.075-13.54 7.818-27.69 13.584-42.095 17.428 35.76-6.62 68.797-20.997 97.292-41.334 8.744-9.798 16.358-20.399 22.803-31.591z"/><path d="m114.161 466.791c28.9 20.554 62.453 34.992 98.769 41.432-43.849-11.246-83.266-39.42-107.516-81.421-43.025-74.522-24.701-167.475 39.321-220.616l.001-.006c-14.45 0-11.357-11.885-11.329-11.99-69.45 58.283-89.158 159.585-42.245 240.841 6.673 11.56 14.406 22.161 22.999 31.76z"/></g><g fill="#ffe98d"><path d="m417.265 316.125-39.257-32.159c-.063-.051-.127-.103-.192-.152-6.642-5.122-16.197.485-14.896 8.837l8.08 50.157c.725 4.502 4.966 7.539 9.433 6.816 4.487-.722 7.538-4.946 6.816-9.432l-1.11-6.892 15.322-8.846 5.375 4.403c3.517 2.881 8.702 2.365 11.58-1.151 2.88-3.516 2.365-8.701-1.151-11.581zm-33.927-.213-1.17-7.264 5.685 4.657z"/><path d="m263.861 352.351c-2.309-3.912-7.355-5.212-11.269-2.904-3.914 2.311-5.214 7.356-2.903 11.27l11.253 19.064-29.43-13.957c-3.255-1.545-7.133-.791-9.575 1.856-2.441 2.648-2.878 6.574-1.077 9.694l24.033 41.626c2.279 3.948 7.315 5.277 11.241 3.012 3.936-2.273 5.285-7.305 3.012-11.241l-10.834-18.765 27.83 13.198c3.646 1.723 7.85.974 10.462-1.862 2.695-2.925 3.069-7.183.914-10.917z"/><path d="m340.592 308.05c-2.31-3.913-7.355-5.211-11.269-2.904-3.914 2.311-5.214 7.357-2.903 11.27l11.253 19.063-29.429-13.956c-7.269-3.453-14.677 4.579-10.653 11.549l24.033 41.625c2.279 3.948 7.315 5.277 11.241 3.012 3.936-2.273 5.284-7.305 3.012-11.241l-10.834-18.765 27.83 13.198c3.645 1.723 7.85.974 10.462-1.862 2.695-2.925 3.069-7.183.913-10.917z"/><path d="m160.71 411.997c-2.272-3.937-7.305-5.284-11.241-3.012-3.936 2.273-5.285 7.305-3.012 11.241l19.243 33.331c.271.469.311 1.023.11 1.443-.431.284-1.955.775-4.501.695-4.561-.168-8.33 3.45-8.458 7.993s3.451 8.33 7.993 8.458c7.566.219 15.107-2.051 19.026-8.582 3.337-5.559 3.369-12.546.083-18.236z"/><path d="m287.155 338.994c-2.272-3.936-7.306-5.283-11.241-3.012-3.936 2.273-5.284 7.305-3.012 11.241l24.077 41.703c2.279 3.948 7.315 5.277 11.241 3.012 3.936-2.273 5.284-7.305 3.012-11.241z"/><path d="m212.435 382.134c-2.273-3.937-7.306-5.282-11.241-3.012-3.936 2.273-5.285 7.305-3.012 11.241l16.55 28.666c2.646 4.584-2.689 11.738-8.682 11.457-4.118-.185-5.165-1.435-6.026-2.926l-16.568-28.696c-2.272-3.937-7.307-5.282-11.241-3.012-3.936 2.273-5.285 7.305-3.012 11.241l16.568 28.696c6.897 11.946 22.407 13.889 32.969 7.81 10.909-6.278 17.243-20.677 10.244-32.799z"/><path d="m305.398 290.839c.725 4.501 4.966 7.539 9.433 6.816 4.487-.722 7.538-4.946 6.816-9.432l-1.11-6.892 15.322-8.846 5.375 4.403c3.516 2.881 8.702 2.365 11.58-1.151 2.88-3.516 2.365-8.7-1.151-11.58l-39.257-32.159c-.063-.051-.127-.103-.192-.152-6.589-5.076-16.046.39-14.925 8.637.431 3.136-1.982-12.305 8.109 50.356zm16.853-29.502-4.515 2.607-1.17-7.264z"/><path d="m154.703 390.321c3.936-2.273 5.285-7.305 3.012-11.241l-8.062-13.965 8.319-4.803c3.936-2.273 5.285-7.305 3.012-11.241-2.273-3.937-7.305-5.283-11.241-3.012l-8.319 4.803-3.496-6.055 9.652-5.573c3.936-2.273 5.285-7.305 3.012-11.241-2.273-3.937-7.305-5.283-11.241-3.012l-16.779 9.687c-3.936 2.273-5.285 7.305-3.012 11.241 7.07 12.245 11.584 20.065 23.901 41.398 2.28 3.95 7.316 5.279 11.242 3.014z"/><path d="m182.722 364.541c2.279 3.948 7.315 5.277 11.241 3.012l17.412-10.053c3.936-2.273 5.285-7.305 3.012-11.241-2.273-3.937-7.305-5.282-11.241-3.012l-10.286 5.938-3.7-6.408 9.001-5.197c3.936-2.273 5.285-7.305 3.012-11.241-2.272-3.935-7.306-5.283-11.241-3.012l-9.001 5.197-3.7-6.408 10.285-5.938c3.936-2.273 5.285-7.305 3.012-11.241-2.273-3.937-7.304-5.283-11.241-3.012l-17.411 10.052c-3.936 2.273-5.285 7.305-3.012 11.241z"/><path d="m220.839 317.796c.306-.032 7.597-.798 15.513-2.16 3.322-.566 5.851-.131 6.294 1.095.529 1.462-.419 4.461-3.574 6.282-3.615 2.086-7.904 2.646-11.47 1.501-4.329-1.393-8.962.99-10.352 5.318-1.39 4.327.991 8.961 5.317 10.352 8.067 2.592 17.084 1.499 24.734-2.918 9.717-5.61 14.268-16.599 10.823-26.131-2.622-7.254-10.447-14.139-24.56-11.719-5.787.995-11.354 1.664-13.503 1.908-.848-.319-1.343-1.9.283-3.63 3.998-4.253 10.759-3.346 11.049-3.304 4.441.746 8.674-2.23 9.463-6.678.793-4.475-2.191-8.746-6.666-9.539-5.753-1.017-17.674-.432-25.836 8.249-12.585 13.385-1.7 32.786 12.485 31.374z"/><path d="m255.087 277.167 4.343-2.507 19.963 34.576c2.279 3.948 7.315 5.277 11.241 3.012 3.936-2.273 5.284-7.305 3.012-11.241l-19.963-34.576 4.435-2.561c3.936-2.273 5.285-7.305 3.012-11.241-2.272-3.937-7.306-5.283-11.241-3.012l-23.031 13.297c-3.936 2.273-5.284 7.305-3.012 11.241 2.279 3.948 7.315 5.277 11.241 3.012z"/></g></g></svg>