<?xml version="1.0" encoding="iso-8859-1"?>
<!-- Generator: Adobe Illustrator 19.0.0, SVG Export Plug-In . SVG Version: 6.00 Build 0)  -->
<svg version="1.1" id="Capa_1" xmlns="http://www.w3.org/2000/svg" xmlns:xlink="http://www.w3.org/1999/xlink" x="0px" y="0px"
	 viewBox="0 0 512 512" style="enable-background:new 0 0 512 512;" xml:space="preserve">
<linearGradient id="SVGID_1_" gradientUnits="userSpaceOnUse" x1="256" y1="514" x2="256" y2="2" gradientTransform="matrix(1 0 0 -1 0 514)">
	<stop  offset="0" style="stop-color:#2AF598"/>
	<stop  offset="1" style="stop-color:#009EFD"/>
</linearGradient>
<path style="fill:url(#SVGID_1_);" d="M423.324,51.803c-20.413-40.108-42.666-49.312-46.92-50.75L373.289,0H341v512h40V362.454
	c15.345-1.663,37.185-7.03,54.58-23.124C452.447,323.727,461,302.083,461,275C461,176.017,448.324,100.922,423.324,51.803z
	 M408.559,309.836c-7.988,7.471-18.774,10.774-27.559,12.211V58.271c2.156,3.343,4.404,7.212,6.676,11.675
	C402.878,99.816,421,159.637,421,275C421,290.612,416.931,302.007,408.559,309.836z M211,0h40v144c0,48.293-34.41,88.698-80,97.989
	V512h-40V241.989C85.41,232.698,51,192.293,51,144V0h40v144c0,26.073,16.722,48.303,40,56.56V0h40v200.56
	c23.278-8.256,40-30.487,40-56.56V0z"/>
<g>
</g>
<g>
</g>
<g>
</g>
<g>
</g>
<g>
</g>
<g>
</g>
<g>
</g>
<g>
</g>
<g>
</g>
<g>
</g>
<g>
</g>
<g>
</g>
<g>
</g>
<g>
</g>
<g>
</g>
</svg>
