<?xml version="1.0" encoding="iso-8859-1"?>
<!-- Generator: Adobe Illustrator 19.0.0, SVG Export Plug-In . SVG Version: 6.00 Build 0)  -->
<svg version="1.1" id="Capa_1" xmlns="http://www.w3.org/2000/svg" xmlns:xlink="http://www.w3.org/1999/xlink" x="0px" y="0px"
	 viewBox="0 0 480 480" style="enable-background:new 0 0 480 480;" xml:space="preserve">
<path style="fill:#B6DEDC;" d="M84.776,0h310.448C442.044,0,480,37.956,480,84.776v118.448c0,46.82-37.956,84.776-84.776,84.776
	H84.776C37.956,288,0,250.044,0,203.224V84.776C0,37.956,37.956,0,84.776,0z"/>
<path style="fill:#344496;" d="M58.748,401.828c14.322-10.354,17.539-30.359,7.185-44.681s-30.359-17.539-44.681-7.185
	s-17.539,30.359-7.185,44.681c1.997,2.762,4.423,5.188,7.185,7.185C8.57,406.132,0.029,418.025,0,431.417V480h80v-48.583
	C79.971,418.025,71.43,406.133,58.748,401.828z"/>
<path style="fill:#D8EFED;" d="M16,203.228V84.772C16,37.954,53.954,0,100.772,0c0,0,0,0,0,0h-16C37.954,0,0,37.954,0,84.772
	c0,0,0,0,0,0v118.455C0,250.046,37.954,288,84.772,288h16C53.954,288,16,250.046,16,203.228z"/>
<circle style="fill:#4BAD32;" cx="96" cy="80" r="48"/>
<circle style="fill:#4CD625;" cx="96" cy="80" r="48"/>
<path style="fill:#5D6DB2;" d="M29.252,401.828c-14.27-10.253-17.527-30.133-7.274-44.403c5.195-7.231,13.183-11.954,22.022-13.022
	c-1.323-0.219-2.659-0.354-4-0.403c-17.635-0.038-31.962,14.227-32,31.861c-0.022,10.285,4.911,19.95,13.252,25.967
	C8.57,406.133,0.029,418.025,0,431.417V480h8v-48.583C8.029,418.025,16.57,406.133,29.252,401.828z"/>
<path style="fill:#344496;" d="M186.748,401.828c14.322-10.354,17.539-30.359,7.185-44.681s-30.359-17.539-44.681-7.185
	s-17.539,30.359-7.185,44.681c1.997,2.762,4.423,5.188,7.185,7.185c-12.682,4.304-21.223,16.196-21.252,29.589V480h80v-48.583
	C207.971,418.025,199.43,406.133,186.748,401.828z"/>
<path style="fill:#5D6DB2;" d="M157.252,401.828c-14.27-10.253-17.527-30.133-7.274-44.403c5.195-7.231,13.183-11.954,22.022-13.022
	c-1.323-0.219-2.659-0.354-4-0.403c-17.635-0.038-31.962,14.227-32,31.861c-0.022,10.285,4.911,19.95,13.252,25.967
	c-12.682,4.304-21.223,16.196-21.252,29.589V480h8v-48.583C136.029,418.025,144.57,406.133,157.252,401.828z"/>
<path style="fill:#344496;" d="M330.748,401.828c14.322-10.354,17.539-30.359,7.185-44.681s-30.359-17.539-44.681-7.185
	s-17.539,30.359-7.185,44.681c1.997,2.762,4.423,5.188,7.185,7.185c-12.682,4.304-21.223,16.196-21.252,29.589V480h80v-48.583
	C351.971,418.025,343.43,406.133,330.748,401.828z"/>
<path style="fill:#5D6DB2;" d="M301.252,401.828c-14.27-10.253-17.527-30.133-7.274-44.403c5.195-7.231,13.183-11.954,22.022-13.022
	c-1.323-0.219-2.659-0.354-4-0.403c-17.635-0.038-31.962,14.227-32,31.861c-0.022,10.285,4.911,19.95,13.252,25.967
	c-12.682,4.304-21.223,16.196-21.252,29.589V480h8v-48.583C280.029,418.025,288.57,406.133,301.252,401.828z"/>
<path style="fill:#344496;" d="M458.748,401.828c14.322-10.354,17.539-30.359,7.185-44.681s-30.359-17.539-44.681-7.185
	s-17.539,30.359-7.185,44.681c1.997,2.762,4.423,5.188,7.185,7.185c-12.682,4.304-21.223,16.196-21.252,29.589V480h80v-48.583
	C479.971,418.025,471.43,406.133,458.748,401.828z"/>
<path style="fill:#5D6DB2;" d="M429.252,401.828c-14.27-10.253-17.527-30.133-7.274-44.403c5.195-7.231,13.183-11.954,22.022-13.022
	c-1.323-0.219-2.659-0.354-4-0.403c-17.635-0.038-31.962,14.227-32,31.861c-0.022,10.285,4.911,19.95,13.252,25.967
	c-12.682,4.304-21.223,16.196-21.252,29.589V480h8v-48.583C408.029,418.025,416.57,406.133,429.252,401.828z"/>
<path style="fill:#FCD821;" d="M176,40h112v144H176V40z"/>
<path style="fill:#EC322C;" d="M416.764,38.98c-9.788-9.306-25.153-9.306-34.94,0L376,44.597l-5.823-5.617
	c-9.788-9.306-25.153-9.306-34.94,0c-9.306,8.837-9.687,23.546-0.849,32.852c0.276,0.29,0.559,0.573,0.849,0.849L376,112
	l40.764-39.319c9.306-8.837,9.687-23.546,0.849-32.852C417.337,39.538,417.054,39.255,416.764,38.98z"/>
<path style="fill:#344496;" d="M232,80l-24,32l24,32l24-32L232,80z"/>
<circle style="fill:#4BAD32;" cx="376" cy="200" r="56"/>
<path style="fill:#616161;" d="M376,240c-13.249-0.014-23.986-10.751-24-24h16c0,4.418,3.582,8,8,8s8-3.582,8-8h16
	C399.986,229.249,389.249,239.986,376,240z"/>
<path style="fill:#EC322C;" d="M48,160h96v56h-24l8,40l-48-40H48V160z"/>
<g>
	<path style="fill:#74DD37;" d="M84.739,91.367c-9.643-9.646-22.945-14.715-36.562-13.934c-1.51,26.378,18.65,48.986,45.028,50.495
		c1.821,0.104,3.646,0.104,5.467,0C99.454,114.312,94.385,101.01,84.739,91.367z"/>
	<path style="fill:#74DD37;" d="M129.994,46.112c-9.643-9.646-22.945-14.715-36.562-13.934
		c-1.51,26.379,18.651,48.986,45.029,50.496c1.821,0.104,3.646,0.104,5.466,0C144.709,69.057,139.64,55.755,129.994,46.112z"/>
</g>
<g>
	<circle style="fill:#616161;" cx="352" cy="184" r="8"/>
	<circle style="fill:#616161;" cx="400" cy="184" r="8"/>
</g>
<g>
</g>
<g>
</g>
<g>
</g>
<g>
</g>
<g>
</g>
<g>
</g>
<g>
</g>
<g>
</g>
<g>
</g>
<g>
</g>
<g>
</g>
<g>
</g>
<g>
</g>
<g>
</g>
<g>
</g>
</svg>
